{
	"asset":{
		"generator":"Khronos glTF Blender I/O v4.2.57",
		"version":"2.0"
	},
	"extensionsUsed":[
		"KHR_materials_specular"
	],
	"scene":0,
	"scenes":[
		{
			"name":"Scene",
			"nodes":[
				67
			]
		}
	],
	"nodes":[
		{
			"name":"mixamorig:HeadTop_End",
			"rotation":[
				-3.725290298461914e-09,
				-1.1102230246251565e-15,
				3.3306690738754696e-16,
				1
			],
			"translation":[
				9.857021723291837e-07,
				20.96277618408203,
				10.12293815612793
			]
		},
		{
			"children":[
				0
			],
			"name":"mixamorig:Head",
			"rotation":[
				-4.395843120619247e-07,
				-1.1990409512984638e-14,
				-1.587618925213974e-14,
				1
			],
			"scale":[
				1,
				0.9999999403953552,
				0.9999999403953552
			],
			"translation":[
				-1.0756593837868422e-07,
				9.341911315917969,
				2.841001510620117
			]
		},
		{
			"children":[
				1
			],
			"name":"mixamorig:Neck",
			"rotation":[
				-3.725290298461914e-09,
				-5.551115123125783e-15,
				6.628031457012185e-14,
				1
			],
			"translation":[
				4.1745806811377406e-10,
				16.865367889404297,
				-2.6702880859375e-05
			]
		},
		{
			"name":"mixamorig:RightHandThumb4",
			"rotation":[
				0.005775086116045713,
				-0.1175067126750946,
				-0.048742104321718216,
				0.9918583631515503
			],
			"scale":[
				0.9999999403953552,
				0.9999999403953552,
				1.0000001192092896
			],
			"translation":[
				4.38690185546875e-05,
				2.5749740600585938,
				5.57885505259037e-06
			]
		},
		{
			"children":[
				3
			],
			"name":"mixamorig:RightHandThumb3",
			"rotation":[
				-0.0016643049893900752,
				-0.0008101045968942344,
				0.0069182557053864,
				0.9999743700027466
			],
			"translation":[
				2.47955322265625e-05,
				3.4162635803222656,
				-8.544564479961991e-06
			]
		},
		{
			"children":[
				4
			],
			"name":"mixamorig:RightHandThumb2",
			"rotation":[
				-0.002315392019227147,
				-0.001169178867712617,
				0.009301121346652508,
				0.9999533891677856
			],
			"scale":[
				0.9999998807907104,
				1,
				1
			],
			"translation":[
				1.1444091796875e-05,
				4.189018249511719,
				6.121146725490689e-06
			]
		},
		{
			"children":[
				5
			],
			"name":"mixamorig:RightHandThumb1",
			"rotation":[
				0.2532837986946106,
				0.06161776930093765,
				-0.22821104526519775,
				0.9380673170089722
			],
			"scale":[
				0.9999999403953552,
				1,
				1
			],
			"translation":[
				2.681889295578003,
				2.464801788330078,
				1.5739948749542236
			]
		},
		{
			"name":"mixamorig:RightHandIndex4",
			"rotation":[
				-2.8348626983643044e-06,
				0.000998210278339684,
				8.256082219304517e-05,
				0.9999995231628418
			],
			"scale":[
				1,
				1.0000001192092896,
				1
			],
			"translation":[
				2.0349223632365465e-05,
				2.772186517715454,
				6.062909960746765e-07
			]
		},
		{
			"children":[
				7
			],
			"name":"mixamorig:RightHandIndex3",
			"rotation":[
				8.10618803370744e-06,
				2.404422275503748e-06,
				-8.551262726541609e-05,
				1
			],
			"scale":[
				1,
				1.0000001192092896,
				1
			],
			"translation":[
				1.7206024494953454e-05,
				2.850019931793213,
				2.076529199257493e-06
			]
		},
		{
			"children":[
				8
			],
			"name":"mixamorig:RightHandIndex2",
			"rotation":[
				-5.3535904953605495e-06,
				3.9081191971490625e-07,
				0.00025597692001610994,
				1
			],
			"scale":[
				0.9999999403953552,
				1,
				1
			],
			"translation":[
				-2.0079227397218347e-05,
				3.69999623298645,
				1.7068427041522227e-05
			]
		},
		{
			"children":[
				9
			],
			"name":"mixamorig:RightHandIndex1",
			"rotation":[
				-1.4325171604490095e-10,
				-8.684023100613558e-07,
				-0.00016496000171173364,
				1
			],
			"scale":[
				0.9999999403953552,
				1,
				1
			],
			"translation":[
				2.259861707687378,
				9.108287811279297,
				0.5178729891777039
			]
		},
		{
			"name":"mixamorig:RightHandMiddle4",
			"rotation":[
				-2.748532324403641e-06,
				0.0009333485504612327,
				0.00017088398453779519,
				0.9999995827674866
			],
			"scale":[
				0.9999998807907104,
				0.9999999403953552,
				0.9999999403953552
			],
			"translation":[
				-1.9151120795868337e-05,
				2.946620225906372,
				2.627719140946283e-06
			]
		},
		{
			"children":[
				11
			],
			"name":"mixamorig:RightHandMiddle3",
			"rotation":[
				2.5855881631287048e-06,
				1.141555912909098e-06,
				-0.0003206648107152432,
				0.9999999403953552
			],
			"scale":[
				1.0000001192092896,
				1,
				1
			],
			"translation":[
				5.3478433983400464e-05,
				2.949979305267334,
				1.3508222764357924e-05
			]
		},
		{
			"children":[
				12
			],
			"name":"mixamorig:RightHandMiddle2",
			"rotation":[
				-2.5836725399130955e-06,
				-1.6262575286418723e-07,
				0.0008496824302710593,
				0.9999996423721313
			],
			"scale":[
				1,
				1.0000001192092896,
				1
			],
			"translation":[
				-2.3090600734576583e-05,
				3.700021982192993,
				2.1277048745105276e-06
			]
		},
		{
			"children":[
				13
			],
			"name":"mixamorig:RightHandMiddle1",
			"rotation":[
				-7.202833884889515e-10,
				-1.4335712421598146e-06,
				-0.0005031257751397789,
				0.9999998807907104
			],
			"translation":[
				3.5096782085020095e-05,
				9.532512664794922,
				5.0544444093247876e-05
			]
		},
		{
			"name":"mixamorig:RightHandRing4",
			"rotation":[
				1.1616450734663886e-07,
				0.0001474091986892745,
				-0.0007979799411259592,
				0.9999997019767761
			],
			"scale":[
				1,
				1,
				0.9999999403953552
			],
			"translation":[
				2.6908761356025934e-05,
				2.638822555541992,
				-1.8399778127786703e-05
			]
		},
		{
			"children":[
				15
			],
			"name":"mixamorig:RightHandRing3",
			"rotation":[
				2.6403636184113566e-06,
				-3.178335646225605e-06,
				-0.0001158909872174263,
				1
			],
			"scale":[
				1,
				1.0000001192092896,
				1
			],
			"translation":[
				-1.7823651432991028e-05,
				2.88969087600708,
				-4.14179521612823e-06
			]
		},
		{
			"children":[
				16
			],
			"name":"mixamorig:RightHandRing2",
			"rotation":[
				-2.640225829964038e-06,
				4.6026375457586255e-06,
				-0.00021688881679438055,
				1
			],
			"scale":[
				0.9999998807907104,
				0.9999999403953552,
				1
			],
			"translation":[
				4.100683145225048e-05,
				3.379279136657715,
				7.5956795626552776e-06
			]
		},
		{
			"children":[
				17
			],
			"name":"mixamorig:RightHandRing1",
			"rotation":[
				3.5960648347987956e-10,
				-2.342349944228772e-06,
				0.00015352381160482764,
				1
			],
			"scale":[
				0.9999999403953552,
				1,
				1
			],
			"translation":[
				-1.865107774734497,
				9.10360336303711,
				0.04308018460869789
			]
		},
		{
			"name":"mixamorig:RightHandPinky4",
			"rotation":[
				-3.5268967621959746e-06,
				0.0015602719504386187,
				-5.0488892156863585e-05,
				0.9999988079071045
			],
			"scale":[
				0.9999999403953552,
				1.0000001192092896,
				1.0000001192092896
			],
			"translation":[
				-1.256278483197093e-05,
				2.115783214569092,
				-6.341957487165928e-06
			]
		},
		{
			"children":[
				19
			],
			"name":"mixamorig:RightHandPinky3",
			"rotation":[
				3.5799084798782133e-06,
				3.3427174912503688e-06,
				-0.0004933971213176847,
				0.9999998807907104
			],
			"scale":[
				0.9999999403953552,
				1,
				1
			],
			"translation":[
				3.930792445316911e-06,
				2.0999789237976074,
				-1.6422156477347016e-05
			]
		},
		{
			"children":[
				20
			],
			"name":"mixamorig:RightHandPinky2",
			"rotation":[
				-6.057711061657756e-07,
				-1.5041654251035652e-06,
				0.0008446963620372117,
				0.9999996423721313
			],
			"scale":[
				0.9999998807907104,
				0.9999999403953552,
				0.9999998807907104
			],
			"translation":[
				-2.7781235985457897e-05,
				3.600018262863159,
				-2.0488223526626825e-05
			]
		},
		{
			"children":[
				21
			],
			"name":"mixamorig:RightHandPinky1",
			"rotation":[
				4.238055680616526e-06,
				9.349637366540264e-07,
				0.0005213407566770911,
				0.9999998807907104
			],
			"translation":[
				-3.806239366531372,
				8.076679229736328,
				0.48671406507492065
			]
		},
		{
			"children":[
				6,
				10,
				14,
				18,
				22
			],
			"name":"mixamorig:RightHand",
			"rotation":[
				-6.016952142124616e-17,
				3.552713678800501e-15,
				-3.169626074510909e-17,
				1
			],
			"translation":[
				3.5096782085020095e-05,
				28.328838348388672,
				2.002686778723728e-05
			]
		},
		{
			"children":[
				23
			],
			"name":"mixamorig:RightForeArm",
			"rotation":[
				-1.8626613584871166e-09,
				-1.19566621492595e-07,
				4.669323594441721e-09,
				1
			],
			"scale":[
				1.0000001192092896,
				0.9999999403953552,
				1
			],
			"translation":[
				3.8627451431239024e-05,
				27.841522216796875,
				-1.4294602806330658e-05
			]
		},
		{
			"children":[
				24
			],
			"name":"mixamorig:RightArm",
			"rotation":[
				-0.024616245180368423,
				0.0025630779564380646,
				-0.1034979298710823,
				0.9943217635154724
			],
			"scale":[
				1,
				0.9999998211860657,
				1
			],
			"translation":[
				2.586841583251953e-05,
				10.83818244934082,
				-7.0183014031499624e-06
			]
		},
		{
			"children":[
				25
			],
			"name":"mixamorig:RightShoulder",
			"rotation":[
				0.48443129658699036,
				-0.5709636807441711,
				0.5261631011962891,
				0.4030871093273163
			],
			"scale":[
				1,
				1.0000001192092896,
				1
			],
			"translation":[
				-4.56997013092041,
				11.195880889892578,
				-0.8066309094429016
			]
		},
		{
			"name":"mixamorig:LeftHandThumb4",
			"rotation":[
				0.005152308382093906,
				0.12267694622278214,
				0.04164787381887436,
				0.9915590286254883
			],
			"scale":[
				1,
				0.9999998807907104,
				0.9999998807907104
			],
			"translation":[
				-9.5367431640625e-06,
				2.5805625915527344,
				-2.430938184261322e-05
			]
		},
		{
			"children":[
				27
			],
			"name":"mixamorig:LeftHandThumb3",
			"rotation":[
				-0.0015308118890970945,
				0.0007500731735490263,
				-0.006070159841328859,
				0.999980092048645
			],
			"scale":[
				0.9999998807907104,
				1,
				0.9999998211860657
			],
			"translation":[
				0,
				3.4183921813964844,
				5.816458724439144e-06
			]
		},
		{
			"children":[
				28
			],
			"name":"mixamorig:LeftHandThumb2",
			"rotation":[
				-0.0020660036243498325,
				0.001038450631313026,
				-0.008216377347707748,
				0.9999635815620422
			],
			"translation":[
				7.62939453125e-06,
				4.187107086181641,
				3.411422949284315e-05
			]
		},
		{
			"children":[
				29
			],
			"name":"mixamorig:LeftHandThumb1",
			"rotation":[
				0.253095418214798,
				-0.06132148951292038,
				0.22735455632209778,
				0.9383455514907837
			],
			"scale":[
				0.9999998807907104,
				1,
				0.9999999403953552
			],
			"translation":[
				-2.6817641258239746,
				2.4661474227905273,
				1.5761834383010864
			]
		},
		{
			"name":"mixamorig:LeftHandIndex4",
			"rotation":[
				-2.755780997176771e-06,
				-0.0003809196059592068,
				-1.649573096074164e-05,
				0.9999999403953552
			],
			"scale":[
				1,
				0.9999999403953552,
				1
			],
			"translation":[
				-1.136629725806415e-05,
				2.7748613357543945,
				-4.327739588916302e-06
			]
		},
		{
			"children":[
				31
			],
			"name":"mixamorig:LeftHandIndex3",
			"rotation":[
				7.26409865592359e-08,
				-3.525973625073675e-06,
				-6.974631105549634e-05,
				1
			],
			"scale":[
				0.9999999403953552,
				0.9999999403953552,
				0.9999999403953552
			],
			"translation":[
				1.3039156328886747e-05,
				2.8500125408172607,
				-1.1688098311424255e-07
			]
		},
		{
			"children":[
				32
			],
			"name":"mixamorig:LeftHandIndex2",
			"rotation":[
				6.299583787949814e-07,
				4.5289434638107195e-06,
				0.0001096113701350987,
				1
			],
			"scale":[
				0.9999999403953552,
				0.9999999403953552,
				0.9999999403953552
			],
			"translation":[
				-1.860258635133505e-05,
				3.699995517730713,
				-1.7624988686293364e-05
			]
		},
		{
			"children":[
				33
			],
			"name":"mixamorig:LeftHandIndex1",
			"rotation":[
				1.1195413662790088e-06,
				-1.3163087260181783e-06,
				-4.5363987737800926e-05,
				1
			],
			"scale":[
				0.9999999403953552,
				0.9999999403953552,
				0.9999999403953552
			],
			"translation":[
				-2.259920597076416,
				9.109318733215332,
				0.5180194973945618
			]
		},
		{
			"name":"mixamorig:LeftHandMiddle4",
			"rotation":[
				3.1681562262519947e-08,
				-0.0010210169712081552,
				3.1004787160782143e-05,
				0.999999463558197
			],
			"scale":[
				0.9999998807907104,
				0.9999998807907104,
				0.9999998807907104
			],
			"translation":[
				-1.8114813428837806e-05,
				2.952871799468994,
				-6.306395334831905e-06
			]
		},
		{
			"children":[
				35
			],
			"name":"mixamorig:LeftHandMiddle3",
			"rotation":[
				-2.5862220809358405e-06,
				-6.251020323588818e-08,
				2.0679852241300978e-05,
				1
			],
			"scale":[
				0.9999999403953552,
				0.9999999403953552,
				0.9999999403953552
			],
			"translation":[
				1.1843352694995701e-05,
				2.9499993324279785,
				-5.201727617532015e-06
			]
		},
		{
			"children":[
				36
			],
			"name":"mixamorig:LeftHandMiddle2",
			"rotation":[
				2.5862850634439383e-06,
				1.4278596154326806e-06,
				2.264703653054312e-05,
				1
			],
			"scale":[
				0.9999999403953552,
				0.9999999403953552,
				0.9999999403953552
			],
			"translation":[
				-1.8478080164641142e-05,
				3.7000010013580322,
				-3.5031325751333497e-06
			]
		},
		{
			"children":[
				37
			],
			"name":"mixamorig:LeftHandMiddle1",
			"rotation":[
				-9.273339856008533e-07,
				-1.3419692095339997e-06,
				-3.2991993066389114e-05,
				1
			],
			"scale":[
				0.9999999403953552,
				0.9999999403953552,
				0.9999999403953552
			],
			"translation":[
				-9.427586337551475e-05,
				9.533405303955078,
				-4.977987555321306e-05
			]
		},
		{
			"name":"mixamorig:LeftHandRing4",
			"rotation":[
				-8.530233408521326e-09,
				0.0004945656401105225,
				1.7311209376202896e-05,
				0.9999998807907104
			],
			"scale":[
				1,
				0.9999999403953552,
				1
			],
			"translation":[
				-2.956498065032065e-05,
				2.6443097591400146,
				-8.023993132155738e-07
			]
		},
		{
			"children":[
				39
			],
			"name":"mixamorig:LeftHandRing3",
			"rotation":[
				-2.586241862445604e-06,
				5.979185289106681e-07,
				5.979240995657165e-07,
				1
			],
			"scale":[
				1,
				0.9999999403953552,
				1
			],
			"translation":[
				3.0420080292969942e-05,
				2.949981927871704,
				-1.1141732102259994e-05
			]
		},
		{
			"children":[
				40
			],
			"name":"mixamorig:LeftHandRing2",
			"rotation":[
				2.5867689146252815e-06,
				-4.5156139094615355e-06,
				-4.515596629062202e-06,
				1
			],
			"scale":[
				0.9999999403953552,
				0.9999998807907104,
				0.9999999403953552
			],
			"translation":[
				-1.9735773093998432e-05,
				3.150015115737915,
				-6.64943445372046e-06
			]
		},
		{
			"children":[
				41
			],
			"name":"mixamorig:LeftHandRing1",
			"rotation":[
				-9.278048764826963e-07,
				3.429614025662886e-06,
				9.688084901426919e-06,
				1
			],
			"scale":[
				0.9999999403953552,
				0.9999999403953552,
				0.9999999403953552
			],
			"translation":[
				1.8650485277175903,
				9.104541778564453,
				0.04300957918167114
			]
		},
		{
			"name":"mixamorig:LeftHandPinky4",
			"rotation":[
				-3.820549409283558e-06,
				-0.0007824391359463334,
				-0.00029433437157422304,
				0.9999996423721313
			],
			"scale":[
				0.9999998807907104,
				1,
				0.9999998211860657
			],
			"translation":[
				5.46881346963346e-06,
				2.125521183013916,
				3.363037990311568e-07
			]
		},
		{
			"children":[
				43
			],
			"name":"mixamorig:LeftHandPinky3",
			"rotation":[
				7.2662105594645254e-06,
				-5.135347237228416e-06,
				-7.231028575915843e-05,
				1
			],
			"translation":[
				-3.542902413755655e-05,
				2.1000218391418457,
				-4.933914169669151e-06
			]
		},
		{
			"children":[
				44
			],
			"name":"mixamorig:LeftHandPinky2",
			"rotation":[
				-3.0254918783612084e-06,
				5.965493073745165e-06,
				-0.00020467923604883254,
				1
			],
			"translation":[
				3.726861905306578e-05,
				3.599992275238037,
				-4.776811692863703e-06
			]
		},
		{
			"children":[
				45
			],
			"name":"mixamorig:LeftHandPinky1",
			"rotation":[
				-5.162060006114189e-06,
				-1.8102651893059374e-06,
				0.002042991342023015,
				0.9999979138374329
			],
			"scale":[
				0.9999999403953552,
				0.9999999403953552,
				0.9999999403953552
			],
			"translation":[
				3.806210994720459,
				8.07779312133789,
				0.4868573248386383
			]
		},
		{
			"children":[
				30,
				34,
				38,
				42,
				46
			],
			"name":"mixamorig:LeftHand",
			"rotation":[
				1.1931547305721324e-07,
				6.712796246329585e-15,
				-1.0096911235704317e-13,
				1
			],
			"scale":[
				0.9999999403953552,
				0.9999999403953552,
				0.9999999403953552
			],
			"translation":[
				-3.324065255583264e-05,
				28.32884979248047,
				1.810840331017971e-07
			]
		},
		{
			"children":[
				47
			],
			"name":"mixamorig:LeftForeArm",
			"rotation":[
				5.359996748666163e-07,
				-5.487945600179955e-07,
				-5.540275083149027e-07,
				1
			],
			"scale":[
				0.9999999403953552,
				0.9999999403953552,
				0.9999999403953552
			],
			"translation":[
				5.046019214205444e-05,
				27.841533660888672,
				1.1970005289185792e-06
			]
		},
		{
			"children":[
				48
			],
			"name":"mixamorig:LeftArm",
			"rotation":[
				-0.02460702322423458,
				-0.0025615068152546883,
				0.10350444912910461,
				0.9943212270736694
			],
			"scale":[
				1,
				0.9999999403953552,
				0.9999998807907104
			],
			"translation":[
				-2.9325485229492188e-05,
				10.837714195251465,
				-1.926179538713768e-05
			]
		},
		{
			"children":[
				49
			],
			"name":"mixamorig:LeftShoulder",
			"rotation":[
				0.48442310094833374,
				0.570970356464386,
				-0.5261616110801697,
				0.40308964252471924
			],
			"scale":[
				0.9999997615814209,
				0.9999995231628418,
				0.9999998807907104
			],
			"translation":[
				4.570446014404297,
				11.195663452148438,
				-0.8066560626029968
			]
		},
		{
			"children":[
				2,
				26,
				50
			],
			"name":"mixamorig:Spine2",
			"rotation":[
				0.012885364703834057,
				-4.771202877229541e-10,
				-3.702409756556335e-08,
				0.9999169707298279
			],
			"scale":[
				1,
				1.0000001192092896,
				1.0000001192092896
			],
			"translation":[
				7.958078640513122e-13,
				9.32208251953125,
				-2.288818359375e-05
			]
		},
		{
			"children":[
				51
			],
			"name":"mixamorig:Spine1",
			"rotation":[
				1.460313910683908e-06,
				-4.427014734209285e-15,
				-9.670042544485113e-14,
				1
			],
			"scale":[
				1,
				1,
				0.9999998807907104
			],
			"translation":[
				-7.958078640513122e-12,
				10.002685546875,
				3.0517578125e-05
			]
		},
		{
			"children":[
				52
			],
			"name":"mixamorig:Spine",
			"rotation":[
				-0.08015661686658859,
				2.9048082841008627e-13,
				-2.4806794840515067e-07,
				0.9967823028564453
			],
			"scale":[
				1,
				0.9999998211860657,
				0.9999999403953552
			],
			"translation":[
				-4.1366862713054786e-10,
				10.1824369430542,
				5.2928924560546875e-05
			]
		},
		{
			"name":"mixamorig:RightToe_End",
			"rotation":[
				1.3758216788062327e-08,
				0.011608132161200047,
				1.592733722688422e-10,
				0.9999326467514038
			],
			"scale":[
				1.0000001192092896,
				1.0000001192092896,
				1
			],
			"translation":[
				-1.2315030062381993e-06,
				9.2781400680542,
				1.204475665872451e-07
			]
		},
		{
			"children":[
				54
			],
			"name":"mixamorig:RightToeBase",
			"rotation":[
				0.33524197340011597,
				-3.053161634625212e-08,
				-7.657080658418636e-08,
				0.9421320557594299
			],
			"translation":[
				-8.881575581654033e-07,
				13.81686019897461,
				-1.4493871276499704e-05
			]
		},
		{
			"children":[
				55
			],
			"name":"mixamorig:RightFoot",
			"rotation":[
				0.45973947644233704,
				3.865284980975048e-08,
				-1.4326003849873814e-07,
				0.888053834438324
			],
			"scale":[
				1,
				1.0000001192092896,
				1
			],
			"translation":[
				-3.2270031624648254e-07,
				44.527809143066406,
				-4.209630424156785e-05
			]
		},
		{
			"children":[
				56
			],
			"name":"mixamorig:RightLeg",
			"rotation":[
				-0.0380912683904171,
				-3.4497940504252256e-08,
				1.685873840528984e-08,
				0.9992743134498596
			],
			"scale":[
				1,
				0.9999999403953552,
				0.9999999403953552
			],
			"translation":[
				1.0060890645036125e-06,
				44.37147521972656,
				2.0252689864719287e-05
			]
		},
		{
			"children":[
				57
			],
			"name":"mixamorig:RightUpLeg",
			"rotation":[
				-3.442621832050463e-08,
				0.010356336832046509,
				0.9999463558197021,
				2.575727364728664e-07
			],
			"scale":[
				1,
				1.0000001192092896,
				0.9999999403953552
			],
			"translation":[
				-8.207788467407227,
				-6.771757125854492,
				-1.5122261047363281
			]
		},
		{
			"name":"mixamorig:LeftToe_End",
			"rotation":[
				2.7061195950750516e-08,
				-0.011869153007864952,
				-3.211741983477623e-10,
				0.9999295473098755
			],
			"translation":[
				-2.778860732632893e-07,
				9.278164863586426,
				1.0908959211519687e-06
			]
		},
		{
			"children":[
				59
			],
			"name":"mixamorig:LeftToeBase",
			"rotation":[
				0.33524131774902344,
				2.634104667720294e-08,
				-1.334390731244639e-07,
				0.942132294178009
			],
			"scale":[
				1,
				0.9999998807907104,
				1
			],
			"translation":[
				1.910739655386351e-07,
				13.816873550415039,
				-1.638002140680328e-05
			]
		},
		{
			"children":[
				60
			],
			"name":"mixamorig:LeftFoot",
			"rotation":[
				0.45974892377853394,
				1.18299248175191e-09,
				-1.5616626569681102e-07,
				0.8880489468574524
			],
			"translation":[
				-3.530754213443288e-07,
				44.52787399291992,
				5.442128895083442e-05
			]
		},
		{
			"children":[
				61
			],
			"name":"mixamorig:LeftLeg",
			"rotation":[
				-0.038112517446279526,
				-1.335960178039386e-07,
				1.6408391090294572e-08,
				0.9992734789848328
			],
			"translation":[
				1.4698580343974754e-06,
				44.37139129638672,
				-2.503941323084291e-05
			]
		},
		{
			"children":[
				62
			],
			"name":"mixamorig:LeftUpLeg",
			"rotation":[
				-9.011212398490898e-08,
				0.01036769524216652,
				0.9999462366104126,
				2.67742620962963e-07
			],
			"scale":[
				1,
				0.9999998211860657,
				0.9999999403953552
			],
			"translation":[
				8.207789421081543,
				-6.771795272827148,
				-1.5121647119522095
			]
		},
		{
			"children":[
				53,
				58,
				63
			],
			"name":"mixamorig:Hips",
			"rotation":[
				-0.7025254368782043,
				1.7827876774845208e-07,
				1.7599072066332155e-07,
				0.7116586565971375
			],
			"translation":[
				-7.727290721959434e-06,
				-327.17779541015625,
				-104.27489471435547
			]
		},
		{
			"mesh":0,
			"name":"Beta_Joints",
			"skin":0
		},
		{
			"mesh":1,
			"name":"Beta_Surface",
			"skin":0
		},
		{
			"children":[
				65,
				66,
				64
			],
			"name":"Armature",
			"rotation":[
				0.7071068286895752,
				0,
				0,
				0.7071068286895752
			],
			"scale":[
				0.009999999776482582,
				0.009999999776482582,
				0.009999999776482582
			]
		}
	],
	"animations":[
		{
			"channels":[
				{
					"sampler":0,
					"target":{
						"node":64,
						"path":"translation"
					}
				},
				{
					"sampler":1,
					"target":{
						"node":64,
						"path":"rotation"
					}
				},
				{
					"sampler":2,
					"target":{
						"node":64,
						"path":"scale"
					}
				},
				{
					"sampler":3,
					"target":{
						"node":53,
						"path":"translation"
					}
				},
				{
					"sampler":4,
					"target":{
						"node":53,
						"path":"rotation"
					}
				},
				{
					"sampler":5,
					"target":{
						"node":53,
						"path":"scale"
					}
				},
				{
					"sampler":6,
					"target":{
						"node":52,
						"path":"translation"
					}
				},
				{
					"sampler":7,
					"target":{
						"node":52,
						"path":"rotation"
					}
				},
				{
					"sampler":8,
					"target":{
						"node":52,
						"path":"scale"
					}
				},
				{
					"sampler":9,
					"target":{
						"node":51,
						"path":"translation"
					}
				},
				{
					"sampler":10,
					"target":{
						"node":51,
						"path":"rotation"
					}
				},
				{
					"sampler":11,
					"target":{
						"node":51,
						"path":"scale"
					}
				},
				{
					"sampler":12,
					"target":{
						"node":2,
						"path":"translation"
					}
				},
				{
					"sampler":13,
					"target":{
						"node":2,
						"path":"rotation"
					}
				},
				{
					"sampler":14,
					"target":{
						"node":2,
						"path":"scale"
					}
				},
				{
					"sampler":15,
					"target":{
						"node":1,
						"path":"translation"
					}
				},
				{
					"sampler":16,
					"target":{
						"node":1,
						"path":"rotation"
					}
				},
				{
					"sampler":17,
					"target":{
						"node":1,
						"path":"scale"
					}
				},
				{
					"sampler":18,
					"target":{
						"node":0,
						"path":"translation"
					}
				},
				{
					"sampler":19,
					"target":{
						"node":0,
						"path":"rotation"
					}
				},
				{
					"sampler":20,
					"target":{
						"node":0,
						"path":"scale"
					}
				},
				{
					"sampler":21,
					"target":{
						"node":26,
						"path":"translation"
					}
				},
				{
					"sampler":22,
					"target":{
						"node":26,
						"path":"rotation"
					}
				},
				{
					"sampler":23,
					"target":{
						"node":26,
						"path":"scale"
					}
				},
				{
					"sampler":24,
					"target":{
						"node":25,
						"path":"translation"
					}
				},
				{
					"sampler":25,
					"target":{
						"node":25,
						"path":"rotation"
					}
				},
				{
					"sampler":26,
					"target":{
						"node":25,
						"path":"scale"
					}
				},
				{
					"sampler":27,
					"target":{
						"node":24,
						"path":"translation"
					}
				},
				{
					"sampler":28,
					"target":{
						"node":24,
						"path":"rotation"
					}
				},
				{
					"sampler":29,
					"target":{
						"node":24,
						"path":"scale"
					}
				},
				{
					"sampler":30,
					"target":{
						"node":23,
						"path":"translation"
					}
				},
				{
					"sampler":31,
					"target":{
						"node":23,
						"path":"rotation"
					}
				},
				{
					"sampler":32,
					"target":{
						"node":23,
						"path":"scale"
					}
				},
				{
					"sampler":33,
					"target":{
						"node":6,
						"path":"translation"
					}
				},
				{
					"sampler":34,
					"target":{
						"node":6,
						"path":"rotation"
					}
				},
				{
					"sampler":35,
					"target":{
						"node":6,
						"path":"scale"
					}
				},
				{
					"sampler":36,
					"target":{
						"node":5,
						"path":"translation"
					}
				},
				{
					"sampler":37,
					"target":{
						"node":5,
						"path":"rotation"
					}
				},
				{
					"sampler":38,
					"target":{
						"node":5,
						"path":"scale"
					}
				},
				{
					"sampler":39,
					"target":{
						"node":4,
						"path":"translation"
					}
				},
				{
					"sampler":40,
					"target":{
						"node":4,
						"path":"rotation"
					}
				},
				{
					"sampler":41,
					"target":{
						"node":4,
						"path":"scale"
					}
				},
				{
					"sampler":42,
					"target":{
						"node":3,
						"path":"translation"
					}
				},
				{
					"sampler":43,
					"target":{
						"node":3,
						"path":"rotation"
					}
				},
				{
					"sampler":44,
					"target":{
						"node":3,
						"path":"scale"
					}
				},
				{
					"sampler":45,
					"target":{
						"node":10,
						"path":"translation"
					}
				},
				{
					"sampler":46,
					"target":{
						"node":10,
						"path":"rotation"
					}
				},
				{
					"sampler":47,
					"target":{
						"node":10,
						"path":"scale"
					}
				},
				{
					"sampler":48,
					"target":{
						"node":9,
						"path":"translation"
					}
				},
				{
					"sampler":49,
					"target":{
						"node":9,
						"path":"rotation"
					}
				},
				{
					"sampler":50,
					"target":{
						"node":9,
						"path":"scale"
					}
				},
				{
					"sampler":51,
					"target":{
						"node":8,
						"path":"translation"
					}
				},
				{
					"sampler":52,
					"target":{
						"node":8,
						"path":"rotation"
					}
				},
				{
					"sampler":53,
					"target":{
						"node":8,
						"path":"scale"
					}
				},
				{
					"sampler":54,
					"target":{
						"node":7,
						"path":"translation"
					}
				},
				{
					"sampler":55,
					"target":{
						"node":7,
						"path":"rotation"
					}
				},
				{
					"sampler":56,
					"target":{
						"node":7,
						"path":"scale"
					}
				},
				{
					"sampler":57,
					"target":{
						"node":14,
						"path":"translation"
					}
				},
				{
					"sampler":58,
					"target":{
						"node":14,
						"path":"rotation"
					}
				},
				{
					"sampler":59,
					"target":{
						"node":14,
						"path":"scale"
					}
				},
				{
					"sampler":60,
					"target":{
						"node":13,
						"path":"translation"
					}
				},
				{
					"sampler":61,
					"target":{
						"node":13,
						"path":"rotation"
					}
				},
				{
					"sampler":62,
					"target":{
						"node":13,
						"path":"scale"
					}
				},
				{
					"sampler":63,
					"target":{
						"node":12,
						"path":"translation"
					}
				},
				{
					"sampler":64,
					"target":{
						"node":12,
						"path":"rotation"
					}
				},
				{
					"sampler":65,
					"target":{
						"node":12,
						"path":"scale"
					}
				},
				{
					"sampler":66,
					"target":{
						"node":11,
						"path":"translation"
					}
				},
				{
					"sampler":67,
					"target":{
						"node":11,
						"path":"rotation"
					}
				},
				{
					"sampler":68,
					"target":{
						"node":11,
						"path":"scale"
					}
				},
				{
					"sampler":69,
					"target":{
						"node":18,
						"path":"translation"
					}
				},
				{
					"sampler":70,
					"target":{
						"node":18,
						"path":"rotation"
					}
				},
				{
					"sampler":71,
					"target":{
						"node":18,
						"path":"scale"
					}
				},
				{
					"sampler":72,
					"target":{
						"node":17,
						"path":"translation"
					}
				},
				{
					"sampler":73,
					"target":{
						"node":17,
						"path":"rotation"
					}
				},
				{
					"sampler":74,
					"target":{
						"node":17,
						"path":"scale"
					}
				},
				{
					"sampler":75,
					"target":{
						"node":16,
						"path":"translation"
					}
				},
				{
					"sampler":76,
					"target":{
						"node":16,
						"path":"rotation"
					}
				},
				{
					"sampler":77,
					"target":{
						"node":16,
						"path":"scale"
					}
				},
				{
					"sampler":78,
					"target":{
						"node":15,
						"path":"translation"
					}
				},
				{
					"sampler":79,
					"target":{
						"node":15,
						"path":"rotation"
					}
				},
				{
					"sampler":80,
					"target":{
						"node":15,
						"path":"scale"
					}
				},
				{
					"sampler":81,
					"target":{
						"node":22,
						"path":"translation"
					}
				},
				{
					"sampler":82,
					"target":{
						"node":22,
						"path":"rotation"
					}
				},
				{
					"sampler":83,
					"target":{
						"node":22,
						"path":"scale"
					}
				},
				{
					"sampler":84,
					"target":{
						"node":21,
						"path":"translation"
					}
				},
				{
					"sampler":85,
					"target":{
						"node":21,
						"path":"rotation"
					}
				},
				{
					"sampler":86,
					"target":{
						"node":21,
						"path":"scale"
					}
				},
				{
					"sampler":87,
					"target":{
						"node":20,
						"path":"translation"
					}
				},
				{
					"sampler":88,
					"target":{
						"node":20,
						"path":"rotation"
					}
				},
				{
					"sampler":89,
					"target":{
						"node":20,
						"path":"scale"
					}
				},
				{
					"sampler":90,
					"target":{
						"node":19,
						"path":"translation"
					}
				},
				{
					"sampler":91,
					"target":{
						"node":19,
						"path":"rotation"
					}
				},
				{
					"sampler":92,
					"target":{
						"node":19,
						"path":"scale"
					}
				},
				{
					"sampler":93,
					"target":{
						"node":50,
						"path":"translation"
					}
				},
				{
					"sampler":94,
					"target":{
						"node":50,
						"path":"rotation"
					}
				},
				{
					"sampler":95,
					"target":{
						"node":50,
						"path":"scale"
					}
				},
				{
					"sampler":96,
					"target":{
						"node":49,
						"path":"translation"
					}
				},
				{
					"sampler":97,
					"target":{
						"node":49,
						"path":"rotation"
					}
				},
				{
					"sampler":98,
					"target":{
						"node":49,
						"path":"scale"
					}
				},
				{
					"sampler":99,
					"target":{
						"node":48,
						"path":"translation"
					}
				},
				{
					"sampler":100,
					"target":{
						"node":48,
						"path":"rotation"
					}
				},
				{
					"sampler":101,
					"target":{
						"node":48,
						"path":"scale"
					}
				},
				{
					"sampler":102,
					"target":{
						"node":47,
						"path":"translation"
					}
				},
				{
					"sampler":103,
					"target":{
						"node":47,
						"path":"rotation"
					}
				},
				{
					"sampler":104,
					"target":{
						"node":47,
						"path":"scale"
					}
				},
				{
					"sampler":105,
					"target":{
						"node":30,
						"path":"translation"
					}
				},
				{
					"sampler":106,
					"target":{
						"node":30,
						"path":"rotation"
					}
				},
				{
					"sampler":107,
					"target":{
						"node":30,
						"path":"scale"
					}
				},
				{
					"sampler":108,
					"target":{
						"node":29,
						"path":"translation"
					}
				},
				{
					"sampler":109,
					"target":{
						"node":29,
						"path":"rotation"
					}
				},
				{
					"sampler":110,
					"target":{
						"node":29,
						"path":"scale"
					}
				},
				{
					"sampler":111,
					"target":{
						"node":28,
						"path":"translation"
					}
				},
				{
					"sampler":112,
					"target":{
						"node":28,
						"path":"rotation"
					}
				},
				{
					"sampler":113,
					"target":{
						"node":28,
						"path":"scale"
					}
				},
				{
					"sampler":114,
					"target":{
						"node":27,
						"path":"translation"
					}
				},
				{
					"sampler":115,
					"target":{
						"node":27,
						"path":"rotation"
					}
				},
				{
					"sampler":116,
					"target":{
						"node":27,
						"path":"scale"
					}
				},
				{
					"sampler":117,
					"target":{
						"node":34,
						"path":"translation"
					}
				},
				{
					"sampler":118,
					"target":{
						"node":34,
						"path":"rotation"
					}
				},
				{
					"sampler":119,
					"target":{
						"node":34,
						"path":"scale"
					}
				},
				{
					"sampler":120,
					"target":{
						"node":33,
						"path":"translation"
					}
				},
				{
					"sampler":121,
					"target":{
						"node":33,
						"path":"rotation"
					}
				},
				{
					"sampler":122,
					"target":{
						"node":33,
						"path":"scale"
					}
				},
				{
					"sampler":123,
					"target":{
						"node":32,
						"path":"translation"
					}
				},
				{
					"sampler":124,
					"target":{
						"node":32,
						"path":"rotation"
					}
				},
				{
					"sampler":125,
					"target":{
						"node":32,
						"path":"scale"
					}
				},
				{
					"sampler":126,
					"target":{
						"node":31,
						"path":"translation"
					}
				},
				{
					"sampler":127,
					"target":{
						"node":31,
						"path":"rotation"
					}
				},
				{
					"sampler":128,
					"target":{
						"node":31,
						"path":"scale"
					}
				},
				{
					"sampler":129,
					"target":{
						"node":38,
						"path":"translation"
					}
				},
				{
					"sampler":130,
					"target":{
						"node":38,
						"path":"rotation"
					}
				},
				{
					"sampler":131,
					"target":{
						"node":38,
						"path":"scale"
					}
				},
				{
					"sampler":132,
					"target":{
						"node":37,
						"path":"translation"
					}
				},
				{
					"sampler":133,
					"target":{
						"node":37,
						"path":"rotation"
					}
				},
				{
					"sampler":134,
					"target":{
						"node":37,
						"path":"scale"
					}
				},
				{
					"sampler":135,
					"target":{
						"node":36,
						"path":"translation"
					}
				},
				{
					"sampler":136,
					"target":{
						"node":36,
						"path":"rotation"
					}
				},
				{
					"sampler":137,
					"target":{
						"node":36,
						"path":"scale"
					}
				},
				{
					"sampler":138,
					"target":{
						"node":35,
						"path":"translation"
					}
				},
				{
					"sampler":139,
					"target":{
						"node":35,
						"path":"rotation"
					}
				},
				{
					"sampler":140,
					"target":{
						"node":35,
						"path":"scale"
					}
				},
				{
					"sampler":141,
					"target":{
						"node":42,
						"path":"translation"
					}
				},
				{
					"sampler":142,
					"target":{
						"node":42,
						"path":"rotation"
					}
				},
				{
					"sampler":143,
					"target":{
						"node":42,
						"path":"scale"
					}
				},
				{
					"sampler":144,
					"target":{
						"node":41,
						"path":"translation"
					}
				},
				{
					"sampler":145,
					"target":{
						"node":41,
						"path":"rotation"
					}
				},
				{
					"sampler":146,
					"target":{
						"node":41,
						"path":"scale"
					}
				},
				{
					"sampler":147,
					"target":{
						"node":40,
						"path":"translation"
					}
				},
				{
					"sampler":148,
					"target":{
						"node":40,
						"path":"rotation"
					}
				},
				{
					"sampler":149,
					"target":{
						"node":40,
						"path":"scale"
					}
				},
				{
					"sampler":150,
					"target":{
						"node":39,
						"path":"translation"
					}
				},
				{
					"sampler":151,
					"target":{
						"node":39,
						"path":"rotation"
					}
				},
				{
					"sampler":152,
					"target":{
						"node":39,
						"path":"scale"
					}
				},
				{
					"sampler":153,
					"target":{
						"node":46,
						"path":"translation"
					}
				},
				{
					"sampler":154,
					"target":{
						"node":46,
						"path":"rotation"
					}
				},
				{
					"sampler":155,
					"target":{
						"node":46,
						"path":"scale"
					}
				},
				{
					"sampler":156,
					"target":{
						"node":45,
						"path":"translation"
					}
				},
				{
					"sampler":157,
					"target":{
						"node":45,
						"path":"rotation"
					}
				},
				{
					"sampler":158,
					"target":{
						"node":45,
						"path":"scale"
					}
				},
				{
					"sampler":159,
					"target":{
						"node":44,
						"path":"translation"
					}
				},
				{
					"sampler":160,
					"target":{
						"node":44,
						"path":"rotation"
					}
				},
				{
					"sampler":161,
					"target":{
						"node":44,
						"path":"scale"
					}
				},
				{
					"sampler":162,
					"target":{
						"node":43,
						"path":"translation"
					}
				},
				{
					"sampler":163,
					"target":{
						"node":43,
						"path":"rotation"
					}
				},
				{
					"sampler":164,
					"target":{
						"node":43,
						"path":"scale"
					}
				},
				{
					"sampler":165,
					"target":{
						"node":58,
						"path":"translation"
					}
				},
				{
					"sampler":166,
					"target":{
						"node":58,
						"path":"rotation"
					}
				},
				{
					"sampler":167,
					"target":{
						"node":58,
						"path":"scale"
					}
				},
				{
					"sampler":168,
					"target":{
						"node":57,
						"path":"translation"
					}
				},
				{
					"sampler":169,
					"target":{
						"node":57,
						"path":"rotation"
					}
				},
				{
					"sampler":170,
					"target":{
						"node":57,
						"path":"scale"
					}
				},
				{
					"sampler":171,
					"target":{
						"node":56,
						"path":"translation"
					}
				},
				{
					"sampler":172,
					"target":{
						"node":56,
						"path":"rotation"
					}
				},
				{
					"sampler":173,
					"target":{
						"node":56,
						"path":"scale"
					}
				},
				{
					"sampler":174,
					"target":{
						"node":55,
						"path":"translation"
					}
				},
				{
					"sampler":175,
					"target":{
						"node":55,
						"path":"rotation"
					}
				},
				{
					"sampler":176,
					"target":{
						"node":55,
						"path":"scale"
					}
				},
				{
					"sampler":177,
					"target":{
						"node":54,
						"path":"translation"
					}
				},
				{
					"sampler":178,
					"target":{
						"node":54,
						"path":"rotation"
					}
				},
				{
					"sampler":179,
					"target":{
						"node":54,
						"path":"scale"
					}
				},
				{
					"sampler":180,
					"target":{
						"node":63,
						"path":"translation"
					}
				},
				{
					"sampler":181,
					"target":{
						"node":63,
						"path":"rotation"
					}
				},
				{
					"sampler":182,
					"target":{
						"node":63,
						"path":"scale"
					}
				},
				{
					"sampler":183,
					"target":{
						"node":62,
						"path":"translation"
					}
				},
				{
					"sampler":184,
					"target":{
						"node":62,
						"path":"rotation"
					}
				},
				{
					"sampler":185,
					"target":{
						"node":62,
						"path":"scale"
					}
				},
				{
					"sampler":186,
					"target":{
						"node":61,
						"path":"translation"
					}
				},
				{
					"sampler":187,
					"target":{
						"node":61,
						"path":"rotation"
					}
				},
				{
					"sampler":188,
					"target":{
						"node":61,
						"path":"scale"
					}
				},
				{
					"sampler":189,
					"target":{
						"node":60,
						"path":"translation"
					}
				},
				{
					"sampler":190,
					"target":{
						"node":60,
						"path":"rotation"
					}
				},
				{
					"sampler":191,
					"target":{
						"node":60,
						"path":"scale"
					}
				},
				{
					"sampler":192,
					"target":{
						"node":59,
						"path":"translation"
					}
				},
				{
					"sampler":193,
					"target":{
						"node":59,
						"path":"rotation"
					}
				},
				{
					"sampler":194,
					"target":{
						"node":59,
						"path":"scale"
					}
				}
			],
			"name":"Armature|mixamo.com|Layer0",
			"samplers":[
				{
					"input":13,
					"interpolation":"LINEAR",
					"output":14
				},
				{
					"input":13,
					"interpolation":"LINEAR",
					"output":15
				},
				{
					"input":13,
					"interpolation":"LINEAR",
					"output":16
				},
				{
					"input":13,
					"interpolation":"LINEAR",
					"output":17
				},
				{
					"input":13,
					"interpolation":"LINEAR",
					"output":18
				},
				{
					"input":13,
					"interpolation":"LINEAR",
					"output":19
				},
				{
					"input":13,
					"interpolation":"LINEAR",
					"output":20
				},
				{
					"input":13,
					"interpolation":"LINEAR",
					"output":21
				},
				{
					"input":13,
					"interpolation":"LINEAR",
					"output":22
				},
				{
					"input":13,
					"interpolation":"LINEAR",
					"output":23
				},
				{
					"input":13,
					"interpolation":"LINEAR",
					"output":24
				},
				{
					"input":13,
					"interpolation":"LINEAR",
					"output":25
				},
				{
					"input":13,
					"interpolation":"LINEAR",
					"output":26
				},
				{
					"input":13,
					"interpolation":"LINEAR",
					"output":27
				},
				{
					"input":13,
					"interpolation":"LINEAR",
					"output":28
				},
				{
					"input":13,
					"interpolation":"LINEAR",
					"output":29
				},
				{
					"input":13,
					"interpolation":"LINEAR",
					"output":30
				},
				{
					"input":13,
					"interpolation":"LINEAR",
					"output":31
				},
				{
					"input":13,
					"interpolation":"STEP",
					"output":32
				},
				{
					"input":13,
					"interpolation":"STEP",
					"output":33
				},
				{
					"input":13,
					"interpolation":"STEP",
					"output":34
				},
				{
					"input":13,
					"interpolation":"LINEAR",
					"output":35
				},
				{
					"input":13,
					"interpolation":"LINEAR",
					"output":36
				},
				{
					"input":13,
					"interpolation":"LINEAR",
					"output":37
				},
				{
					"input":13,
					"interpolation":"LINEAR",
					"output":38
				},
				{
					"input":13,
					"interpolation":"LINEAR",
					"output":39
				},
				{
					"input":13,
					"interpolation":"LINEAR",
					"output":40
				},
				{
					"input":13,
					"interpolation":"LINEAR",
					"output":41
				},
				{
					"input":13,
					"interpolation":"LINEAR",
					"output":42
				},
				{
					"input":13,
					"interpolation":"LINEAR",
					"output":43
				},
				{
					"input":13,
					"interpolation":"LINEAR",
					"output":44
				},
				{
					"input":13,
					"interpolation":"LINEAR",
					"output":45
				},
				{
					"input":13,
					"interpolation":"LINEAR",
					"output":46
				},
				{
					"input":13,
					"interpolation":"LINEAR",
					"output":47
				},
				{
					"input":13,
					"interpolation":"LINEAR",
					"output":48
				},
				{
					"input":13,
					"interpolation":"LINEAR",
					"output":49
				},
				{
					"input":13,
					"interpolation":"LINEAR",
					"output":50
				},
				{
					"input":13,
					"interpolation":"LINEAR",
					"output":51
				},
				{
					"input":13,
					"interpolation":"LINEAR",
					"output":52
				},
				{
					"input":13,
					"interpolation":"LINEAR",
					"output":53
				},
				{
					"input":13,
					"interpolation":"LINEAR",
					"output":54
				},
				{
					"input":13,
					"interpolation":"LINEAR",
					"output":55
				},
				{
					"input":13,
					"interpolation":"STEP",
					"output":56
				},
				{
					"input":13,
					"interpolation":"STEP",
					"output":57
				},
				{
					"input":13,
					"interpolation":"STEP",
					"output":58
				},
				{
					"input":13,
					"interpolation":"LINEAR",
					"output":59
				},
				{
					"input":13,
					"interpolation":"LINEAR",
					"output":60
				},
				{
					"input":13,
					"interpolation":"LINEAR",
					"output":61
				},
				{
					"input":13,
					"interpolation":"LINEAR",
					"output":62
				},
				{
					"input":13,
					"interpolation":"LINEAR",
					"output":63
				},
				{
					"input":13,
					"interpolation":"LINEAR",
					"output":64
				},
				{
					"input":13,
					"interpolation":"LINEAR",
					"output":65
				},
				{
					"input":13,
					"interpolation":"LINEAR",
					"output":66
				},
				{
					"input":13,
					"interpolation":"LINEAR",
					"output":67
				},
				{
					"input":13,
					"interpolation":"STEP",
					"output":68
				},
				{
					"input":13,
					"interpolation":"STEP",
					"output":69
				},
				{
					"input":13,
					"interpolation":"STEP",
					"output":70
				},
				{
					"input":13,
					"interpolation":"LINEAR",
					"output":71
				},
				{
					"input":13,
					"interpolation":"LINEAR",
					"output":72
				},
				{
					"input":13,
					"interpolation":"LINEAR",
					"output":73
				},
				{
					"input":13,
					"interpolation":"LINEAR",
					"output":74
				},
				{
					"input":13,
					"interpolation":"LINEAR",
					"output":75
				},
				{
					"input":13,
					"interpolation":"LINEAR",
					"output":76
				},
				{
					"input":13,
					"interpolation":"LINEAR",
					"output":77
				},
				{
					"input":13,
					"interpolation":"LINEAR",
					"output":78
				},
				{
					"input":13,
					"interpolation":"LINEAR",
					"output":79
				},
				{
					"input":13,
					"interpolation":"STEP",
					"output":80
				},
				{
					"input":13,
					"interpolation":"STEP",
					"output":81
				},
				{
					"input":13,
					"interpolation":"STEP",
					"output":82
				},
				{
					"input":13,
					"interpolation":"LINEAR",
					"output":83
				},
				{
					"input":13,
					"interpolation":"LINEAR",
					"output":84
				},
				{
					"input":13,
					"interpolation":"LINEAR",
					"output":85
				},
				{
					"input":13,
					"interpolation":"LINEAR",
					"output":86
				},
				{
					"input":13,
					"interpolation":"LINEAR",
					"output":87
				},
				{
					"input":13,
					"interpolation":"LINEAR",
					"output":88
				},
				{
					"input":13,
					"interpolation":"LINEAR",
					"output":89
				},
				{
					"input":13,
					"interpolation":"LINEAR",
					"output":90
				},
				{
					"input":13,
					"interpolation":"LINEAR",
					"output":91
				},
				{
					"input":13,
					"interpolation":"STEP",
					"output":92
				},
				{
					"input":13,
					"interpolation":"STEP",
					"output":93
				},
				{
					"input":13,
					"interpolation":"STEP",
					"output":94
				},
				{
					"input":13,
					"interpolation":"LINEAR",
					"output":95
				},
				{
					"input":13,
					"interpolation":"LINEAR",
					"output":96
				},
				{
					"input":13,
					"interpolation":"LINEAR",
					"output":97
				},
				{
					"input":13,
					"interpolation":"LINEAR",
					"output":98
				},
				{
					"input":13,
					"interpolation":"LINEAR",
					"output":99
				},
				{
					"input":13,
					"interpolation":"LINEAR",
					"output":100
				},
				{
					"input":13,
					"interpolation":"LINEAR",
					"output":101
				},
				{
					"input":13,
					"interpolation":"LINEAR",
					"output":102
				},
				{
					"input":13,
					"interpolation":"LINEAR",
					"output":103
				},
				{
					"input":13,
					"interpolation":"STEP",
					"output":104
				},
				{
					"input":13,
					"interpolation":"STEP",
					"output":105
				},
				{
					"input":13,
					"interpolation":"STEP",
					"output":106
				},
				{
					"input":13,
					"interpolation":"LINEAR",
					"output":107
				},
				{
					"input":13,
					"interpolation":"LINEAR",
					"output":108
				},
				{
					"input":13,
					"interpolation":"LINEAR",
					"output":109
				},
				{
					"input":13,
					"interpolation":"LINEAR",
					"output":110
				},
				{
					"input":13,
					"interpolation":"LINEAR",
					"output":111
				},
				{
					"input":13,
					"interpolation":"LINEAR",
					"output":112
				},
				{
					"input":13,
					"interpolation":"LINEAR",
					"output":113
				},
				{
					"input":13,
					"interpolation":"LINEAR",
					"output":114
				},
				{
					"input":13,
					"interpolation":"LINEAR",
					"output":115
				},
				{
					"input":13,
					"interpolation":"LINEAR",
					"output":116
				},
				{
					"input":13,
					"interpolation":"LINEAR",
					"output":117
				},
				{
					"input":13,
					"interpolation":"LINEAR",
					"output":118
				},
				{
					"input":13,
					"interpolation":"LINEAR",
					"output":119
				},
				{
					"input":13,
					"interpolation":"LINEAR",
					"output":120
				},
				{
					"input":13,
					"interpolation":"LINEAR",
					"output":121
				},
				{
					"input":13,
					"interpolation":"LINEAR",
					"output":122
				},
				{
					"input":13,
					"interpolation":"LINEAR",
					"output":123
				},
				{
					"input":13,
					"interpolation":"LINEAR",
					"output":124
				},
				{
					"input":13,
					"interpolation":"LINEAR",
					"output":125
				},
				{
					"input":13,
					"interpolation":"LINEAR",
					"output":126
				},
				{
					"input":13,
					"interpolation":"LINEAR",
					"output":127
				},
				{
					"input":13,
					"interpolation":"STEP",
					"output":128
				},
				{
					"input":13,
					"interpolation":"STEP",
					"output":129
				},
				{
					"input":13,
					"interpolation":"STEP",
					"output":130
				},
				{
					"input":13,
					"interpolation":"LINEAR",
					"output":131
				},
				{
					"input":13,
					"interpolation":"LINEAR",
					"output":132
				},
				{
					"input":13,
					"interpolation":"LINEAR",
					"output":133
				},
				{
					"input":13,
					"interpolation":"LINEAR",
					"output":134
				},
				{
					"input":13,
					"interpolation":"LINEAR",
					"output":135
				},
				{
					"input":13,
					"interpolation":"LINEAR",
					"output":136
				},
				{
					"input":13,
					"interpolation":"LINEAR",
					"output":137
				},
				{
					"input":13,
					"interpolation":"LINEAR",
					"output":138
				},
				{
					"input":13,
					"interpolation":"LINEAR",
					"output":139
				},
				{
					"input":13,
					"interpolation":"STEP",
					"output":140
				},
				{
					"input":13,
					"interpolation":"STEP",
					"output":141
				},
				{
					"input":13,
					"interpolation":"STEP",
					"output":142
				},
				{
					"input":13,
					"interpolation":"LINEAR",
					"output":143
				},
				{
					"input":13,
					"interpolation":"LINEAR",
					"output":144
				},
				{
					"input":13,
					"interpolation":"LINEAR",
					"output":145
				},
				{
					"input":13,
					"interpolation":"LINEAR",
					"output":146
				},
				{
					"input":13,
					"interpolation":"LINEAR",
					"output":147
				},
				{
					"input":13,
					"interpolation":"LINEAR",
					"output":148
				},
				{
					"input":13,
					"interpolation":"LINEAR",
					"output":149
				},
				{
					"input":13,
					"interpolation":"LINEAR",
					"output":150
				},
				{
					"input":13,
					"interpolation":"LINEAR",
					"output":151
				},
				{
					"input":13,
					"interpolation":"STEP",
					"output":152
				},
				{
					"input":13,
					"interpolation":"STEP",
					"output":153
				},
				{
					"input":13,
					"interpolation":"STEP",
					"output":154
				},
				{
					"input":13,
					"interpolation":"LINEAR",
					"output":155
				},
				{
					"input":13,
					"interpolation":"LINEAR",
					"output":156
				},
				{
					"input":13,
					"interpolation":"LINEAR",
					"output":157
				},
				{
					"input":13,
					"interpolation":"LINEAR",
					"output":158
				},
				{
					"input":13,
					"interpolation":"LINEAR",
					"output":159
				},
				{
					"input":13,
					"interpolation":"LINEAR",
					"output":160
				},
				{
					"input":13,
					"interpolation":"LINEAR",
					"output":161
				},
				{
					"input":13,
					"interpolation":"LINEAR",
					"output":162
				},
				{
					"input":13,
					"interpolation":"LINEAR",
					"output":163
				},
				{
					"input":13,
					"interpolation":"STEP",
					"output":164
				},
				{
					"input":13,
					"interpolation":"STEP",
					"output":165
				},
				{
					"input":13,
					"interpolation":"STEP",
					"output":166
				},
				{
					"input":13,
					"interpolation":"LINEAR",
					"output":167
				},
				{
					"input":13,
					"interpolation":"LINEAR",
					"output":168
				},
				{
					"input":13,
					"interpolation":"LINEAR",
					"output":169
				},
				{
					"input":13,
					"interpolation":"LINEAR",
					"output":170
				},
				{
					"input":13,
					"interpolation":"LINEAR",
					"output":171
				},
				{
					"input":13,
					"interpolation":"LINEAR",
					"output":172
				},
				{
					"input":13,
					"interpolation":"LINEAR",
					"output":173
				},
				{
					"input":13,
					"interpolation":"LINEAR",
					"output":174
				},
				{
					"input":13,
					"interpolation":"LINEAR",
					"output":175
				},
				{
					"input":13,
					"interpolation":"STEP",
					"output":176
				},
				{
					"input":13,
					"interpolation":"STEP",
					"output":177
				},
				{
					"input":13,
					"interpolation":"STEP",
					"output":178
				},
				{
					"input":13,
					"interpolation":"LINEAR",
					"output":179
				},
				{
					"input":13,
					"interpolation":"LINEAR",
					"output":180
				},
				{
					"input":13,
					"interpolation":"LINEAR",
					"output":181
				},
				{
					"input":13,
					"interpolation":"LINEAR",
					"output":182
				},
				{
					"input":13,
					"interpolation":"LINEAR",
					"output":183
				},
				{
					"input":13,
					"interpolation":"LINEAR",
					"output":184
				},
				{
					"input":13,
					"interpolation":"LINEAR",
					"output":185
				},
				{
					"input":13,
					"interpolation":"LINEAR",
					"output":186
				},
				{
					"input":13,
					"interpolation":"LINEAR",
					"output":187
				},
				{
					"input":13,
					"interpolation":"LINEAR",
					"output":188
				},
				{
					"input":13,
					"interpolation":"LINEAR",
					"output":189
				},
				{
					"input":13,
					"interpolation":"LINEAR",
					"output":190
				},
				{
					"input":13,
					"interpolation":"STEP",
					"output":191
				},
				{
					"input":13,
					"interpolation":"STEP",
					"output":192
				},
				{
					"input":13,
					"interpolation":"STEP",
					"output":193
				},
				{
					"input":13,
					"interpolation":"LINEAR",
					"output":194
				},
				{
					"input":13,
					"interpolation":"LINEAR",
					"output":195
				},
				{
					"input":13,
					"interpolation":"LINEAR",
					"output":196
				},
				{
					"input":13,
					"interpolation":"LINEAR",
					"output":197
				},
				{
					"input":13,
					"interpolation":"LINEAR",
					"output":198
				},
				{
					"input":13,
					"interpolation":"LINEAR",
					"output":199
				},
				{
					"input":13,
					"interpolation":"LINEAR",
					"output":200
				},
				{
					"input":13,
					"interpolation":"LINEAR",
					"output":201
				},
				{
					"input":13,
					"interpolation":"LINEAR",
					"output":202
				},
				{
					"input":13,
					"interpolation":"LINEAR",
					"output":203
				},
				{
					"input":13,
					"interpolation":"LINEAR",
					"output":204
				},
				{
					"input":13,
					"interpolation":"LINEAR",
					"output":205
				},
				{
					"input":13,
					"interpolation":"STEP",
					"output":206
				},
				{
					"input":13,
					"interpolation":"STEP",
					"output":207
				},
				{
					"input":13,
					"interpolation":"STEP",
					"output":208
				}
			]
		}
	],
	"materials":[
		{
			"doubleSided":true,
			"extensions":{
				"KHR_materials_specular":{
					"specularColorFactor":[
						2.0,
						2.0,
						2.0
					]
				}
			},
			"name":"Beta_Joints_MAT1",
			"pbrMetallicRoughness":{
				"baseColorFactor":[
					0.3333333432674408,
					0.12452887743711472,
					0.10101473331451416,
					1
				],
				"metallicFactor":0.5,
				"roughnessFactor":0.5527864098548889
			}
		},
		{
			"doubleSided":true,
			"extensions":{
				"KHR_materials_specular":{
					"specularColorFactor":[
						2.0,
						2.0,
						2.0
					]
				}
			},
			"name":"Beta_HighLimbsGeoSG3",
			"pbrMetallicRoughness":{
				"baseColorFactor":[
					0.8370000123977661,
					0.30230802297592163,
					0.26365500688552856,
					1
				],
				"metallicFactor":0,
				"roughnessFactor":0.5527864098548889
			}
		}
	],
	"meshes":[
		{
			"name":"Beta_Joints",
			"primitives":[
				{
					"attributes":{
						"POSITION":0,
						"NORMAL":1,
						"TEXCOORD_0":2,
						"JOINTS_0":3,
						"WEIGHTS_0":4
					},
					"indices":5,
					"material":0
				}
			]
		},
		{
			"name":"Beta_Surface",
			"primitives":[
				{
					"attributes":{
						"POSITION":7,
						"NORMAL":8,
						"TEXCOORD_0":9,
						"JOINTS_0":10,
						"WEIGHTS_0":11
					},
					"indices":12,
					"material":1
				}
			]
		}
	],
	"skins":[
		{
			"inverseBindMatrices":6,
			"joints":[
				64,
				53,
				52,
				51,
				2,
				1,
				0,
				26,
				25,
				24,
				23,
				6,
				5,
				4,
				3,
				10,
				9,
				8,
				7,
				14,
				13,
				12,
				11,
				18,
				17,
				16,
				15,
				22,
				21,
				20,
				19,
				50,
				49,
				48,
				47,
				30,
				29,
				28,
				27,
				34,
				33,
				32,
				31,
				38,
				37,
				36,
				35,
				42,
				41,
				40,
				39,
				46,
				45,
				44,
				43,
				58,
				57,
				56,
				55,
				54,
				63,
				62,
				61,
				60,
				59
			],
			"name":"Armature"
		}
	],
	"accessors":[
		{
			"bufferView":0,
			"componentType":5126,
			"count":12473,
			"max":[
				0.8834667205810547,
				1.5964422225952148,
				-3.1623027324676514
			],
			"min":[
				-0.8834670782089233,
				-0.00035115491482429206,
				-3.417227029800415
			],
			"type":"VEC3"
		},
		{
			"bufferView":1,
			"componentType":5126,
			"count":12473,
			"type":"VEC3"
		},
		{
			"bufferView":2,
			"componentType":5126,
			"count":12473,
			"type":"VEC2"
		},
		{
			"bufferView":3,
			"componentType":5121,
			"count":12473,
			"type":"VEC4"
		},
		{
			"bufferView":4,
			"componentType":5126,
			"count":12473,
			"type":"VEC4"
		},
		{
			"bufferView":5,
			"componentType":5123,
			"count":62520,
			"type":"SCALAR"
		},
		{
			"bufferView":6,
			"componentType":5126,
			"count":65,
			"type":"MAT4"
		},
		{
			"bufferView":7,
			"componentType":5126,
			"count":15901,
			"max":[
				0.9025658369064331,
				1.8088831901550293,
				-3.1155803203582764
			],
			"min":[
				-0.9025661945343018,
				-0.00032193231163546443,
				-3.436278820037842
			],
			"type":"VEC3"
		},
		{
			"bufferView":8,
			"componentType":5126,
			"count":15901,
			"type":"VEC3"
		},
		{
			"bufferView":9,
			"componentType":5126,
			"count":15901,
			"type":"VEC2"
		},
		{
			"bufferView":10,
			"componentType":5121,
			"count":15901,
			"type":"VEC4"
		},
		{
			"bufferView":11,
			"componentType":5126,
			"count":15901,
			"type":"VEC4"
		},
		{
			"bufferView":12,
			"componentType":5123,
			"count":84816,
			"type":"SCALAR"
		},
		{
			"bufferView":13,
			"componentType":5126,
			"count":1,
			"max":[
				0.43333333333333335
			],
			"min":[
				0.43333333333333335
			],
			"type":"SCALAR"
		},
		{
			"bufferView":14,
			"componentType":5126,
			"count":1,
			"type":"VEC3"
		},
		{
			"bufferView":15,
			"componentType":5126,
			"count":1,
			"type":"VEC4"
		},
		{
			"bufferView":16,
			"componentType":5126,
			"count":1,
			"type":"VEC3"
		},
		{
			"bufferView":17,
			"componentType":5126,
			"count":1,
			"type":"VEC3"
		},
		{
			"bufferView":18,
			"componentType":5126,
			"count":1,
			"type":"VEC4"
		},
		{
			"bufferView":19,
			"componentType":5126,
			"count":1,
			"type":"VEC3"
		},
		{
			"bufferView":20,
			"componentType":5126,
			"count":1,
			"type":"VEC3"
		},
		{
			"bufferView":21,
			"componentType":5126,
			"count":1,
			"type":"VEC4"
		},
		{
			"bufferView":22,
			"componentType":5126,
			"count":1,
			"type":"VEC3"
		},
		{
			"bufferView":23,
			"componentType":5126,
			"count":1,
			"type":"VEC3"
		},
		{
			"bufferView":24,
			"componentType":5126,
			"count":1,
			"type":"VEC4"
		},
		{
			"bufferView":25,
			"componentType":5126,
			"count":1,
			"type":"VEC3"
		},
		{
			"bufferView":26,
			"componentType":5126,
			"count":1,
			"type":"VEC3"
		},
		{
			"bufferView":27,
			"componentType":5126,
			"count":1,
			"type":"VEC4"
		},
		{
			"bufferView":28,
			"componentType":5126,
			"count":1,
			"type":"VEC3"
		},
		{
			"bufferView":29,
			"componentType":5126,
			"count":1,
			"type":"VEC3"
		},
		{
			"bufferView":30,
			"componentType":5126,
			"count":1,
			"type":"VEC4"
		},
		{
			"bufferView":31,
			"componentType":5126,
			"count":1,
			"type":"VEC3"
		},
		{
			"bufferView":32,
			"componentType":5126,
			"count":1,
			"type":"VEC3"
		},
		{
			"bufferView":33,
			"componentType":5126,
			"count":1,
			"type":"VEC4"
		},
		{
			"bufferView":34,
			"componentType":5126,
			"count":1,
			"type":"VEC3"
		},
		{
			"bufferView":35,
			"componentType":5126,
			"count":1,
			"type":"VEC3"
		},
		{
			"bufferView":36,
			"componentType":5126,
			"count":1,
			"type":"VEC4"
		},
		{
			"bufferView":37,
			"componentType":5126,
			"count":1,
			"type":"VEC3"
		},
		{
			"bufferView":38,
			"componentType":5126,
			"count":1,
			"type":"VEC3"
		},
		{
			"bufferView":39,
			"componentType":5126,
			"count":1,
			"type":"VEC4"
		},
		{
			"bufferView":40,
			"componentType":5126,
			"count":1,
			"type":"VEC3"
		},
		{
			"bufferView":41,
			"componentType":5126,
			"count":1,
			"type":"VEC3"
		},
		{
			"bufferView":42,
			"componentType":5126,
			"count":1,
			"type":"VEC4"
		},
		{
			"bufferView":43,
			"componentType":5126,
			"count":1,
			"type":"VEC3"
		},
		{
			"bufferView":44,
			"componentType":5126,
			"count":1,
			"type":"VEC3"
		},
		{
			"bufferView":45,
			"componentType":5126,
			"count":1,
			"type":"VEC4"
		},
		{
			"bufferView":46,
			"componentType":5126,
			"count":1,
			"type":"VEC3"
		},
		{
			"bufferView":47,
			"componentType":5126,
			"count":1,
			"type":"VEC3"
		},
		{
			"bufferView":48,
			"componentType":5126,
			"count":1,
			"type":"VEC4"
		},
		{
			"bufferView":49,
			"componentType":5126,
			"count":1,
			"type":"VEC3"
		},
		{
			"bufferView":50,
			"componentType":5126,
			"count":1,
			"type":"VEC3"
		},
		{
			"bufferView":51,
			"componentType":5126,
			"count":1,
			"type":"VEC4"
		},
		{
			"bufferView":52,
			"componentType":5126,
			"count":1,
			"type":"VEC3"
		},
		{
			"bufferView":53,
			"componentType":5126,
			"count":1,
			"type":"VEC3"
		},
		{
			"bufferView":54,
			"componentType":5126,
			"count":1,
			"type":"VEC4"
		},
		{
			"bufferView":55,
			"componentType":5126,
			"count":1,
			"type":"VEC3"
		},
		{
			"bufferView":56,
			"componentType":5126,
			"count":1,
			"type":"VEC3"
		},
		{
			"bufferView":57,
			"componentType":5126,
			"count":1,
			"type":"VEC4"
		},
		{
			"bufferView":58,
			"componentType":5126,
			"count":1,
			"type":"VEC3"
		},
		{
			"bufferView":59,
			"componentType":5126,
			"count":1,
			"type":"VEC3"
		},
		{
			"bufferView":60,
			"componentType":5126,
			"count":1,
			"type":"VEC4"
		},
		{
			"bufferView":61,
			"componentType":5126,
			"count":1,
			"type":"VEC3"
		},
		{
			"bufferView":62,
			"componentType":5126,
			"count":1,
			"type":"VEC3"
		},
		{
			"bufferView":63,
			"componentType":5126,
			"count":1,
			"type":"VEC4"
		},
		{
			"bufferView":64,
			"componentType":5126,
			"count":1,
			"type":"VEC3"
		},
		{
			"bufferView":65,
			"componentType":5126,
			"count":1,
			"type":"VEC3"
		},
		{
			"bufferView":66,
			"componentType":5126,
			"count":1,
			"type":"VEC4"
		},
		{
			"bufferView":67,
			"componentType":5126,
			"count":1,
			"type":"VEC3"
		},
		{
			"bufferView":68,
			"componentType":5126,
			"count":1,
			"type":"VEC3"
		},
		{
			"bufferView":69,
			"componentType":5126,
			"count":1,
			"type":"VEC4"
		},
		{
			"bufferView":70,
			"componentType":5126,
			"count":1,
			"type":"VEC3"
		},
		{
			"bufferView":71,
			"componentType":5126,
			"count":1,
			"type":"VEC3"
		},
		{
			"bufferView":72,
			"componentType":5126,
			"count":1,
			"type":"VEC4"
		},
		{
			"bufferView":73,
			"componentType":5126,
			"count":1,
			"type":"VEC3"
		},
		{
			"bufferView":74,
			"componentType":5126,
			"count":1,
			"type":"VEC3"
		},
		{
			"bufferView":75,
			"componentType":5126,
			"count":1,
			"type":"VEC4"
		},
		{
			"bufferView":76,
			"componentType":5126,
			"count":1,
			"type":"VEC3"
		},
		{
			"bufferView":77,
			"componentType":5126,
			"count":1,
			"type":"VEC3"
		},
		{
			"bufferView":78,
			"componentType":5126,
			"count":1,
			"type":"VEC4"
		},
		{
			"bufferView":79,
			"componentType":5126,
			"count":1,
			"type":"VEC3"
		},
		{
			"bufferView":80,
			"componentType":5126,
			"count":1,
			"type":"VEC3"
		},
		{
			"bufferView":81,
			"componentType":5126,
			"count":1,
			"type":"VEC4"
		},
		{
			"bufferView":82,
			"componentType":5126,
			"count":1,
			"type":"VEC3"
		},
		{
			"bufferView":83,
			"componentType":5126,
			"count":1,
			"type":"VEC3"
		},
		{
			"bufferView":84,
			"componentType":5126,
			"count":1,
			"type":"VEC4"
		},
		{
			"bufferView":85,
			"componentType":5126,
			"count":1,
			"type":"VEC3"
		},
		{
			"bufferView":86,
			"componentType":5126,
			"count":1,
			"type":"VEC3"
		},
		{
			"bufferView":87,
			"componentType":5126,
			"count":1,
			"type":"VEC4"
		},
		{
			"bufferView":88,
			"componentType":5126,
			"count":1,
			"type":"VEC3"
		},
		{
			"bufferView":89,
			"componentType":5126,
			"count":1,
			"type":"VEC3"
		},
		{
			"bufferView":90,
			"componentType":5126,
			"count":1,
			"type":"VEC4"
		},
		{
			"bufferView":91,
			"componentType":5126,
			"count":1,
			"type":"VEC3"
		},
		{
			"bufferView":92,
			"componentType":5126,
			"count":1,
			"type":"VEC3"
		},
		{
			"bufferView":93,
			"componentType":5126,
			"count":1,
			"type":"VEC4"
		},
		{
			"bufferView":94,
			"componentType":5126,
			"count":1,
			"type":"VEC3"
		},
		{
			"bufferView":95,
			"componentType":5126,
			"count":1,
			"type":"VEC3"
		},
		{
			"bufferView":96,
			"componentType":5126,
			"count":1,
			"type":"VEC4"
		},
		{
			"bufferView":97,
			"componentType":5126,
			"count":1,
			"type":"VEC3"
		},
		{
			"bufferView":98,
			"componentType":5126,
			"count":1,
			"type":"VEC3"
		},
		{
			"bufferView":99,
			"componentType":5126,
			"count":1,
			"type":"VEC4"
		},
		{
			"bufferView":100,
			"componentType":5126,
			"count":1,
			"type":"VEC3"
		},
		{
			"bufferView":101,
			"componentType":5126,
			"count":1,
			"type":"VEC3"
		},
		{
			"bufferView":102,
			"componentType":5126,
			"count":1,
			"type":"VEC4"
		},
		{
			"bufferView":103,
			"componentType":5126,
			"count":1,
			"type":"VEC3"
		},
		{
			"bufferView":104,
			"componentType":5126,
			"count":1,
			"type":"VEC3"
		},
		{
			"bufferView":105,
			"componentType":5126,
			"count":1,
			"type":"VEC4"
		},
		{
			"bufferView":106,
			"componentType":5126,
			"count":1,
			"type":"VEC3"
		},
		{
			"bufferView":107,
			"componentType":5126,
			"count":1,
			"type":"VEC3"
		},
		{
			"bufferView":108,
			"componentType":5126,
			"count":1,
			"type":"VEC4"
		},
		{
			"bufferView":109,
			"componentType":5126,
			"count":1,
			"type":"VEC3"
		},
		{
			"bufferView":110,
			"componentType":5126,
			"count":1,
			"type":"VEC3"
		},
		{
			"bufferView":111,
			"componentType":5126,
			"count":1,
			"type":"VEC4"
		},
		{
			"bufferView":112,
			"componentType":5126,
			"count":1,
			"type":"VEC3"
		},
		{
			"bufferView":113,
			"componentType":5126,
			"count":1,
			"type":"VEC3"
		},
		{
			"bufferView":114,
			"componentType":5126,
			"count":1,
			"type":"VEC4"
		},
		{
			"bufferView":115,
			"componentType":5126,
			"count":1,
			"type":"VEC3"
		},
		{
			"bufferView":116,
			"componentType":5126,
			"count":1,
			"type":"VEC3"
		},
		{
			"bufferView":117,
			"componentType":5126,
			"count":1,
			"type":"VEC4"
		},
		{
			"bufferView":118,
			"componentType":5126,
			"count":1,
			"type":"VEC3"
		},
		{
			"bufferView":119,
			"componentType":5126,
			"count":1,
			"type":"VEC3"
		},
		{
			"bufferView":120,
			"componentType":5126,
			"count":1,
			"type":"VEC4"
		},
		{
			"bufferView":121,
			"componentType":5126,
			"count":1,
			"type":"VEC3"
		},
		{
			"bufferView":122,
			"componentType":5126,
			"count":1,
			"type":"VEC3"
		},
		{
			"bufferView":123,
			"componentType":5126,
			"count":1,
			"type":"VEC4"
		},
		{
			"bufferView":124,
			"componentType":5126,
			"count":1,
			"type":"VEC3"
		},
		{
			"bufferView":125,
			"componentType":5126,
			"count":1,
			"type":"VEC3"
		},
		{
			"bufferView":126,
			"componentType":5126,
			"count":1,
			"type":"VEC4"
		},
		{
			"bufferView":127,
			"componentType":5126,
			"count":1,
			"type":"VEC3"
		},
		{
			"bufferView":128,
			"componentType":5126,
			"count":1,
			"type":"VEC3"
		},
		{
			"bufferView":129,
			"componentType":5126,
			"count":1,
			"type":"VEC4"
		},
		{
			"bufferView":130,
			"componentType":5126,
			"count":1,
			"type":"VEC3"
		},
		{
			"bufferView":131,
			"componentType":5126,
			"count":1,
			"type":"VEC3"
		},
		{
			"bufferView":132,
			"componentType":5126,
			"count":1,
			"type":"VEC4"
		},
		{
			"bufferView":133,
			"componentType":5126,
			"count":1,
			"type":"VEC3"
		},
		{
			"bufferView":134,
			"componentType":5126,
			"count":1,
			"type":"VEC3"
		},
		{
			"bufferView":135,
			"componentType":5126,
			"count":1,
			"type":"VEC4"
		},
		{
			"bufferView":136,
			"componentType":5126,
			"count":1,
			"type":"VEC3"
		},
		{
			"bufferView":137,
			"componentType":5126,
			"count":1,
			"type":"VEC3"
		},
		{
			"bufferView":138,
			"componentType":5126,
			"count":1,
			"type":"VEC4"
		},
		{
			"bufferView":139,
			"componentType":5126,
			"count":1,
			"type":"VEC3"
		},
		{
			"bufferView":140,
			"componentType":5126,
			"count":1,
			"type":"VEC3"
		},
		{
			"bufferView":141,
			"componentType":5126,
			"count":1,
			"type":"VEC4"
		},
		{
			"bufferView":142,
			"componentType":5126,
			"count":1,
			"type":"VEC3"
		},
		{
			"bufferView":143,
			"componentType":5126,
			"count":1,
			"type":"VEC3"
		},
		{
			"bufferView":144,
			"componentType":5126,
			"count":1,
			"type":"VEC4"
		},
		{
			"bufferView":145,
			"componentType":5126,
			"count":1,
			"type":"VEC3"
		},
		{
			"bufferView":146,
			"componentType":5126,
			"count":1,
			"type":"VEC3"
		},
		{
			"bufferView":147,
			"componentType":5126,
			"count":1,
			"type":"VEC4"
		},
		{
			"bufferView":148,
			"componentType":5126,
			"count":1,
			"type":"VEC3"
		},
		{
			"bufferView":149,
			"componentType":5126,
			"count":1,
			"type":"VEC3"
		},
		{
			"bufferView":150,
			"componentType":5126,
			"count":1,
			"type":"VEC4"
		},
		{
			"bufferView":151,
			"componentType":5126,
			"count":1,
			"type":"VEC3"
		},
		{
			"bufferView":152,
			"componentType":5126,
			"count":1,
			"type":"VEC3"
		},
		{
			"bufferView":153,
			"componentType":5126,
			"count":1,
			"type":"VEC4"
		},
		{
			"bufferView":154,
			"componentType":5126,
			"count":1,
			"type":"VEC3"
		},
		{
			"bufferView":155,
			"componentType":5126,
			"count":1,
			"type":"VEC3"
		},
		{
			"bufferView":156,
			"componentType":5126,
			"count":1,
			"type":"VEC4"
		},
		{
			"bufferView":157,
			"componentType":5126,
			"count":1,
			"type":"VEC3"
		},
		{
			"bufferView":158,
			"componentType":5126,
			"count":1,
			"type":"VEC3"
		},
		{
			"bufferView":159,
			"componentType":5126,
			"count":1,
			"type":"VEC4"
		},
		{
			"bufferView":160,
			"componentType":5126,
			"count":1,
			"type":"VEC3"
		},
		{
			"bufferView":161,
			"componentType":5126,
			"count":1,
			"type":"VEC3"
		},
		{
			"bufferView":162,
			"componentType":5126,
			"count":1,
			"type":"VEC4"
		},
		{
			"bufferView":163,
			"componentType":5126,
			"count":1,
			"type":"VEC3"
		},
		{
			"bufferView":164,
			"componentType":5126,
			"count":1,
			"type":"VEC3"
		},
		{
			"bufferView":165,
			"componentType":5126,
			"count":1,
			"type":"VEC4"
		},
		{
			"bufferView":166,
			"componentType":5126,
			"count":1,
			"type":"VEC3"
		},
		{
			"bufferView":167,
			"componentType":5126,
			"count":1,
			"type":"VEC3"
		},
		{
			"bufferView":168,
			"componentType":5126,
			"count":1,
			"type":"VEC4"
		},
		{
			"bufferView":169,
			"componentType":5126,
			"count":1,
			"type":"VEC3"
		},
		{
			"bufferView":170,
			"componentType":5126,
			"count":1,
			"type":"VEC3"
		},
		{
			"bufferView":171,
			"componentType":5126,
			"count":1,
			"type":"VEC4"
		},
		{
			"bufferView":172,
			"componentType":5126,
			"count":1,
			"type":"VEC3"
		},
		{
			"bufferView":173,
			"componentType":5126,
			"count":1,
			"type":"VEC3"
		},
		{
			"bufferView":174,
			"componentType":5126,
			"count":1,
			"type":"VEC4"
		},
		{
			"bufferView":175,
			"componentType":5126,
			"count":1,
			"type":"VEC3"
		},
		{
			"bufferView":176,
			"componentType":5126,
			"count":1,
			"type":"VEC3"
		},
		{
			"bufferView":177,
			"componentType":5126,
			"count":1,
			"type":"VEC4"
		},
		{
			"bufferView":178,
			"componentType":5126,
			"count":1,
			"type":"VEC3"
		},
		{
			"bufferView":179,
			"componentType":5126,
			"count":1,
			"type":"VEC3"
		},
		{
			"bufferView":180,
			"componentType":5126,
			"count":1,
			"type":"VEC4"
		},
		{
			"bufferView":181,
			"componentType":5126,
			"count":1,
			"type":"VEC3"
		},
		{
			"bufferView":182,
			"componentType":5126,
			"count":1,
			"type":"VEC3"
		},
		{
			"bufferView":183,
			"componentType":5126,
			"count":1,
			"type":"VEC4"
		},
		{
			"bufferView":184,
			"componentType":5126,
			"count":1,
			"type":"VEC3"
		},
		{
			"bufferView":185,
			"componentType":5126,
			"count":1,
			"type":"VEC3"
		},
		{
			"bufferView":186,
			"componentType":5126,
			"count":1,
			"type":"VEC4"
		},
		{
			"bufferView":187,
			"componentType":5126,
			"count":1,
			"type":"VEC3"
		},
		{
			"bufferView":188,
			"componentType":5126,
			"count":1,
			"type":"VEC3"
		},
		{
			"bufferView":189,
			"componentType":5126,
			"count":1,
			"type":"VEC4"
		},
		{
			"bufferView":190,
			"componentType":5126,
			"count":1,
			"type":"VEC3"
		},
		{
			"bufferView":191,
			"componentType":5126,
			"count":1,
			"type":"VEC3"
		},
		{
			"bufferView":192,
			"componentType":5126,
			"count":1,
			"type":"VEC4"
		},
		{
			"bufferView":193,
			"componentType":5126,
			"count":1,
			"type":"VEC3"
		},
		{
			"bufferView":194,
			"componentType":5126,
			"count":1,
			"type":"VEC3"
		},
		{
			"bufferView":195,
			"componentType":5126,
			"count":1,
			"type":"VEC4"
		},
		{
			"bufferView":196,
			"componentType":5126,
			"count":1,
			"type":"VEC3"
		},
		{
			"bufferView":197,
			"componentType":5126,
			"count":1,
			"type":"VEC3"
		},
		{
			"bufferView":198,
			"componentType":5126,
			"count":1,
			"type":"VEC4"
		},
		{
			"bufferView":199,
			"componentType":5126,
			"count":1,
			"type":"VEC3"
		},
		{
			"bufferView":200,
			"componentType":5126,
			"count":1,
			"type":"VEC3"
		},
		{
			"bufferView":201,
			"componentType":5126,
			"count":1,
			"type":"VEC4"
		},
		{
			"bufferView":202,
			"componentType":5126,
			"count":1,
			"type":"VEC3"
		},
		{
			"bufferView":203,
			"componentType":5126,
			"count":1,
			"type":"VEC3"
		},
		{
			"bufferView":204,
			"componentType":5126,
			"count":1,
			"type":"VEC4"
		},
		{
			"bufferView":205,
			"componentType":5126,
			"count":1,
			"type":"VEC3"
		},
		{
			"bufferView":206,
			"componentType":5126,
			"count":1,
			"type":"VEC3"
		},
		{
			"bufferView":207,
			"componentType":5126,
			"count":1,
			"type":"VEC4"
		},
		{
			"bufferView":208,
			"componentType":5126,
			"count":1,
			"type":"VEC3"
		}
	],
	"bufferViews":[
		{
			"buffer":0,
			"byteLength":149676,
			"byteOffset":0,
			"target":34962
		},
		{
			"buffer":0,
			"byteLength":149676,
			"byteOffset":149676,
			"target":34962
		},
		{
			"buffer":0,
			"byteLength":99784,
			"byteOffset":299352,
			"target":34962
		},
		{
			"buffer":0,
			"byteLength":49892,
			"byteOffset":399136,
			"target":34962
		},
		{
			"buffer":0,
			"byteLength":199568,
			"byteOffset":449028,
			"target":34962
		},
		{
			"buffer":0,
			"byteLength":125040,
			"byteOffset":648596,
			"target":34963
		},
		{
			"buffer":0,
			"byteLength":4160,
			"byteOffset":773636
		},
		{
			"buffer":0,
			"byteLength":190812,
			"byteOffset":777796,
			"target":34962
		},
		{
			"buffer":0,
			"byteLength":190812,
			"byteOffset":968608,
			"target":34962
		},
		{
			"buffer":0,
			"byteLength":127208,
			"byteOffset":1159420,
			"target":34962
		},
		{
			"buffer":0,
			"byteLength":63604,
			"byteOffset":1286628,
			"target":34962
		},
		{
			"buffer":0,
			"byteLength":254416,
			"byteOffset":1350232,
			"target":34962
		},
		{
			"buffer":0,
			"byteLength":169632,
			"byteOffset":1604648,
			"target":34963
		},
		{
			"buffer":0,
			"byteLength":4,
			"byteOffset":1774280
		},
		{
			"buffer":0,
			"byteLength":12,
			"byteOffset":1774284
		},
		{
			"buffer":0,
			"byteLength":16,
			"byteOffset":1774296
		},
		{
			"buffer":0,
			"byteLength":12,
			"byteOffset":1774312
		},
		{
			"buffer":0,
			"byteLength":12,
			"byteOffset":1774324
		},
		{
			"buffer":0,
			"byteLength":16,
			"byteOffset":1774336
		},
		{
			"buffer":0,
			"byteLength":12,
			"byteOffset":1774352
		},
		{
			"buffer":0,
			"byteLength":12,
			"byteOffset":1774364
		},
		{
			"buffer":0,
			"byteLength":16,
			"byteOffset":1774376
		},
		{
			"buffer":0,
			"byteLength":12,
			"byteOffset":1774392
		},
		{
			"buffer":0,
			"byteLength":12,
			"byteOffset":1774404
		},
		{
			"buffer":0,
			"byteLength":16,
			"byteOffset":1774416
		},
		{
			"buffer":0,
			"byteLength":12,
			"byteOffset":1774432
		},
		{
			"buffer":0,
			"byteLength":12,
			"byteOffset":1774444
		},
		{
			"buffer":0,
			"byteLength":16,
			"byteOffset":1774456
		},
		{
			"buffer":0,
			"byteLength":12,
			"byteOffset":1774472
		},
		{
			"buffer":0,
			"byteLength":12,
			"byteOffset":1774484
		},
		{
			"buffer":0,
			"byteLength":16,
			"byteOffset":1774496
		},
		{
			"buffer":0,
			"byteLength":12,
			"byteOffset":1774512
		},
		{
			"buffer":0,
			"byteLength":12,
			"byteOffset":1774524
		},
		{
			"buffer":0,
			"byteLength":16,
			"byteOffset":1774536
		},
		{
			"buffer":0,
			"byteLength":12,
			"byteOffset":1774552
		},
		{
			"buffer":0,
			"byteLength":12,
			"byteOffset":1774564
		},
		{
			"buffer":0,
			"byteLength":16,
			"byteOffset":1774576
		},
		{
			"buffer":0,
			"byteLength":12,
			"byteOffset":1774592
		},
		{
			"buffer":0,
			"byteLength":12,
			"byteOffset":1774604
		},
		{
			"buffer":0,
			"byteLength":16,
			"byteOffset":1774616
		},
		{
			"buffer":0,
			"byteLength":12,
			"byteOffset":1774632
		},
		{
			"buffer":0,
			"byteLength":12,
			"byteOffset":1774644
		},
		{
			"buffer":0,
			"byteLength":16,
			"byteOffset":1774656
		},
		{
			"buffer":0,
			"byteLength":12,
			"byteOffset":1774672
		},
		{
			"buffer":0,
			"byteLength":12,
			"byteOffset":1774684
		},
		{
			"buffer":0,
			"byteLength":16,
			"byteOffset":1774696
		},
		{
			"buffer":0,
			"byteLength":12,
			"byteOffset":1774712
		},
		{
			"buffer":0,
			"byteLength":12,
			"byteOffset":1774724
		},
		{
			"buffer":0,
			"byteLength":16,
			"byteOffset":1774736
		},
		{
			"buffer":0,
			"byteLength":12,
			"byteOffset":1774752
		},
		{
			"buffer":0,
			"byteLength":12,
			"byteOffset":1774764
		},
		{
			"buffer":0,
			"byteLength":16,
			"byteOffset":1774776
		},
		{
			"buffer":0,
			"byteLength":12,
			"byteOffset":1774792
		},
		{
			"buffer":0,
			"byteLength":12,
			"byteOffset":1774804
		},
		{
			"buffer":0,
			"byteLength":16,
			"byteOffset":1774816
		},
		{
			"buffer":0,
			"byteLength":12,
			"byteOffset":1774832
		},
		{
			"buffer":0,
			"byteLength":12,
			"byteOffset":1774844
		},
		{
			"buffer":0,
			"byteLength":16,
			"byteOffset":1774856
		},
		{
			"buffer":0,
			"byteLength":12,
			"byteOffset":1774872
		},
		{
			"buffer":0,
			"byteLength":12,
			"byteOffset":1774884
		},
		{
			"buffer":0,
			"byteLength":16,
			"byteOffset":1774896
		},
		{
			"buffer":0,
			"byteLength":12,
			"byteOffset":1774912
		},
		{
			"buffer":0,
			"byteLength":12,
			"byteOffset":1774924
		},
		{
			"buffer":0,
			"byteLength":16,
			"byteOffset":1774936
		},
		{
			"buffer":0,
			"byteLength":12,
			"byteOffset":1774952
		},
		{
			"buffer":0,
			"byteLength":12,
			"byteOffset":1774964
		},
		{
			"buffer":0,
			"byteLength":16,
			"byteOffset":1774976
		},
		{
			"buffer":0,
			"byteLength":12,
			"byteOffset":1774992
		},
		{
			"buffer":0,
			"byteLength":12,
			"byteOffset":1775004
		},
		{
			"buffer":0,
			"byteLength":16,
			"byteOffset":1775016
		},
		{
			"buffer":0,
			"byteLength":12,
			"byteOffset":1775032
		},
		{
			"buffer":0,
			"byteLength":12,
			"byteOffset":1775044
		},
		{
			"buffer":0,
			"byteLength":16,
			"byteOffset":1775056
		},
		{
			"buffer":0,
			"byteLength":12,
			"byteOffset":1775072
		},
		{
			"buffer":0,
			"byteLength":12,
			"byteOffset":1775084
		},
		{
			"buffer":0,
			"byteLength":16,
			"byteOffset":1775096
		},
		{
			"buffer":0,
			"byteLength":12,
			"byteOffset":1775112
		},
		{
			"buffer":0,
			"byteLength":12,
			"byteOffset":1775124
		},
		{
			"buffer":0,
			"byteLength":16,
			"byteOffset":1775136
		},
		{
			"buffer":0,
			"byteLength":12,
			"byteOffset":1775152
		},
		{
			"buffer":0,
			"byteLength":12,
			"byteOffset":1775164
		},
		{
			"buffer":0,
			"byteLength":16,
			"byteOffset":1775176
		},
		{
			"buffer":0,
			"byteLength":12,
			"byteOffset":1775192
		},
		{
			"buffer":0,
			"byteLength":12,
			"byteOffset":1775204
		},
		{
			"buffer":0,
			"byteLength":16,
			"byteOffset":1775216
		},
		{
			"buffer":0,
			"byteLength":12,
			"byteOffset":1775232
		},
		{
			"buffer":0,
			"byteLength":12,
			"byteOffset":1775244
		},
		{
			"buffer":0,
			"byteLength":16,
			"byteOffset":1775256
		},
		{
			"buffer":0,
			"byteLength":12,
			"byteOffset":1775272
		},
		{
			"buffer":0,
			"byteLength":12,
			"byteOffset":1775284
		},
		{
			"buffer":0,
			"byteLength":16,
			"byteOffset":1775296
		},
		{
			"buffer":0,
			"byteLength":12,
			"byteOffset":1775312
		},
		{
			"buffer":0,
			"byteLength":12,
			"byteOffset":1775324
		},
		{
			"buffer":0,
			"byteLength":16,
			"byteOffset":1775336
		},
		{
			"buffer":0,
			"byteLength":12,
			"byteOffset":1775352
		},
		{
			"buffer":0,
			"byteLength":12,
			"byteOffset":1775364
		},
		{
			"buffer":0,
			"byteLength":16,
			"byteOffset":1775376
		},
		{
			"buffer":0,
			"byteLength":12,
			"byteOffset":1775392
		},
		{
			"buffer":0,
			"byteLength":12,
			"byteOffset":1775404
		},
		{
			"buffer":0,
			"byteLength":16,
			"byteOffset":1775416
		},
		{
			"buffer":0,
			"byteLength":12,
			"byteOffset":1775432
		},
		{
			"buffer":0,
			"byteLength":12,
			"byteOffset":1775444
		},
		{
			"buffer":0,
			"byteLength":16,
			"byteOffset":1775456
		},
		{
			"buffer":0,
			"byteLength":12,
			"byteOffset":1775472
		},
		{
			"buffer":0,
			"byteLength":12,
			"byteOffset":1775484
		},
		{
			"buffer":0,
			"byteLength":16,
			"byteOffset":1775496
		},
		{
			"buffer":0,
			"byteLength":12,
			"byteOffset":1775512
		},
		{
			"buffer":0,
			"byteLength":12,
			"byteOffset":1775524
		},
		{
			"buffer":0,
			"byteLength":16,
			"byteOffset":1775536
		},
		{
			"buffer":0,
			"byteLength":12,
			"byteOffset":1775552
		},
		{
			"buffer":0,
			"byteLength":12,
			"byteOffset":1775564
		},
		{
			"buffer":0,
			"byteLength":16,
			"byteOffset":1775576
		},
		{
			"buffer":0,
			"byteLength":12,
			"byteOffset":1775592
		},
		{
			"buffer":0,
			"byteLength":12,
			"byteOffset":1775604
		},
		{
			"buffer":0,
			"byteLength":16,
			"byteOffset":1775616
		},
		{
			"buffer":0,
			"byteLength":12,
			"byteOffset":1775632
		},
		{
			"buffer":0,
			"byteLength":12,
			"byteOffset":1775644
		},
		{
			"buffer":0,
			"byteLength":16,
			"byteOffset":1775656
		},
		{
			"buffer":0,
			"byteLength":12,
			"byteOffset":1775672
		},
		{
			"buffer":0,
			"byteLength":12,
			"byteOffset":1775684
		},
		{
			"buffer":0,
			"byteLength":16,
			"byteOffset":1775696
		},
		{
			"buffer":0,
			"byteLength":12,
			"byteOffset":1775712
		},
		{
			"buffer":0,
			"byteLength":12,
			"byteOffset":1775724
		},
		{
			"buffer":0,
			"byteLength":16,
			"byteOffset":1775736
		},
		{
			"buffer":0,
			"byteLength":12,
			"byteOffset":1775752
		},
		{
			"buffer":0,
			"byteLength":12,
			"byteOffset":1775764
		},
		{
			"buffer":0,
			"byteLength":16,
			"byteOffset":1775776
		},
		{
			"buffer":0,
			"byteLength":12,
			"byteOffset":1775792
		},
		{
			"buffer":0,
			"byteLength":12,
			"byteOffset":1775804
		},
		{
			"buffer":0,
			"byteLength":16,
			"byteOffset":1775816
		},
		{
			"buffer":0,
			"byteLength":12,
			"byteOffset":1775832
		},
		{
			"buffer":0,
			"byteLength":12,
			"byteOffset":1775844
		},
		{
			"buffer":0,
			"byteLength":16,
			"byteOffset":1775856
		},
		{
			"buffer":0,
			"byteLength":12,
			"byteOffset":1775872
		},
		{
			"buffer":0,
			"byteLength":12,
			"byteOffset":1775884
		},
		{
			"buffer":0,
			"byteLength":16,
			"byteOffset":1775896
		},
		{
			"buffer":0,
			"byteLength":12,
			"byteOffset":1775912
		},
		{
			"buffer":0,
			"byteLength":12,
			"byteOffset":1775924
		},
		{
			"buffer":0,
			"byteLength":16,
			"byteOffset":1775936
		},
		{
			"buffer":0,
			"byteLength":12,
			"byteOffset":1775952
		},
		{
			"buffer":0,
			"byteLength":12,
			"byteOffset":1775964
		},
		{
			"buffer":0,
			"byteLength":16,
			"byteOffset":1775976
		},
		{
			"buffer":0,
			"byteLength":12,
			"byteOffset":1775992
		},
		{
			"buffer":0,
			"byteLength":12,
			"byteOffset":1776004
		},
		{
			"buffer":0,
			"byteLength":16,
			"byteOffset":1776016
		},
		{
			"buffer":0,
			"byteLength":12,
			"byteOffset":1776032
		},
		{
			"buffer":0,
			"byteLength":12,
			"byteOffset":1776044
		},
		{
			"buffer":0,
			"byteLength":16,
			"byteOffset":1776056
		},
		{
			"buffer":0,
			"byteLength":12,
			"byteOffset":1776072
		},
		{
			"buffer":0,
			"byteLength":12,
			"byteOffset":1776084
		},
		{
			"buffer":0,
			"byteLength":16,
			"byteOffset":1776096
		},
		{
			"buffer":0,
			"byteLength":12,
			"byteOffset":1776112
		},
		{
			"buffer":0,
			"byteLength":12,
			"byteOffset":1776124
		},
		{
			"buffer":0,
			"byteLength":16,
			"byteOffset":1776136
		},
		{
			"buffer":0,
			"byteLength":12,
			"byteOffset":1776152
		},
		{
			"buffer":0,
			"byteLength":12,
			"byteOffset":1776164
		},
		{
			"buffer":0,
			"byteLength":16,
			"byteOffset":1776176
		},
		{
			"buffer":0,
			"byteLength":12,
			"byteOffset":1776192
		},
		{
			"buffer":0,
			"byteLength":12,
			"byteOffset":1776204
		},
		{
			"buffer":0,
			"byteLength":16,
			"byteOffset":1776216
		},
		{
			"buffer":0,
			"byteLength":12,
			"byteOffset":1776232
		},
		{
			"buffer":0,
			"byteLength":12,
			"byteOffset":1776244
		},
		{
			"buffer":0,
			"byteLength":16,
			"byteOffset":1776256
		},
		{
			"buffer":0,
			"byteLength":12,
			"byteOffset":1776272
		},
		{
			"buffer":0,
			"byteLength":12,
			"byteOffset":1776284
		},
		{
			"buffer":0,
			"byteLength":16,
			"byteOffset":1776296
		},
		{
			"buffer":0,
			"byteLength":12,
			"byteOffset":1776312
		},
		{
			"buffer":0,
			"byteLength":12,
			"byteOffset":1776324
		},
		{
			"buffer":0,
			"byteLength":16,
			"byteOffset":1776336
		},
		{
			"buffer":0,
			"byteLength":12,
			"byteOffset":1776352
		},
		{
			"buffer":0,
			"byteLength":12,
			"byteOffset":1776364
		},
		{
			"buffer":0,
			"byteLength":16,
			"byteOffset":1776376
		},
		{
			"buffer":0,
			"byteLength":12,
			"byteOffset":1776392
		},
		{
			"buffer":0,
			"byteLength":12,
			"byteOffset":1776404
		},
		{
			"buffer":0,
			"byteLength":16,
			"byteOffset":1776416
		},
		{
			"buffer":0,
			"byteLength":12,
			"byteOffset":1776432
		},
		{
			"buffer":0,
			"byteLength":12,
			"byteOffset":1776444
		},
		{
			"buffer":0,
			"byteLength":16,
			"byteOffset":1776456
		},
		{
			"buffer":0,
			"byteLength":12,
			"byteOffset":1776472
		},
		{
			"buffer":0,
			"byteLength":12,
			"byteOffset":1776484
		},
		{
			"buffer":0,
			"byteLength":16,
			"byteOffset":1776496
		},
		{
			"buffer":0,
			"byteLength":12,
			"byteOffset":1776512
		},
		{
			"buffer":0,
			"byteLength":12,
			"byteOffset":1776524
		},
		{
			"buffer":0,
			"byteLength":16,
			"byteOffset":1776536
		},
		{
			"buffer":0,
			"byteLength":12,
			"byteOffset":1776552
		},
		{
			"buffer":0,
			"byteLength":12,
			"byteOffset":1776564
		},
		{
			"buffer":0,
			"byteLength":16,
			"byteOffset":1776576
		},
		{
			"buffer":0,
			"byteLength":12,
			"byteOffset":1776592
		},
		{
			"buffer":0,
			"byteLength":12,
			"byteOffset":1776604
		},
		{
			"buffer":0,
			"byteLength":16,
			"byteOffset":1776616
		},
		{
			"buffer":0,
			"byteLength":12,
			"byteOffset":1776632
		},
		{
			"buffer":0,
			"byteLength":12,
			"byteOffset":1776644
		},
		{
			"buffer":0,
			"byteLength":16,
			"byteOffset":1776656
		},
		{
			"buffer":0,
			"byteLength":12,
			"byteOffset":1776672
		},
		{
			"buffer":0,
			"byteLength":12,
			"byteOffset":1776684
		},
		{
			"buffer":0,
			"byteLength":16,
			"byteOffset":1776696
		},
		{
			"buffer":0,
			"byteLength":12,
			"byteOffset":1776712
		},
		{
			"buffer":0,
			"byteLength":12,
			"byteOffset":1776724
		},
		{
			"buffer":0,
			"byteLength":16,
			"byteOffset":1776736
		},
		{
			"buffer":0,
			"byteLength":12,
			"byteOffset":1776752
		},
		{
			"buffer":0,
			"byteLength":12,
			"byteOffset":1776764
		},
		{
			"buffer":0,
			"byteLength":16,
			"byteOffset":1776776
		},
		{
			"buffer":0,
			"byteLength":12,
			"byteOffset":1776792
		},
		{
			"buffer":0,
			"byteLength":12,
			"byteOffset":1776804
		},
		{
			"buffer":0,
			"byteLength":16,
			"byteOffset":1776816
		},
		{
			"buffer":0,
			"byteLength":12,
			"byteOffset":1776832
		},
		{
			"buffer":0,
			"byteLength":12,
			"byteOffset":1776844
		},
		{
			"buffer":0,
			"byteLength":16,
			"byteOffset":1776856
		},
		{
			"buffer":0,
			"byteLength":12,
			"byteOffset":1776872
		}
	],
	"buffers":[
		{
			"byteLength":1776884,
			"uri":"BlowBack.bin"
		}
	]
}
