{
	"asset":{
		"generator":"Khronos glTF Blender I/O v4.2.57",
		"version":"2.0"
	},
	"extensionsUsed":[
		"KHR_materials_specular"
	],
	"scene":0,
	"scenes":[
		{
			"name":"Scene",
			"nodes":[
				67
			]
		}
	],
	"nodes":[
		{
			"name":"mixamorig:HeadTop_End",
			"rotation":[
				1.64451806698425e-15,
				-4.995761138104626e-09,
				8.193420342195168e-08,
				1
			],
			"scale":[
				1,
				0.9999999403953552,
				0.9999999403953552
			],
			"translation":[
				6.7691780714085326e-06,
				20.96279525756836,
				10.122946739196777
			]
		},
		{
			"children":[
				0
			],
			"name":"mixamorig:Head",
			"rotation":[
				-1.043081283569336e-07,
				4.99574959178517e-09,
				-8.19342176328064e-08,
				1
			],
			"translation":[
				5.3494829899136676e-08,
				9.341924667358398,
				2.841014862060547
			]
		},
		{
			"children":[
				1
			],
			"name":"mixamorig:Neck",
			"rotation":[
				3.725290298461914e-09,
				-3.913536161803677e-15,
				-7.471843063852694e-17,
				1
			],
			"translation":[
				-6.061651447453187e-08,
				16.865352630615234,
				-1.1395738511055242e-05
			]
		},
		{
			"name":"mixamorig:RightHandThumb4",
			"rotation":[
				0.005775094963610172,
				-0.1175067275762558,
				-0.04874211177229881,
				0.9918583631515503
			],
			"scale":[
				0.9999999403953552,
				0.9999999403953552,
				0.9999998807907104
			],
			"translation":[
				-6.67572021484375e-06,
				2.5749855041503906,
				-3.1311181373894215e-05
			]
		},
		{
			"children":[
				3
			],
			"name":"mixamorig:RightHandThumb3",
			"rotation":[
				-0.0016642892733216286,
				-0.0008100948762148619,
				0.006918239872902632,
				0.9999743103981018
			],
			"translation":[
				1.9073486328125e-05,
				3.4162540435791016,
				9.435156243853271e-06
			]
		},
		{
			"children":[
				4
			],
			"name":"mixamorig:RightHandThumb2",
			"rotation":[
				-0.0023153992369771004,
				-0.001169182825833559,
				0.009301244281232357,
				0.9999533891677856
			],
			"scale":[
				1,
				0.9999999403953552,
				0.9999999403953552
			],
			"translation":[
				9.5367431640625e-07,
				4.188968658447266,
				-1.3167213182896376e-05
			]
		},
		{
			"children":[
				5
			],
			"name":"mixamorig:RightHandThumb1",
			"rotation":[
				0.253283828496933,
				0.06161777675151825,
				-0.22821113467216492,
				0.9380673170089722
			],
			"scale":[
				0.9999998807907104,
				0.9999999403953552,
				0.9999999403953552
			],
			"translation":[
				2.681858777999878,
				2.4648053646087646,
				1.5739916563034058
			]
		},
		{
			"name":"mixamorig:RightHandIndex4",
			"rotation":[
				-2.840369461409864e-06,
				0.0010037142783403397,
				8.806507685221732e-05,
				0.9999995231628418
			],
			"scale":[
				1,
				1,
				0.9999999403953552
			],
			"translation":[
				-7.970607839524746e-06,
				2.7721760272979736,
				4.0830636862665415e-06
			]
		},
		{
			"children":[
				7
			],
			"name":"mixamorig:RightHandIndex3",
			"rotation":[
				8.105940651148558e-06,
				-3.476975223293266e-07,
				-8.826480188872665e-05,
				1
			],
			"scale":[
				1,
				0.9999998807907104,
				0.9999999403953552
			],
			"translation":[
				-3.08152666548267e-05,
				2.8500161170959473,
				-1.6675228835083544e-05
			]
		},
		{
			"children":[
				8
			],
			"name":"mixamorig:RightHandIndex2",
			"rotation":[
				-5.35410890734056e-06,
				-1.6711908301658696e-06,
				0.0002539149718359113,
				1
			],
			"scale":[
				0.9999998807907104,
				0.9999998807907104,
				0.9999998807907104
			],
			"translation":[
				6.542977644130588e-06,
				3.6999990940093994,
				1.6023181160562672e-05
			]
		},
		{
			"children":[
				9
			],
			"name":"mixamorig:RightHandIndex1",
			"rotation":[
				1.9443666121610192e-10,
				1.1936089094888302e-06,
				-0.00016289805353153497,
				1
			],
			"scale":[
				0.9999998211860657,
				0.9999998211860657,
				0.9999999403953552
			],
			"translation":[
				2.259831190109253,
				9.108280181884766,
				0.5178698897361755
			]
		},
		{
			"name":"mixamorig:RightHandMiddle4",
			"rotation":[
				-2.7428318389866035e-06,
				0.000928170164115727,
				0.00016570570005569607,
				0.9999995827674866
			],
			"scale":[
				0.9999998807907104,
				0.9999998211860657,
				0.9999999403953552
			],
			"translation":[
				1.026462996378541e-05,
				2.946622610092163,
				1.240709207195323e-05
			]
		},
		{
			"children":[
				11
			],
			"name":"mixamorig:RightHandMiddle3",
			"rotation":[
				2.586391701697721e-06,
				-1.4446967497860896e-06,
				-0.0003232510352972895,
				0.9999999403953552
			],
			"scale":[
				1.0000001192092896,
				1.0000001192092896,
				1
			],
			"translation":[
				-6.580085027962923e-07,
				2.9499871730804443,
				-9.627328836359084e-06
			]
		},
		{
			"children":[
				12
			],
			"name":"mixamorig:RightHandMiddle2",
			"rotation":[
				-2.5875501705741044e-06,
				3.6166863992548315e-07,
				0.000850206648465246,
				0.9999996423721313
			],
			"scale":[
				1,
				1,
				0.9999999403953552
			],
			"translation":[
				-1.615830115042627e-05,
				3.700012445449829,
				7.986302989593241e-06
			]
		},
		{
			"children":[
				13
			],
			"name":"mixamorig:RightHandMiddle1",
			"rotation":[
				2.730766723857414e-10,
				6.283909783633135e-07,
				-0.0005010637687519193,
				0.9999998807907104
			],
			"scale":[
				0.9999998807907104,
				0.9999998807907104,
				0.9999999403953552
			],
			"translation":[
				-1.0679585102479905e-05,
				9.532508850097656,
				4.762860044138506e-05
			]
		},
		{
			"name":"mixamorig:RightHandRing4",
			"rotation":[
				1.1609616734631345e-07,
				0.00014740918413735926,
				-0.000797980057541281,
				0.9999996423721313
			],
			"scale":[
				1,
				0.9999999403953552,
				0.9999997615814209
			],
			"translation":[
				-2.73704354185611e-05,
				2.638805866241455,
				1.2115400522816344e-06
			]
		},
		{
			"children":[
				15
			],
			"name":"mixamorig:RightHandRing3",
			"rotation":[
				2.640353613969637e-06,
				-3.178332008246798e-06,
				-0.00011589104542508721,
				1
			],
			"scale":[
				1,
				0.9999998807907104,
				1
			],
			"translation":[
				1.878273906186223e-05,
				2.889697551727295,
				4.179513780400157e-06
			]
		},
		{
			"children":[
				16
			],
			"name":"mixamorig:RightHandRing2",
			"rotation":[
				-2.639736976561835e-06,
				2.3449483705917373e-06,
				-0.00021914660464972258,
				1
			],
			"scale":[
				0.9999998211860657,
				0.9999999403953552,
				0.9999999403953552
			],
			"translation":[
				1.6356070773326792e-05,
				3.379271984100342,
				7.833433301129844e-06
			]
		},
		{
			"children":[
				17
			],
			"name":"mixamorig:RightHandRing1",
			"rotation":[
				1.3187478019316412e-11,
				-8.465329415230372e-08,
				0.00015578157035633922,
				1
			],
			"scale":[
				0.9999998211860657,
				1,
				0.9999999403953552
			],
			"translation":[
				-1.865138292312622,
				9.103599548339844,
				0.04307743161916733
			]
		},
		{
			"name":"mixamorig:RightHandPinky4",
			"rotation":[
				-3.543696948327124e-06,
				0.001571089494973421,
				-3.96710165659897e-05,
				0.9999987483024597
			],
			"scale":[
				0.9999998211860657,
				0.9999998211860657,
				0.9999998211860657
			],
			"translation":[
				2.5554909370839596e-06,
				2.1157758235931396,
				-1.7172220395877957e-05
			]
		},
		{
			"children":[
				19
			],
			"name":"mixamorig:RightHandPinky3",
			"rotation":[
				3.5780817597697023e-06,
				-2.629939501730405e-07,
				-0.0004970032023265958,
				0.9999998807907104
			],
			"scale":[
				1,
				1,
				0.9999999403953552
			],
			"translation":[
				4.661007551476359e-06,
				2.0999813079833984,
				1.2499687727540731e-05
			]
		},
		{
			"children":[
				20
			],
			"name":"mixamorig:RightHandPinky2",
			"rotation":[
				-6.056547476873675e-07,
				-1.5041872529764078e-06,
				0.0008446964784525335,
				0.9999996423721313
			],
			"scale":[
				0.9999998807907104,
				1,
				0.9999999403953552
			],
			"translation":[
				7.73934880271554e-06,
				3.6000077724456787,
				2.3594475351274014e-07
			]
		},
		{
			"children":[
				21
			],
			"name":"mixamorig:RightHandPinky1",
			"rotation":[
				4.238057044858579e-06,
				9.349500942334998e-07,
				0.0005213409313000739,
				0.9999998807907104
			],
			"scale":[
				0.9999999403953552,
				0.9999998211860657,
				0.9999999403953552
			],
			"translation":[
				-3.806269884109497,
				8.076671600341797,
				0.4867114722728729
			]
		},
		{
			"children":[
				6,
				10,
				14,
				18,
				22
			],
			"name":"mixamorig:RightHand",
			"rotation":[
				2.174457851217019e-16,
				-8.881787373374805e-16,
				5.4235160470723215e-14,
				1
			],
			"scale":[
				0.9999999403953552,
				0.9999999403953552,
				0.9999999403953552
			],
			"translation":[
				1.983799120353069e-05,
				28.32883071899414,
				1.7111020497395657e-05
			]
		},
		{
			"children":[
				23
			],
			"name":"mixamorig:RightForeArm",
			"rotation":[
				6.878547888613043e-14,
				1.5417793974847882e-07,
				2.825689477958804e-07,
				1
			],
			"scale":[
				0.9999999403953552,
				0.9999999403953552,
				0.9999999403953552
			],
			"translation":[
				-7.472390279872343e-06,
				27.841508865356445,
				-2.3827065888326615e-05
			]
		},
		{
			"children":[
				24
			],
			"name":"mixamorig:RightArm",
			"rotation":[
				-0.02461618185043335,
				0.002562094246968627,
				-0.10349888354539871,
				0.9943216443061829
			],
			"scale":[
				1,
				0.9999999403953552,
				1.0000001192092896
			],
			"translation":[
				1.633167266845703e-05,
				10.838180541992188,
				-6.022810339345597e-07
			]
		},
		{
			"children":[
				25
			],
			"name":"mixamorig:RightShoulder",
			"rotation":[
				0.4844304621219635,
				-0.5709636807441711,
				0.5261636972427368,
				0.40308722853660583
			],
			"scale":[
				1.0000001192092896,
				1.0000001192092896,
				1.0000001192092896
			],
			"translation":[
				-4.569965362548828,
				11.195865631103516,
				-0.8066308498382568
			]
		},
		{
			"name":"mixamorig:LeftHandThumb4",
			"rotation":[
				0.005152436904609203,
				0.12268216907978058,
				0.041651174426078796,
				0.9915582537651062
			],
			"scale":[
				1,
				1,
				0.9999998807907104
			],
			"translation":[
				-2.288818359375e-05,
				2.5805931091308594,
				-1.3190438039600849e-05
			]
		},
		{
			"children":[
				27
			],
			"name":"mixamorig:LeftHandThumb3",
			"rotation":[
				-0.0015307848807424307,
				0.0007500583888031542,
				-0.006070209667086601,
				0.999980092048645
			],
			"translation":[
				-3.814697265625e-06,
				3.4183692932128906,
				8.884002454578876e-06
			]
		},
		{
			"children":[
				28
			],
			"name":"mixamorig:LeftHandThumb2",
			"rotation":[
				-0.0020660299342125654,
				0.0010409301612526178,
				-0.00821484811604023,
				0.9999635815620422
			],
			"scale":[
				1,
				1,
				0.9999999403953552
			],
			"translation":[
				-4.1961669921875e-05,
				4.187095642089844,
				1.17215677164495e-06
			]
		},
		{
			"children":[
				29
			],
			"name":"mixamorig:LeftHandThumb1",
			"rotation":[
				0.2530958950519562,
				-0.06132449582219124,
				0.22735194861888885,
				0.9383458495140076
			],
			"scale":[
				1,
				0.9999999403953552,
				0.9999999403953552
			],
			"translation":[
				-2.681734800338745,
				2.466150999069214,
				1.5761579275131226
			]
		},
		{
			"name":"mixamorig:LeftHandIndex4",
			"rotation":[
				-2.7536327706911834e-06,
				-0.00037542067002505064,
				-1.0996733180945739e-05,
				0.9999999403953552
			],
			"scale":[
				0.9999999403953552,
				1,
				0.9999999403953552
			],
			"translation":[
				1.3655415386892855e-05,
				2.7748374938964844,
				4.6620843932032585e-06
			]
		},
		{
			"children":[
				31
			],
			"name":"mixamorig:LeftHandIndex3",
			"rotation":[
				7.247567168633395e-08,
				-8.489935794386838e-07,
				-6.70694062137045e-05,
				1
			],
			"translation":[
				-7.983107934705913e-06,
				2.850006103515625,
				-1.3836837752023712e-05
			]
		},
		{
			"children":[
				32
			],
			"name":"mixamorig:LeftHandIndex2",
			"rotation":[
				6.220543582458049e-07,
				-2.1016920470628975e-07,
				0.00010484721133252606,
				1
			],
			"translation":[
				9.511786629445851e-07,
				3.699995994567871,
				8.387360139749944e-06
			]
		},
		{
			"children":[
				33
			],
			"name":"mixamorig:LeftHandIndex1",
			"rotation":[
				1.1276463283138582e-06,
				-1.8147173364013724e-07,
				-4.420404729899019e-05,
				1
			],
			"scale":[
				1,
				0.9999997615814209,
				1
			],
			"translation":[
				-2.259861707687378,
				9.109306335449219,
				0.51799476146698
			]
		},
		{
			"name":"mixamorig:LeftHandMiddle4",
			"rotation":[
				2.911263585758661e-08,
				-0.0010236010421067476,
				2.8420970920706168e-05,
				0.999999463558197
			],
			"scale":[
				1,
				0.9999999403953552,
				1
			],
			"translation":[
				2.3020111257210374e-05,
				2.952862024307251,
				-6.986833795963321e-06
			]
		},
		{
			"children":[
				35
			],
			"name":"mixamorig:LeftHandMiddle3",
			"rotation":[
				-2.5862245820462704e-06,
				-6.251327278050667e-08,
				2.067985769826919e-05,
				1
			],
			"scale":[
				1,
				0.9999999403953552,
				1
			],
			"translation":[
				-1.4963516150601208e-05,
				2.950011730194092,
				-9.627838153392076e-07
			]
		},
		{
			"children":[
				36
			],
			"name":"mixamorig:LeftHandMiddle2",
			"rotation":[
				2.586238679214148e-06,
				-6.341484777294681e-07,
				2.058505197055638e-05,
				1
			],
			"scale":[
				1,
				0.9999999403953552,
				1
			],
			"translation":[
				1.4435012417379767e-05,
				3.700000047683716,
				7.918886240076972e-07
			]
		},
		{
			"children":[
				37
			],
			"name":"mixamorig:LeftHandMiddle1",
			"rotation":[
				-9.272349643651978e-07,
				-2.0722588089938654e-07,
				-3.185726745869033e-05,
				1
			],
			"scale":[
				1,
				0.9999999403953552,
				1
			],
			"translation":[
				-3.3813194022513926e-05,
				9.533404350280762,
				-7.018436735961586e-05
			]
		},
		{
			"name":"mixamorig:LeftHandRing4",
			"rotation":[
				-8.530924411331853e-09,
				0.0004945655819028616,
				1.731122210912872e-05,
				0.9999998807907104
			],
			"scale":[
				1,
				0.9999999403953552,
				1
			],
			"translation":[
				-2.947793109342456e-05,
				2.6443352699279785,
				1.523053379060002e-05
			]
		},
		{
			"children":[
				39
			],
			"name":"mixamorig:LeftHandRing3",
			"rotation":[
				-2.586237314972095e-06,
				5.979335355732474e-07,
				5.979371735520544e-07,
				1
			],
			"scale":[
				1,
				0.9999999403953552,
				1
			],
			"translation":[
				5.669338861480355e-06,
				2.9499852657318115,
				1.3139797374606133e-06
			]
		},
		{
			"children":[
				40
			],
			"name":"mixamorig:LeftHandRing2",
			"rotation":[
				2.58674253927893e-06,
				-2.09361542147235e-06,
				-2.0936940927640535e-06,
				1
			],
			"scale":[
				1,
				0.9999999403953552,
				1
			],
			"translation":[
				8.117131073959172e-06,
				3.1500003337860107,
				3.855034719890682e-06
			]
		},
		{
			"children":[
				41
			],
			"name":"mixamorig:LeftHandRing1",
			"rotation":[
				-9.277749768443755e-07,
				8.034104581611246e-08,
				6.338905677694129e-06,
				1
			],
			"scale":[
				1,
				0.9999999403953552,
				1
			],
			"translation":[
				1.8650928735733032,
				9.104521751403809,
				0.04299275949597359
			]
		},
		{
			"name":"mixamorig:LeftHandPinky4",
			"rotation":[
				-3.820524398179259e-06,
				-0.0007824439671821892,
				-0.0002943397266790271,
				0.9999996423721313
			],
			"scale":[
				0.9999998807907104,
				1,
				0.9999998807907104
			],
			"translation":[
				2.5198067305609584e-05,
				2.125532627105713,
				1.1674049346765969e-05
			]
		},
		{
			"children":[
				43
			],
			"name":"mixamorig:LeftHandPinky3",
			"rotation":[
				7.2659900069993455e-06,
				-1.5090654414962046e-06,
				-6.868412310723215e-05,
				1
			],
			"scale":[
				0.9999999403953552,
				0.9999999403953552,
				1
			],
			"translation":[
				-9.121104085352272e-07,
				2.1000161170959473,
				3.824090526904911e-06
			]
		},
		{
			"children":[
				44
			],
			"name":"mixamorig:LeftHandPinky2",
			"rotation":[
				-3.0256160243880004e-06,
				2.237619156630899e-07,
				-0.0002104211162077263,
				1
			],
			"scale":[
				1,
				0.9999999403953552,
				1
			],
			"translation":[
				-1.9552313460735604e-05,
				3.599989414215088,
				-1.2274322216399014e-06
			]
		},
		{
			"children":[
				45
			],
			"name":"mixamorig:LeftHandPinky1",
			"rotation":[
				-5.168617462913971e-06,
				-6.223208970368432e-07,
				0.0020441801752895117,
				0.9999979138374329
			],
			"scale":[
				1,
				0.9999999403953552,
				1
			],
			"translation":[
				3.8062679767608643,
				8.077770233154297,
				0.4868442416191101
			]
		},
		{
			"children":[
				30,
				34,
				38,
				42,
				46
			],
			"name":"mixamorig:LeftHand",
			"rotation":[
				1.1931535937037552e-07,
				3.8863157669766224e-07,
				3.8863120721543964e-07,
				1
			],
			"scale":[
				1,
				0.9999999403953552,
				1
			],
			"translation":[
				1.9772853192989714e-05,
				28.32882308959961,
				-7.377446308964863e-06
			]
		},
		{
			"children":[
				47
			],
			"name":"mixamorig:LeftForeArm",
			"rotation":[
				5.360003569876426e-07,
				2.6504289962758776e-07,
				2.602751578706375e-07,
				1
			],
			"scale":[
				1,
				0.9999999403953552,
				1
			],
			"translation":[
				1.8999773601535708e-05,
				27.84151840209961,
				5.614900146611035e-06
			]
		},
		{
			"children":[
				48
			],
			"name":"mixamorig:LeftArm",
			"rotation":[
				-0.024607039988040924,
				-0.002561792964115739,
				0.1035042330622673,
				0.9943212270736694
			],
			"scale":[
				0.9999998211860657,
				0.9999998807907104,
				0.9999997615814209
			],
			"translation":[
				-4.887580871582031e-06,
				10.837693214416504,
				4.64563345303759e-06
			]
		},
		{
			"children":[
				49
			],
			"name":"mixamorig:LeftShoulder",
			"rotation":[
				0.48442304134368896,
				0.570970356464386,
				-0.5261616706848145,
				0.4030895233154297
			],
			"scale":[
				1.0000001192092896,
				1.000000238418579,
				0.9999999403953552
			],
			"translation":[
				4.570446014404297,
				11.195650100708008,
				-0.8066407442092896
			]
		},
		{
			"children":[
				2,
				26,
				50
			],
			"name":"mixamorig:Spine2",
			"rotation":[
				0.012885437346994877,
				-3.1718858650719994e-09,
				-4.766780858922459e-10,
				0.9999169707298279
			],
			"translation":[
				5.108595360070467e-06,
				9.32208251953125,
				-9.194756785291247e-06
			]
		},
		{
			"children":[
				51
			],
			"name":"mixamorig:Spine1",
			"rotation":[
				6.332993507385254e-07,
				-3.3306690738754696e-15,
				-1.8220732404426385e-14,
				1
			],
			"translation":[
				1.293904233534704e-06,
				10.002674102783203,
				1.3693427717953455e-05
			]
		},
		{
			"children":[
				52
			],
			"name":"mixamorig:Spine",
			"rotation":[
				-0.0801558643579483,
				-5.153045101735643e-09,
				-1.7891964887439826e-07,
				0.9967823624610901
			],
			"scale":[
				1,
				0.9999998807907104,
				0.9999998807907104
			],
			"translation":[
				3.3933331451407867e-06,
				10.182440757751465,
				7.410308626276674e-06
			]
		},
		{
			"name":"mixamorig:RightToe_End",
			"rotation":[
				-1.1275553823963946e-09,
				0.011608130298554897,
				-1.3401970505588778e-11,
				0.9999326467514038
			],
			"scale":[
				1.0000001192092896,
				1,
				1
			],
			"translation":[
				-5.465127742354525e-06,
				9.278106689453125,
				1.2175314623164013e-07
			]
		},
		{
			"children":[
				54
			],
			"name":"mixamorig:RightToeBase",
			"rotation":[
				0.3352414071559906,
				3.51218680805232e-08,
				-1.0776052761229948e-07,
				0.942132294178009
			],
			"scale":[
				1,
				0.9999999403953552,
				0.9999998807907104
			],
			"translation":[
				-5.0335979722149204e-06,
				13.816882133483887,
				-6.987375400058227e-06
			]
		},
		{
			"children":[
				55
			],
			"name":"mixamorig:RightFoot",
			"rotation":[
				0.45974019169807434,
				3.2150546758202836e-07,
				-2.776331484710681e-07,
				0.8880534768104553
			],
			"scale":[
				1,
				0.9999999403953552,
				0.9999998807907104
			],
			"translation":[
				-2.721101282077143e-06,
				44.52781677246094,
				-2.2528322006110102e-05
			]
		},
		{
			"children":[
				56
			],
			"name":"mixamorig:RightLeg",
			"rotation":[
				-0.0380912646651268,
				2.3498269001720473e-06,
				1.047720701308208e-07,
				0.9992743134498596
			],
			"scale":[
				1,
				0.9999999403953552,
				0.9999999403953552
			],
			"translation":[
				3.86065585189499e-06,
				44.371490478515625,
				-2.441265678498894e-05
			]
		},
		{
			"children":[
				57
			],
			"name":"mixamorig:RightUpLeg",
			"rotation":[
				2.6641366730473237e-06,
				0.01035616546869278,
				0.9999463558197021,
				1.9954454444359726e-07
			],
			"scale":[
				1,
				0.9999998211860657,
				0.9999999403953552
			],
			"translation":[
				-8.207785606384277,
				-6.771753787994385,
				-1.5122106075286865
			]
		},
		{
			"name":"mixamorig:LeftToe_End",
			"rotation":[
				4.1962167074416357e-08,
				-0.011869152076542377,
				-4.98108165825073e-10,
				0.9999295473098755
			],
			"translation":[
				9.793482604436576e-06,
				9.278144836425781,
				1.089622855943162e-06
			]
		},
		{
			"children":[
				59
			],
			"name":"mixamorig:LeftToeBase",
			"rotation":[
				0.3352416157722473,
				3.512112556336433e-08,
				-1.0776003733781181e-07,
				0.9421321749687195
			],
			"translation":[
				-5.0334574552834965e-06,
				13.816872596740723,
				-1.2047996278852224e-05
			]
		},
		{
			"children":[
				60
			],
			"name":"mixamorig:LeftFoot",
			"rotation":[
				0.45974844694137573,
				8.153472919047999e-08,
				-1.534007338932497e-07,
				0.8880492448806763
			],
			"scale":[
				1,
				0.9999999403953552,
				0.9999998807907104
			],
			"translation":[
				-3.1680026495450875e-06,
				44.52788543701172,
				-8.171355148078874e-09
			]
		},
		{
			"children":[
				61
			],
			"name":"mixamorig:LeftLeg",
			"rotation":[
				-0.0381123423576355,
				5.3780859161634e-06,
				1.9973560938524315e-07,
				0.9992734789848328
			],
			"scale":[
				1,
				1.000000238418579,
				0.9999999403953552
			],
			"translation":[
				-4.051317773701157e-06,
				44.371402740478516,
				-1.1994794476777315e-05
			]
		},
		{
			"children":[
				62
			],
			"name":"mixamorig:LeftUpLeg",
			"rotation":[
				5.424230494099902e-06,
				0.010367694310843945,
				0.9999462366104126,
				2.281929738501276e-07
			],
			"scale":[
				1,
				0.9999995231628418,
				0.9999999403953552
			],
			"translation":[
				8.207795143127441,
				-6.771798133850098,
				-1.5122100114822388
			]
		},
		{
			"children":[
				53,
				58,
				63
			],
			"name":"mixamorig:Hips",
			"rotation":[
				-0.7025254368782043,
				1.2888102673969115e-07,
				1.265929654437059e-07,
				0.7116586565971375
			],
			"translation":[
				46.28311538696289,
				-206.5251922607422,
				-104.27488708496094
			]
		},
		{
			"mesh":0,
			"name":"Beta_Joints",
			"skin":0
		},
		{
			"mesh":1,
			"name":"Beta_Surface",
			"skin":0
		},
		{
			"children":[
				65,
				66,
				64
			],
			"name":"Armature",
			"rotation":[
				0.7071068286895752,
				0,
				0,
				0.7071068286895752
			],
			"scale":[
				0.009999999776482582,
				0.009999999776482582,
				0.009999999776482582
			]
		}
	],
	"animations":[
		{
			"channels":[
				{
					"sampler":0,
					"target":{
						"node":64,
						"path":"translation"
					}
				},
				{
					"sampler":1,
					"target":{
						"node":64,
						"path":"rotation"
					}
				},
				{
					"sampler":2,
					"target":{
						"node":64,
						"path":"scale"
					}
				},
				{
					"sampler":3,
					"target":{
						"node":53,
						"path":"translation"
					}
				},
				{
					"sampler":4,
					"target":{
						"node":53,
						"path":"rotation"
					}
				},
				{
					"sampler":5,
					"target":{
						"node":53,
						"path":"scale"
					}
				},
				{
					"sampler":6,
					"target":{
						"node":52,
						"path":"translation"
					}
				},
				{
					"sampler":7,
					"target":{
						"node":52,
						"path":"rotation"
					}
				},
				{
					"sampler":8,
					"target":{
						"node":52,
						"path":"scale"
					}
				},
				{
					"sampler":9,
					"target":{
						"node":51,
						"path":"translation"
					}
				},
				{
					"sampler":10,
					"target":{
						"node":51,
						"path":"rotation"
					}
				},
				{
					"sampler":11,
					"target":{
						"node":51,
						"path":"scale"
					}
				},
				{
					"sampler":12,
					"target":{
						"node":2,
						"path":"translation"
					}
				},
				{
					"sampler":13,
					"target":{
						"node":2,
						"path":"rotation"
					}
				},
				{
					"sampler":14,
					"target":{
						"node":2,
						"path":"scale"
					}
				},
				{
					"sampler":15,
					"target":{
						"node":1,
						"path":"translation"
					}
				},
				{
					"sampler":16,
					"target":{
						"node":1,
						"path":"rotation"
					}
				},
				{
					"sampler":17,
					"target":{
						"node":1,
						"path":"scale"
					}
				},
				{
					"sampler":18,
					"target":{
						"node":0,
						"path":"translation"
					}
				},
				{
					"sampler":19,
					"target":{
						"node":0,
						"path":"rotation"
					}
				},
				{
					"sampler":20,
					"target":{
						"node":0,
						"path":"scale"
					}
				},
				{
					"sampler":21,
					"target":{
						"node":26,
						"path":"translation"
					}
				},
				{
					"sampler":22,
					"target":{
						"node":26,
						"path":"rotation"
					}
				},
				{
					"sampler":23,
					"target":{
						"node":26,
						"path":"scale"
					}
				},
				{
					"sampler":24,
					"target":{
						"node":25,
						"path":"translation"
					}
				},
				{
					"sampler":25,
					"target":{
						"node":25,
						"path":"rotation"
					}
				},
				{
					"sampler":26,
					"target":{
						"node":25,
						"path":"scale"
					}
				},
				{
					"sampler":27,
					"target":{
						"node":24,
						"path":"translation"
					}
				},
				{
					"sampler":28,
					"target":{
						"node":24,
						"path":"rotation"
					}
				},
				{
					"sampler":29,
					"target":{
						"node":24,
						"path":"scale"
					}
				},
				{
					"sampler":30,
					"target":{
						"node":23,
						"path":"translation"
					}
				},
				{
					"sampler":31,
					"target":{
						"node":23,
						"path":"rotation"
					}
				},
				{
					"sampler":32,
					"target":{
						"node":23,
						"path":"scale"
					}
				},
				{
					"sampler":33,
					"target":{
						"node":6,
						"path":"translation"
					}
				},
				{
					"sampler":34,
					"target":{
						"node":6,
						"path":"rotation"
					}
				},
				{
					"sampler":35,
					"target":{
						"node":6,
						"path":"scale"
					}
				},
				{
					"sampler":36,
					"target":{
						"node":5,
						"path":"translation"
					}
				},
				{
					"sampler":37,
					"target":{
						"node":5,
						"path":"rotation"
					}
				},
				{
					"sampler":38,
					"target":{
						"node":5,
						"path":"scale"
					}
				},
				{
					"sampler":39,
					"target":{
						"node":4,
						"path":"translation"
					}
				},
				{
					"sampler":40,
					"target":{
						"node":4,
						"path":"rotation"
					}
				},
				{
					"sampler":41,
					"target":{
						"node":4,
						"path":"scale"
					}
				},
				{
					"sampler":42,
					"target":{
						"node":3,
						"path":"translation"
					}
				},
				{
					"sampler":43,
					"target":{
						"node":3,
						"path":"rotation"
					}
				},
				{
					"sampler":44,
					"target":{
						"node":3,
						"path":"scale"
					}
				},
				{
					"sampler":45,
					"target":{
						"node":10,
						"path":"translation"
					}
				},
				{
					"sampler":46,
					"target":{
						"node":10,
						"path":"rotation"
					}
				},
				{
					"sampler":47,
					"target":{
						"node":10,
						"path":"scale"
					}
				},
				{
					"sampler":48,
					"target":{
						"node":9,
						"path":"translation"
					}
				},
				{
					"sampler":49,
					"target":{
						"node":9,
						"path":"rotation"
					}
				},
				{
					"sampler":50,
					"target":{
						"node":9,
						"path":"scale"
					}
				},
				{
					"sampler":51,
					"target":{
						"node":8,
						"path":"translation"
					}
				},
				{
					"sampler":52,
					"target":{
						"node":8,
						"path":"rotation"
					}
				},
				{
					"sampler":53,
					"target":{
						"node":8,
						"path":"scale"
					}
				},
				{
					"sampler":54,
					"target":{
						"node":7,
						"path":"translation"
					}
				},
				{
					"sampler":55,
					"target":{
						"node":7,
						"path":"rotation"
					}
				},
				{
					"sampler":56,
					"target":{
						"node":7,
						"path":"scale"
					}
				},
				{
					"sampler":57,
					"target":{
						"node":14,
						"path":"translation"
					}
				},
				{
					"sampler":58,
					"target":{
						"node":14,
						"path":"rotation"
					}
				},
				{
					"sampler":59,
					"target":{
						"node":14,
						"path":"scale"
					}
				},
				{
					"sampler":60,
					"target":{
						"node":13,
						"path":"translation"
					}
				},
				{
					"sampler":61,
					"target":{
						"node":13,
						"path":"rotation"
					}
				},
				{
					"sampler":62,
					"target":{
						"node":13,
						"path":"scale"
					}
				},
				{
					"sampler":63,
					"target":{
						"node":12,
						"path":"translation"
					}
				},
				{
					"sampler":64,
					"target":{
						"node":12,
						"path":"rotation"
					}
				},
				{
					"sampler":65,
					"target":{
						"node":12,
						"path":"scale"
					}
				},
				{
					"sampler":66,
					"target":{
						"node":11,
						"path":"translation"
					}
				},
				{
					"sampler":67,
					"target":{
						"node":11,
						"path":"rotation"
					}
				},
				{
					"sampler":68,
					"target":{
						"node":11,
						"path":"scale"
					}
				},
				{
					"sampler":69,
					"target":{
						"node":18,
						"path":"translation"
					}
				},
				{
					"sampler":70,
					"target":{
						"node":18,
						"path":"rotation"
					}
				},
				{
					"sampler":71,
					"target":{
						"node":18,
						"path":"scale"
					}
				},
				{
					"sampler":72,
					"target":{
						"node":17,
						"path":"translation"
					}
				},
				{
					"sampler":73,
					"target":{
						"node":17,
						"path":"rotation"
					}
				},
				{
					"sampler":74,
					"target":{
						"node":17,
						"path":"scale"
					}
				},
				{
					"sampler":75,
					"target":{
						"node":16,
						"path":"translation"
					}
				},
				{
					"sampler":76,
					"target":{
						"node":16,
						"path":"rotation"
					}
				},
				{
					"sampler":77,
					"target":{
						"node":16,
						"path":"scale"
					}
				},
				{
					"sampler":78,
					"target":{
						"node":15,
						"path":"translation"
					}
				},
				{
					"sampler":79,
					"target":{
						"node":15,
						"path":"rotation"
					}
				},
				{
					"sampler":80,
					"target":{
						"node":15,
						"path":"scale"
					}
				},
				{
					"sampler":81,
					"target":{
						"node":22,
						"path":"translation"
					}
				},
				{
					"sampler":82,
					"target":{
						"node":22,
						"path":"rotation"
					}
				},
				{
					"sampler":83,
					"target":{
						"node":22,
						"path":"scale"
					}
				},
				{
					"sampler":84,
					"target":{
						"node":21,
						"path":"translation"
					}
				},
				{
					"sampler":85,
					"target":{
						"node":21,
						"path":"rotation"
					}
				},
				{
					"sampler":86,
					"target":{
						"node":21,
						"path":"scale"
					}
				},
				{
					"sampler":87,
					"target":{
						"node":20,
						"path":"translation"
					}
				},
				{
					"sampler":88,
					"target":{
						"node":20,
						"path":"rotation"
					}
				},
				{
					"sampler":89,
					"target":{
						"node":20,
						"path":"scale"
					}
				},
				{
					"sampler":90,
					"target":{
						"node":19,
						"path":"translation"
					}
				},
				{
					"sampler":91,
					"target":{
						"node":19,
						"path":"rotation"
					}
				},
				{
					"sampler":92,
					"target":{
						"node":19,
						"path":"scale"
					}
				},
				{
					"sampler":93,
					"target":{
						"node":50,
						"path":"translation"
					}
				},
				{
					"sampler":94,
					"target":{
						"node":50,
						"path":"rotation"
					}
				},
				{
					"sampler":95,
					"target":{
						"node":50,
						"path":"scale"
					}
				},
				{
					"sampler":96,
					"target":{
						"node":49,
						"path":"translation"
					}
				},
				{
					"sampler":97,
					"target":{
						"node":49,
						"path":"rotation"
					}
				},
				{
					"sampler":98,
					"target":{
						"node":49,
						"path":"scale"
					}
				},
				{
					"sampler":99,
					"target":{
						"node":48,
						"path":"translation"
					}
				},
				{
					"sampler":100,
					"target":{
						"node":48,
						"path":"rotation"
					}
				},
				{
					"sampler":101,
					"target":{
						"node":48,
						"path":"scale"
					}
				},
				{
					"sampler":102,
					"target":{
						"node":47,
						"path":"translation"
					}
				},
				{
					"sampler":103,
					"target":{
						"node":47,
						"path":"rotation"
					}
				},
				{
					"sampler":104,
					"target":{
						"node":47,
						"path":"scale"
					}
				},
				{
					"sampler":105,
					"target":{
						"node":30,
						"path":"translation"
					}
				},
				{
					"sampler":106,
					"target":{
						"node":30,
						"path":"rotation"
					}
				},
				{
					"sampler":107,
					"target":{
						"node":30,
						"path":"scale"
					}
				},
				{
					"sampler":108,
					"target":{
						"node":29,
						"path":"translation"
					}
				},
				{
					"sampler":109,
					"target":{
						"node":29,
						"path":"rotation"
					}
				},
				{
					"sampler":110,
					"target":{
						"node":29,
						"path":"scale"
					}
				},
				{
					"sampler":111,
					"target":{
						"node":28,
						"path":"translation"
					}
				},
				{
					"sampler":112,
					"target":{
						"node":28,
						"path":"rotation"
					}
				},
				{
					"sampler":113,
					"target":{
						"node":28,
						"path":"scale"
					}
				},
				{
					"sampler":114,
					"target":{
						"node":27,
						"path":"translation"
					}
				},
				{
					"sampler":115,
					"target":{
						"node":27,
						"path":"rotation"
					}
				},
				{
					"sampler":116,
					"target":{
						"node":27,
						"path":"scale"
					}
				},
				{
					"sampler":117,
					"target":{
						"node":34,
						"path":"translation"
					}
				},
				{
					"sampler":118,
					"target":{
						"node":34,
						"path":"rotation"
					}
				},
				{
					"sampler":119,
					"target":{
						"node":34,
						"path":"scale"
					}
				},
				{
					"sampler":120,
					"target":{
						"node":33,
						"path":"translation"
					}
				},
				{
					"sampler":121,
					"target":{
						"node":33,
						"path":"rotation"
					}
				},
				{
					"sampler":122,
					"target":{
						"node":33,
						"path":"scale"
					}
				},
				{
					"sampler":123,
					"target":{
						"node":32,
						"path":"translation"
					}
				},
				{
					"sampler":124,
					"target":{
						"node":32,
						"path":"rotation"
					}
				},
				{
					"sampler":125,
					"target":{
						"node":32,
						"path":"scale"
					}
				},
				{
					"sampler":126,
					"target":{
						"node":31,
						"path":"translation"
					}
				},
				{
					"sampler":127,
					"target":{
						"node":31,
						"path":"rotation"
					}
				},
				{
					"sampler":128,
					"target":{
						"node":31,
						"path":"scale"
					}
				},
				{
					"sampler":129,
					"target":{
						"node":38,
						"path":"translation"
					}
				},
				{
					"sampler":130,
					"target":{
						"node":38,
						"path":"rotation"
					}
				},
				{
					"sampler":131,
					"target":{
						"node":38,
						"path":"scale"
					}
				},
				{
					"sampler":132,
					"target":{
						"node":37,
						"path":"translation"
					}
				},
				{
					"sampler":133,
					"target":{
						"node":37,
						"path":"rotation"
					}
				},
				{
					"sampler":134,
					"target":{
						"node":37,
						"path":"scale"
					}
				},
				{
					"sampler":135,
					"target":{
						"node":36,
						"path":"translation"
					}
				},
				{
					"sampler":136,
					"target":{
						"node":36,
						"path":"rotation"
					}
				},
				{
					"sampler":137,
					"target":{
						"node":36,
						"path":"scale"
					}
				},
				{
					"sampler":138,
					"target":{
						"node":35,
						"path":"translation"
					}
				},
				{
					"sampler":139,
					"target":{
						"node":35,
						"path":"rotation"
					}
				},
				{
					"sampler":140,
					"target":{
						"node":35,
						"path":"scale"
					}
				},
				{
					"sampler":141,
					"target":{
						"node":42,
						"path":"translation"
					}
				},
				{
					"sampler":142,
					"target":{
						"node":42,
						"path":"rotation"
					}
				},
				{
					"sampler":143,
					"target":{
						"node":42,
						"path":"scale"
					}
				},
				{
					"sampler":144,
					"target":{
						"node":41,
						"path":"translation"
					}
				},
				{
					"sampler":145,
					"target":{
						"node":41,
						"path":"rotation"
					}
				},
				{
					"sampler":146,
					"target":{
						"node":41,
						"path":"scale"
					}
				},
				{
					"sampler":147,
					"target":{
						"node":40,
						"path":"translation"
					}
				},
				{
					"sampler":148,
					"target":{
						"node":40,
						"path":"rotation"
					}
				},
				{
					"sampler":149,
					"target":{
						"node":40,
						"path":"scale"
					}
				},
				{
					"sampler":150,
					"target":{
						"node":39,
						"path":"translation"
					}
				},
				{
					"sampler":151,
					"target":{
						"node":39,
						"path":"rotation"
					}
				},
				{
					"sampler":152,
					"target":{
						"node":39,
						"path":"scale"
					}
				},
				{
					"sampler":153,
					"target":{
						"node":46,
						"path":"translation"
					}
				},
				{
					"sampler":154,
					"target":{
						"node":46,
						"path":"rotation"
					}
				},
				{
					"sampler":155,
					"target":{
						"node":46,
						"path":"scale"
					}
				},
				{
					"sampler":156,
					"target":{
						"node":45,
						"path":"translation"
					}
				},
				{
					"sampler":157,
					"target":{
						"node":45,
						"path":"rotation"
					}
				},
				{
					"sampler":158,
					"target":{
						"node":45,
						"path":"scale"
					}
				},
				{
					"sampler":159,
					"target":{
						"node":44,
						"path":"translation"
					}
				},
				{
					"sampler":160,
					"target":{
						"node":44,
						"path":"rotation"
					}
				},
				{
					"sampler":161,
					"target":{
						"node":44,
						"path":"scale"
					}
				},
				{
					"sampler":162,
					"target":{
						"node":43,
						"path":"translation"
					}
				},
				{
					"sampler":163,
					"target":{
						"node":43,
						"path":"rotation"
					}
				},
				{
					"sampler":164,
					"target":{
						"node":43,
						"path":"scale"
					}
				},
				{
					"sampler":165,
					"target":{
						"node":58,
						"path":"translation"
					}
				},
				{
					"sampler":166,
					"target":{
						"node":58,
						"path":"rotation"
					}
				},
				{
					"sampler":167,
					"target":{
						"node":58,
						"path":"scale"
					}
				},
				{
					"sampler":168,
					"target":{
						"node":57,
						"path":"translation"
					}
				},
				{
					"sampler":169,
					"target":{
						"node":57,
						"path":"rotation"
					}
				},
				{
					"sampler":170,
					"target":{
						"node":57,
						"path":"scale"
					}
				},
				{
					"sampler":171,
					"target":{
						"node":56,
						"path":"translation"
					}
				},
				{
					"sampler":172,
					"target":{
						"node":56,
						"path":"rotation"
					}
				},
				{
					"sampler":173,
					"target":{
						"node":56,
						"path":"scale"
					}
				},
				{
					"sampler":174,
					"target":{
						"node":55,
						"path":"translation"
					}
				},
				{
					"sampler":175,
					"target":{
						"node":55,
						"path":"rotation"
					}
				},
				{
					"sampler":176,
					"target":{
						"node":55,
						"path":"scale"
					}
				},
				{
					"sampler":177,
					"target":{
						"node":54,
						"path":"translation"
					}
				},
				{
					"sampler":178,
					"target":{
						"node":54,
						"path":"rotation"
					}
				},
				{
					"sampler":179,
					"target":{
						"node":54,
						"path":"scale"
					}
				},
				{
					"sampler":180,
					"target":{
						"node":63,
						"path":"translation"
					}
				},
				{
					"sampler":181,
					"target":{
						"node":63,
						"path":"rotation"
					}
				},
				{
					"sampler":182,
					"target":{
						"node":63,
						"path":"scale"
					}
				},
				{
					"sampler":183,
					"target":{
						"node":62,
						"path":"translation"
					}
				},
				{
					"sampler":184,
					"target":{
						"node":62,
						"path":"rotation"
					}
				},
				{
					"sampler":185,
					"target":{
						"node":62,
						"path":"scale"
					}
				},
				{
					"sampler":186,
					"target":{
						"node":61,
						"path":"translation"
					}
				},
				{
					"sampler":187,
					"target":{
						"node":61,
						"path":"rotation"
					}
				},
				{
					"sampler":188,
					"target":{
						"node":61,
						"path":"scale"
					}
				},
				{
					"sampler":189,
					"target":{
						"node":60,
						"path":"translation"
					}
				},
				{
					"sampler":190,
					"target":{
						"node":60,
						"path":"rotation"
					}
				},
				{
					"sampler":191,
					"target":{
						"node":60,
						"path":"scale"
					}
				},
				{
					"sampler":192,
					"target":{
						"node":59,
						"path":"translation"
					}
				},
				{
					"sampler":193,
					"target":{
						"node":59,
						"path":"rotation"
					}
				},
				{
					"sampler":194,
					"target":{
						"node":59,
						"path":"scale"
					}
				}
			],
			"name":"Armature|mixamo.com|Layer0",
			"samplers":[
				{
					"input":13,
					"interpolation":"STEP",
					"output":14
				},
				{
					"input":15,
					"interpolation":"LINEAR",
					"output":16
				},
				{
					"input":13,
					"interpolation":"STEP",
					"output":17
				},
				{
					"input":13,
					"interpolation":"LINEAR",
					"output":18
				},
				{
					"input":15,
					"interpolation":"LINEAR",
					"output":19
				},
				{
					"input":13,
					"interpolation":"LINEAR",
					"output":20
				},
				{
					"input":13,
					"interpolation":"LINEAR",
					"output":21
				},
				{
					"input":15,
					"interpolation":"LINEAR",
					"output":22
				},
				{
					"input":13,
					"interpolation":"LINEAR",
					"output":23
				},
				{
					"input":13,
					"interpolation":"LINEAR",
					"output":24
				},
				{
					"input":15,
					"interpolation":"LINEAR",
					"output":25
				},
				{
					"input":13,
					"interpolation":"STEP",
					"output":26
				},
				{
					"input":13,
					"interpolation":"LINEAR",
					"output":27
				},
				{
					"input":15,
					"interpolation":"LINEAR",
					"output":28
				},
				{
					"input":13,
					"interpolation":"STEP",
					"output":29
				},
				{
					"input":13,
					"interpolation":"LINEAR",
					"output":30
				},
				{
					"input":15,
					"interpolation":"LINEAR",
					"output":31
				},
				{
					"input":13,
					"interpolation":"LINEAR",
					"output":32
				},
				{
					"input":13,
					"interpolation":"STEP",
					"output":33
				},
				{
					"input":13,
					"interpolation":"STEP",
					"output":34
				},
				{
					"input":13,
					"interpolation":"STEP",
					"output":35
				},
				{
					"input":13,
					"interpolation":"LINEAR",
					"output":36
				},
				{
					"input":15,
					"interpolation":"LINEAR",
					"output":37
				},
				{
					"input":13,
					"interpolation":"LINEAR",
					"output":38
				},
				{
					"input":13,
					"interpolation":"LINEAR",
					"output":39
				},
				{
					"input":15,
					"interpolation":"LINEAR",
					"output":40
				},
				{
					"input":13,
					"interpolation":"LINEAR",
					"output":41
				},
				{
					"input":13,
					"interpolation":"LINEAR",
					"output":42
				},
				{
					"input":15,
					"interpolation":"LINEAR",
					"output":43
				},
				{
					"input":13,
					"interpolation":"LINEAR",
					"output":44
				},
				{
					"input":13,
					"interpolation":"LINEAR",
					"output":45
				},
				{
					"input":15,
					"interpolation":"LINEAR",
					"output":46
				},
				{
					"input":13,
					"interpolation":"LINEAR",
					"output":47
				},
				{
					"input":13,
					"interpolation":"LINEAR",
					"output":48
				},
				{
					"input":13,
					"interpolation":"LINEAR",
					"output":49
				},
				{
					"input":13,
					"interpolation":"STEP",
					"output":50
				},
				{
					"input":13,
					"interpolation":"LINEAR",
					"output":51
				},
				{
					"input":15,
					"interpolation":"LINEAR",
					"output":52
				},
				{
					"input":13,
					"interpolation":"STEP",
					"output":53
				},
				{
					"input":13,
					"interpolation":"LINEAR",
					"output":54
				},
				{
					"input":15,
					"interpolation":"LINEAR",
					"output":55
				},
				{
					"input":13,
					"interpolation":"STEP",
					"output":56
				},
				{
					"input":13,
					"interpolation":"STEP",
					"output":57
				},
				{
					"input":13,
					"interpolation":"STEP",
					"output":58
				},
				{
					"input":13,
					"interpolation":"STEP",
					"output":59
				},
				{
					"input":13,
					"interpolation":"LINEAR",
					"output":60
				},
				{
					"input":15,
					"interpolation":"LINEAR",
					"output":61
				},
				{
					"input":13,
					"interpolation":"LINEAR",
					"output":62
				},
				{
					"input":13,
					"interpolation":"LINEAR",
					"output":63
				},
				{
					"input":15,
					"interpolation":"LINEAR",
					"output":64
				},
				{
					"input":13,
					"interpolation":"STEP",
					"output":65
				},
				{
					"input":13,
					"interpolation":"LINEAR",
					"output":66
				},
				{
					"input":15,
					"interpolation":"LINEAR",
					"output":67
				},
				{
					"input":13,
					"interpolation":"STEP",
					"output":68
				},
				{
					"input":13,
					"interpolation":"STEP",
					"output":69
				},
				{
					"input":13,
					"interpolation":"STEP",
					"output":70
				},
				{
					"input":13,
					"interpolation":"STEP",
					"output":71
				},
				{
					"input":13,
					"interpolation":"LINEAR",
					"output":72
				},
				{
					"input":15,
					"interpolation":"LINEAR",
					"output":73
				},
				{
					"input":13,
					"interpolation":"STEP",
					"output":74
				},
				{
					"input":13,
					"interpolation":"LINEAR",
					"output":75
				},
				{
					"input":15,
					"interpolation":"LINEAR",
					"output":76
				},
				{
					"input":13,
					"interpolation":"STEP",
					"output":77
				},
				{
					"input":13,
					"interpolation":"LINEAR",
					"output":78
				},
				{
					"input":15,
					"interpolation":"LINEAR",
					"output":79
				},
				{
					"input":13,
					"interpolation":"LINEAR",
					"output":80
				},
				{
					"input":13,
					"interpolation":"STEP",
					"output":81
				},
				{
					"input":13,
					"interpolation":"STEP",
					"output":82
				},
				{
					"input":13,
					"interpolation":"STEP",
					"output":83
				},
				{
					"input":13,
					"interpolation":"LINEAR",
					"output":84
				},
				{
					"input":15,
					"interpolation":"LINEAR",
					"output":85
				},
				{
					"input":13,
					"interpolation":"LINEAR",
					"output":86
				},
				{
					"input":13,
					"interpolation":"LINEAR",
					"output":87
				},
				{
					"input":15,
					"interpolation":"LINEAR",
					"output":88
				},
				{
					"input":13,
					"interpolation":"STEP",
					"output":89
				},
				{
					"input":13,
					"interpolation":"LINEAR",
					"output":90
				},
				{
					"input":15,
					"interpolation":"LINEAR",
					"output":91
				},
				{
					"input":13,
					"interpolation":"STEP",
					"output":92
				},
				{
					"input":13,
					"interpolation":"STEP",
					"output":93
				},
				{
					"input":13,
					"interpolation":"STEP",
					"output":94
				},
				{
					"input":13,
					"interpolation":"STEP",
					"output":95
				},
				{
					"input":13,
					"interpolation":"LINEAR",
					"output":96
				},
				{
					"input":15,
					"interpolation":"LINEAR",
					"output":97
				},
				{
					"input":13,
					"interpolation":"STEP",
					"output":98
				},
				{
					"input":13,
					"interpolation":"LINEAR",
					"output":99
				},
				{
					"input":15,
					"interpolation":"LINEAR",
					"output":100
				},
				{
					"input":13,
					"interpolation":"LINEAR",
					"output":101
				},
				{
					"input":13,
					"interpolation":"LINEAR",
					"output":102
				},
				{
					"input":15,
					"interpolation":"LINEAR",
					"output":103
				},
				{
					"input":13,
					"interpolation":"STEP",
					"output":104
				},
				{
					"input":13,
					"interpolation":"STEP",
					"output":105
				},
				{
					"input":13,
					"interpolation":"STEP",
					"output":106
				},
				{
					"input":13,
					"interpolation":"STEP",
					"output":107
				},
				{
					"input":13,
					"interpolation":"LINEAR",
					"output":108
				},
				{
					"input":15,
					"interpolation":"LINEAR",
					"output":109
				},
				{
					"input":13,
					"interpolation":"LINEAR",
					"output":110
				},
				{
					"input":13,
					"interpolation":"LINEAR",
					"output":111
				},
				{
					"input":15,
					"interpolation":"LINEAR",
					"output":112
				},
				{
					"input":13,
					"interpolation":"LINEAR",
					"output":113
				},
				{
					"input":13,
					"interpolation":"LINEAR",
					"output":114
				},
				{
					"input":15,
					"interpolation":"LINEAR",
					"output":115
				},
				{
					"input":13,
					"interpolation":"STEP",
					"output":116
				},
				{
					"input":13,
					"interpolation":"LINEAR",
					"output":117
				},
				{
					"input":15,
					"interpolation":"LINEAR",
					"output":118
				},
				{
					"input":13,
					"interpolation":"LINEAR",
					"output":119
				},
				{
					"input":13,
					"interpolation":"LINEAR",
					"output":120
				},
				{
					"input":13,
					"interpolation":"LINEAR",
					"output":121
				},
				{
					"input":13,
					"interpolation":"STEP",
					"output":122
				},
				{
					"input":13,
					"interpolation":"LINEAR",
					"output":123
				},
				{
					"input":15,
					"interpolation":"LINEAR",
					"output":124
				},
				{
					"input":13,
					"interpolation":"LINEAR",
					"output":125
				},
				{
					"input":13,
					"interpolation":"LINEAR",
					"output":126
				},
				{
					"input":15,
					"interpolation":"LINEAR",
					"output":127
				},
				{
					"input":13,
					"interpolation":"STEP",
					"output":128
				},
				{
					"input":13,
					"interpolation":"STEP",
					"output":129
				},
				{
					"input":13,
					"interpolation":"STEP",
					"output":130
				},
				{
					"input":13,
					"interpolation":"STEP",
					"output":131
				},
				{
					"input":13,
					"interpolation":"LINEAR",
					"output":132
				},
				{
					"input":15,
					"interpolation":"LINEAR",
					"output":133
				},
				{
					"input":13,
					"interpolation":"LINEAR",
					"output":134
				},
				{
					"input":13,
					"interpolation":"LINEAR",
					"output":135
				},
				{
					"input":15,
					"interpolation":"LINEAR",
					"output":136
				},
				{
					"input":13,
					"interpolation":"LINEAR",
					"output":137
				},
				{
					"input":13,
					"interpolation":"LINEAR",
					"output":138
				},
				{
					"input":15,
					"interpolation":"LINEAR",
					"output":139
				},
				{
					"input":13,
					"interpolation":"LINEAR",
					"output":140
				},
				{
					"input":13,
					"interpolation":"STEP",
					"output":141
				},
				{
					"input":13,
					"interpolation":"STEP",
					"output":142
				},
				{
					"input":13,
					"interpolation":"STEP",
					"output":143
				},
				{
					"input":13,
					"interpolation":"LINEAR",
					"output":144
				},
				{
					"input":15,
					"interpolation":"LINEAR",
					"output":145
				},
				{
					"input":13,
					"interpolation":"LINEAR",
					"output":146
				},
				{
					"input":13,
					"interpolation":"LINEAR",
					"output":147
				},
				{
					"input":15,
					"interpolation":"LINEAR",
					"output":148
				},
				{
					"input":13,
					"interpolation":"LINEAR",
					"output":149
				},
				{
					"input":13,
					"interpolation":"LINEAR",
					"output":150
				},
				{
					"input":15,
					"interpolation":"LINEAR",
					"output":151
				},
				{
					"input":13,
					"interpolation":"LINEAR",
					"output":152
				},
				{
					"input":13,
					"interpolation":"STEP",
					"output":153
				},
				{
					"input":13,
					"interpolation":"STEP",
					"output":154
				},
				{
					"input":13,
					"interpolation":"STEP",
					"output":155
				},
				{
					"input":13,
					"interpolation":"LINEAR",
					"output":156
				},
				{
					"input":15,
					"interpolation":"LINEAR",
					"output":157
				},
				{
					"input":13,
					"interpolation":"LINEAR",
					"output":158
				},
				{
					"input":13,
					"interpolation":"LINEAR",
					"output":159
				},
				{
					"input":15,
					"interpolation":"LINEAR",
					"output":160
				},
				{
					"input":13,
					"interpolation":"LINEAR",
					"output":161
				},
				{
					"input":13,
					"interpolation":"LINEAR",
					"output":162
				},
				{
					"input":15,
					"interpolation":"LINEAR",
					"output":163
				},
				{
					"input":13,
					"interpolation":"LINEAR",
					"output":164
				},
				{
					"input":13,
					"interpolation":"STEP",
					"output":165
				},
				{
					"input":13,
					"interpolation":"STEP",
					"output":166
				},
				{
					"input":13,
					"interpolation":"STEP",
					"output":167
				},
				{
					"input":13,
					"interpolation":"LINEAR",
					"output":168
				},
				{
					"input":15,
					"interpolation":"LINEAR",
					"output":169
				},
				{
					"input":13,
					"interpolation":"LINEAR",
					"output":170
				},
				{
					"input":13,
					"interpolation":"LINEAR",
					"output":171
				},
				{
					"input":15,
					"interpolation":"LINEAR",
					"output":172
				},
				{
					"input":13,
					"interpolation":"LINEAR",
					"output":173
				},
				{
					"input":13,
					"interpolation":"LINEAR",
					"output":174
				},
				{
					"input":15,
					"interpolation":"LINEAR",
					"output":175
				},
				{
					"input":13,
					"interpolation":"LINEAR",
					"output":176
				},
				{
					"input":13,
					"interpolation":"STEP",
					"output":177
				},
				{
					"input":13,
					"interpolation":"STEP",
					"output":178
				},
				{
					"input":13,
					"interpolation":"STEP",
					"output":179
				},
				{
					"input":13,
					"interpolation":"LINEAR",
					"output":180
				},
				{
					"input":15,
					"interpolation":"LINEAR",
					"output":181
				},
				{
					"input":13,
					"interpolation":"STEP",
					"output":182
				},
				{
					"input":13,
					"interpolation":"LINEAR",
					"output":183
				},
				{
					"input":15,
					"interpolation":"LINEAR",
					"output":184
				},
				{
					"input":13,
					"interpolation":"STEP",
					"output":185
				},
				{
					"input":13,
					"interpolation":"LINEAR",
					"output":186
				},
				{
					"input":15,
					"interpolation":"LINEAR",
					"output":187
				},
				{
					"input":13,
					"interpolation":"LINEAR",
					"output":188
				},
				{
					"input":13,
					"interpolation":"LINEAR",
					"output":189
				},
				{
					"input":15,
					"interpolation":"LINEAR",
					"output":190
				},
				{
					"input":13,
					"interpolation":"LINEAR",
					"output":191
				},
				{
					"input":13,
					"interpolation":"STEP",
					"output":192
				},
				{
					"input":13,
					"interpolation":"STEP",
					"output":193
				},
				{
					"input":13,
					"interpolation":"STEP",
					"output":194
				},
				{
					"input":13,
					"interpolation":"LINEAR",
					"output":195
				},
				{
					"input":15,
					"interpolation":"LINEAR",
					"output":196
				},
				{
					"input":13,
					"interpolation":"LINEAR",
					"output":197
				},
				{
					"input":13,
					"interpolation":"LINEAR",
					"output":198
				},
				{
					"input":15,
					"interpolation":"LINEAR",
					"output":199
				},
				{
					"input":13,
					"interpolation":"LINEAR",
					"output":200
				},
				{
					"input":13,
					"interpolation":"LINEAR",
					"output":201
				},
				{
					"input":15,
					"interpolation":"LINEAR",
					"output":202
				},
				{
					"input":13,
					"interpolation":"LINEAR",
					"output":203
				},
				{
					"input":13,
					"interpolation":"LINEAR",
					"output":204
				},
				{
					"input":15,
					"interpolation":"LINEAR",
					"output":205
				},
				{
					"input":13,
					"interpolation":"LINEAR",
					"output":206
				},
				{
					"input":13,
					"interpolation":"STEP",
					"output":207
				},
				{
					"input":13,
					"interpolation":"STEP",
					"output":208
				},
				{
					"input":13,
					"interpolation":"STEP",
					"output":209
				}
			]
		}
	],
	"materials":[
		{
			"doubleSided":true,
			"extensions":{
				"KHR_materials_specular":{
					"specularColorFactor":[
						2.0,
						2.0,
						2.0
					]
				}
			},
			"name":"Beta_Joints_MAT1",
			"pbrMetallicRoughness":{
				"baseColorFactor":[
					0.3333333432674408,
					0.12452887743711472,
					0.10101473331451416,
					1
				],
				"metallicFactor":0.5,
				"roughnessFactor":0.5527864098548889
			}
		},
		{
			"doubleSided":true,
			"extensions":{
				"KHR_materials_specular":{
					"specularColorFactor":[
						2.0,
						2.0,
						2.0
					]
				}
			},
			"name":"Beta_HighLimbsGeoSG3",
			"pbrMetallicRoughness":{
				"baseColorFactor":[
					0.8370000123977661,
					0.30230802297592163,
					0.26365500688552856,
					1
				],
				"metallicFactor":0,
				"roughnessFactor":0.5527864098548889
			}
		}
	],
	"meshes":[
		{
			"name":"Beta_Joints",
			"primitives":[
				{
					"attributes":{
						"POSITION":0,
						"NORMAL":1,
						"TEXCOORD_0":2,
						"JOINTS_0":3,
						"WEIGHTS_0":4
					},
					"indices":5,
					"material":0
				}
			]
		},
		{
			"name":"Beta_Surface",
			"primitives":[
				{
					"attributes":{
						"POSITION":7,
						"NORMAL":8,
						"TEXCOORD_0":9,
						"JOINTS_0":10,
						"WEIGHTS_0":11
					},
					"indices":12,
					"material":1
				}
			]
		}
	],
	"skins":[
		{
			"inverseBindMatrices":6,
			"joints":[
				64,
				53,
				52,
				51,
				2,
				1,
				0,
				26,
				25,
				24,
				23,
				6,
				5,
				4,
				3,
				10,
				9,
				8,
				7,
				14,
				13,
				12,
				11,
				18,
				17,
				16,
				15,
				22,
				21,
				20,
				19,
				50,
				49,
				48,
				47,
				30,
				29,
				28,
				27,
				34,
				33,
				32,
				31,
				38,
				37,
				36,
				35,
				42,
				41,
				40,
				39,
				46,
				45,
				44,
				43,
				58,
				57,
				56,
				55,
				54,
				63,
				62,
				61,
				60,
				59
			],
			"name":"Armature"
		}
	],
	"accessors":[
		{
			"bufferView":0,
			"componentType":5126,
			"count":12473,
			"max":[
				1.3462978601455688,
				1.5964422225952148,
				-1.9557760953903198
			],
			"min":[
				-0.42063578963279724,
				-0.0003511549439281225,
				-2.210700511932373
			],
			"type":"VEC3"
		},
		{
			"bufferView":1,
			"componentType":5126,
			"count":12473,
			"type":"VEC3"
		},
		{
			"bufferView":2,
			"componentType":5126,
			"count":12473,
			"type":"VEC2"
		},
		{
			"bufferView":3,
			"componentType":5121,
			"count":12473,
			"type":"VEC4"
		},
		{
			"bufferView":4,
			"componentType":5126,
			"count":12473,
			"type":"VEC4"
		},
		{
			"bufferView":5,
			"componentType":5123,
			"count":62520,
			"type":"SCALAR"
		},
		{
			"bufferView":6,
			"componentType":5126,
			"count":65,
			"type":"MAT4"
		},
		{
			"bufferView":7,
			"componentType":5126,
			"count":15901,
			"max":[
				1.3653969764709473,
				1.8088831901550293,
				-1.9090535640716553
			],
			"min":[
				-0.43973490595817566,
				-0.00032193231163546443,
				-2.229752540588379
			],
			"type":"VEC3"
		},
		{
			"bufferView":8,
			"componentType":5126,
			"count":15901,
			"type":"VEC3"
		},
		{
			"bufferView":9,
			"componentType":5126,
			"count":15901,
			"type":"VEC2"
		},
		{
			"bufferView":10,
			"componentType":5121,
			"count":15901,
			"type":"VEC4"
		},
		{
			"bufferView":11,
			"componentType":5126,
			"count":15901,
			"type":"VEC4"
		},
		{
			"bufferView":12,
			"componentType":5123,
			"count":84816,
			"type":"SCALAR"
		},
		{
			"bufferView":13,
			"componentType":5126,
			"count":2,
			"max":[
				1.6666666666666667
			],
			"min":[
				0.03333333333333333
			],
			"type":"SCALAR"
		},
		{
			"bufferView":14,
			"componentType":5126,
			"count":2,
			"type":"VEC3"
		},
		{
			"bufferView":15,
			"componentType":5126,
			"count":50,
			"max":[
				1.6666666666666667
			],
			"min":[
				0.03333333333333333
			],
			"type":"SCALAR"
		},
		{
			"bufferView":16,
			"componentType":5126,
			"count":50,
			"type":"VEC4"
		},
		{
			"bufferView":17,
			"componentType":5126,
			"count":2,
			"type":"VEC3"
		},
		{
			"bufferView":18,
			"componentType":5126,
			"count":2,
			"type":"VEC3"
		},
		{
			"bufferView":19,
			"componentType":5126,
			"count":50,
			"type":"VEC4"
		},
		{
			"bufferView":20,
			"componentType":5126,
			"count":2,
			"type":"VEC3"
		},
		{
			"bufferView":21,
			"componentType":5126,
			"count":2,
			"type":"VEC3"
		},
		{
			"bufferView":22,
			"componentType":5126,
			"count":50,
			"type":"VEC4"
		},
		{
			"bufferView":23,
			"componentType":5126,
			"count":2,
			"type":"VEC3"
		},
		{
			"bufferView":24,
			"componentType":5126,
			"count":2,
			"type":"VEC3"
		},
		{
			"bufferView":25,
			"componentType":5126,
			"count":50,
			"type":"VEC4"
		},
		{
			"bufferView":26,
			"componentType":5126,
			"count":2,
			"type":"VEC3"
		},
		{
			"bufferView":27,
			"componentType":5126,
			"count":2,
			"type":"VEC3"
		},
		{
			"bufferView":28,
			"componentType":5126,
			"count":50,
			"type":"VEC4"
		},
		{
			"bufferView":29,
			"componentType":5126,
			"count":2,
			"type":"VEC3"
		},
		{
			"bufferView":30,
			"componentType":5126,
			"count":2,
			"type":"VEC3"
		},
		{
			"bufferView":31,
			"componentType":5126,
			"count":50,
			"type":"VEC4"
		},
		{
			"bufferView":32,
			"componentType":5126,
			"count":2,
			"type":"VEC3"
		},
		{
			"bufferView":33,
			"componentType":5126,
			"count":2,
			"type":"VEC3"
		},
		{
			"bufferView":34,
			"componentType":5126,
			"count":2,
			"type":"VEC4"
		},
		{
			"bufferView":35,
			"componentType":5126,
			"count":2,
			"type":"VEC3"
		},
		{
			"bufferView":36,
			"componentType":5126,
			"count":2,
			"type":"VEC3"
		},
		{
			"bufferView":37,
			"componentType":5126,
			"count":50,
			"type":"VEC4"
		},
		{
			"bufferView":38,
			"componentType":5126,
			"count":2,
			"type":"VEC3"
		},
		{
			"bufferView":39,
			"componentType":5126,
			"count":2,
			"type":"VEC3"
		},
		{
			"bufferView":40,
			"componentType":5126,
			"count":50,
			"type":"VEC4"
		},
		{
			"bufferView":41,
			"componentType":5126,
			"count":2,
			"type":"VEC3"
		},
		{
			"bufferView":42,
			"componentType":5126,
			"count":2,
			"type":"VEC3"
		},
		{
			"bufferView":43,
			"componentType":5126,
			"count":50,
			"type":"VEC4"
		},
		{
			"bufferView":44,
			"componentType":5126,
			"count":2,
			"type":"VEC3"
		},
		{
			"bufferView":45,
			"componentType":5126,
			"count":2,
			"type":"VEC3"
		},
		{
			"bufferView":46,
			"componentType":5126,
			"count":50,
			"type":"VEC4"
		},
		{
			"bufferView":47,
			"componentType":5126,
			"count":2,
			"type":"VEC3"
		},
		{
			"bufferView":48,
			"componentType":5126,
			"count":2,
			"type":"VEC3"
		},
		{
			"bufferView":49,
			"componentType":5126,
			"count":2,
			"type":"VEC4"
		},
		{
			"bufferView":50,
			"componentType":5126,
			"count":2,
			"type":"VEC3"
		},
		{
			"bufferView":51,
			"componentType":5126,
			"count":2,
			"type":"VEC3"
		},
		{
			"bufferView":52,
			"componentType":5126,
			"count":50,
			"type":"VEC4"
		},
		{
			"bufferView":53,
			"componentType":5126,
			"count":2,
			"type":"VEC3"
		},
		{
			"bufferView":54,
			"componentType":5126,
			"count":2,
			"type":"VEC3"
		},
		{
			"bufferView":55,
			"componentType":5126,
			"count":50,
			"type":"VEC4"
		},
		{
			"bufferView":56,
			"componentType":5126,
			"count":2,
			"type":"VEC3"
		},
		{
			"bufferView":57,
			"componentType":5126,
			"count":2,
			"type":"VEC3"
		},
		{
			"bufferView":58,
			"componentType":5126,
			"count":2,
			"type":"VEC4"
		},
		{
			"bufferView":59,
			"componentType":5126,
			"count":2,
			"type":"VEC3"
		},
		{
			"bufferView":60,
			"componentType":5126,
			"count":2,
			"type":"VEC3"
		},
		{
			"bufferView":61,
			"componentType":5126,
			"count":50,
			"type":"VEC4"
		},
		{
			"bufferView":62,
			"componentType":5126,
			"count":2,
			"type":"VEC3"
		},
		{
			"bufferView":63,
			"componentType":5126,
			"count":2,
			"type":"VEC3"
		},
		{
			"bufferView":64,
			"componentType":5126,
			"count":50,
			"type":"VEC4"
		},
		{
			"bufferView":65,
			"componentType":5126,
			"count":2,
			"type":"VEC3"
		},
		{
			"bufferView":66,
			"componentType":5126,
			"count":2,
			"type":"VEC3"
		},
		{
			"bufferView":67,
			"componentType":5126,
			"count":50,
			"type":"VEC4"
		},
		{
			"bufferView":68,
			"componentType":5126,
			"count":2,
			"type":"VEC3"
		},
		{
			"bufferView":69,
			"componentType":5126,
			"count":2,
			"type":"VEC3"
		},
		{
			"bufferView":70,
			"componentType":5126,
			"count":2,
			"type":"VEC4"
		},
		{
			"bufferView":71,
			"componentType":5126,
			"count":2,
			"type":"VEC3"
		},
		{
			"bufferView":72,
			"componentType":5126,
			"count":2,
			"type":"VEC3"
		},
		{
			"bufferView":73,
			"componentType":5126,
			"count":50,
			"type":"VEC4"
		},
		{
			"bufferView":74,
			"componentType":5126,
			"count":2,
			"type":"VEC3"
		},
		{
			"bufferView":75,
			"componentType":5126,
			"count":2,
			"type":"VEC3"
		},
		{
			"bufferView":76,
			"componentType":5126,
			"count":50,
			"type":"VEC4"
		},
		{
			"bufferView":77,
			"componentType":5126,
			"count":2,
			"type":"VEC3"
		},
		{
			"bufferView":78,
			"componentType":5126,
			"count":2,
			"type":"VEC3"
		},
		{
			"bufferView":79,
			"componentType":5126,
			"count":50,
			"type":"VEC4"
		},
		{
			"bufferView":80,
			"componentType":5126,
			"count":2,
			"type":"VEC3"
		},
		{
			"bufferView":81,
			"componentType":5126,
			"count":2,
			"type":"VEC3"
		},
		{
			"bufferView":82,
			"componentType":5126,
			"count":2,
			"type":"VEC4"
		},
		{
			"bufferView":83,
			"componentType":5126,
			"count":2,
			"type":"VEC3"
		},
		{
			"bufferView":84,
			"componentType":5126,
			"count":2,
			"type":"VEC3"
		},
		{
			"bufferView":85,
			"componentType":5126,
			"count":50,
			"type":"VEC4"
		},
		{
			"bufferView":86,
			"componentType":5126,
			"count":2,
			"type":"VEC3"
		},
		{
			"bufferView":87,
			"componentType":5126,
			"count":2,
			"type":"VEC3"
		},
		{
			"bufferView":88,
			"componentType":5126,
			"count":50,
			"type":"VEC4"
		},
		{
			"bufferView":89,
			"componentType":5126,
			"count":2,
			"type":"VEC3"
		},
		{
			"bufferView":90,
			"componentType":5126,
			"count":2,
			"type":"VEC3"
		},
		{
			"bufferView":91,
			"componentType":5126,
			"count":50,
			"type":"VEC4"
		},
		{
			"bufferView":92,
			"componentType":5126,
			"count":2,
			"type":"VEC3"
		},
		{
			"bufferView":93,
			"componentType":5126,
			"count":2,
			"type":"VEC3"
		},
		{
			"bufferView":94,
			"componentType":5126,
			"count":2,
			"type":"VEC4"
		},
		{
			"bufferView":95,
			"componentType":5126,
			"count":2,
			"type":"VEC3"
		},
		{
			"bufferView":96,
			"componentType":5126,
			"count":2,
			"type":"VEC3"
		},
		{
			"bufferView":97,
			"componentType":5126,
			"count":50,
			"type":"VEC4"
		},
		{
			"bufferView":98,
			"componentType":5126,
			"count":2,
			"type":"VEC3"
		},
		{
			"bufferView":99,
			"componentType":5126,
			"count":2,
			"type":"VEC3"
		},
		{
			"bufferView":100,
			"componentType":5126,
			"count":50,
			"type":"VEC4"
		},
		{
			"bufferView":101,
			"componentType":5126,
			"count":2,
			"type":"VEC3"
		},
		{
			"bufferView":102,
			"componentType":5126,
			"count":2,
			"type":"VEC3"
		},
		{
			"bufferView":103,
			"componentType":5126,
			"count":50,
			"type":"VEC4"
		},
		{
			"bufferView":104,
			"componentType":5126,
			"count":2,
			"type":"VEC3"
		},
		{
			"bufferView":105,
			"componentType":5126,
			"count":2,
			"type":"VEC3"
		},
		{
			"bufferView":106,
			"componentType":5126,
			"count":2,
			"type":"VEC4"
		},
		{
			"bufferView":107,
			"componentType":5126,
			"count":2,
			"type":"VEC3"
		},
		{
			"bufferView":108,
			"componentType":5126,
			"count":2,
			"type":"VEC3"
		},
		{
			"bufferView":109,
			"componentType":5126,
			"count":50,
			"type":"VEC4"
		},
		{
			"bufferView":110,
			"componentType":5126,
			"count":2,
			"type":"VEC3"
		},
		{
			"bufferView":111,
			"componentType":5126,
			"count":2,
			"type":"VEC3"
		},
		{
			"bufferView":112,
			"componentType":5126,
			"count":50,
			"type":"VEC4"
		},
		{
			"bufferView":113,
			"componentType":5126,
			"count":2,
			"type":"VEC3"
		},
		{
			"bufferView":114,
			"componentType":5126,
			"count":2,
			"type":"VEC3"
		},
		{
			"bufferView":115,
			"componentType":5126,
			"count":50,
			"type":"VEC4"
		},
		{
			"bufferView":116,
			"componentType":5126,
			"count":2,
			"type":"VEC3"
		},
		{
			"bufferView":117,
			"componentType":5126,
			"count":2,
			"type":"VEC3"
		},
		{
			"bufferView":118,
			"componentType":5126,
			"count":50,
			"type":"VEC4"
		},
		{
			"bufferView":119,
			"componentType":5126,
			"count":2,
			"type":"VEC3"
		},
		{
			"bufferView":120,
			"componentType":5126,
			"count":2,
			"type":"VEC3"
		},
		{
			"bufferView":121,
			"componentType":5126,
			"count":2,
			"type":"VEC4"
		},
		{
			"bufferView":122,
			"componentType":5126,
			"count":2,
			"type":"VEC3"
		},
		{
			"bufferView":123,
			"componentType":5126,
			"count":2,
			"type":"VEC3"
		},
		{
			"bufferView":124,
			"componentType":5126,
			"count":50,
			"type":"VEC4"
		},
		{
			"bufferView":125,
			"componentType":5126,
			"count":2,
			"type":"VEC3"
		},
		{
			"bufferView":126,
			"componentType":5126,
			"count":2,
			"type":"VEC3"
		},
		{
			"bufferView":127,
			"componentType":5126,
			"count":50,
			"type":"VEC4"
		},
		{
			"bufferView":128,
			"componentType":5126,
			"count":2,
			"type":"VEC3"
		},
		{
			"bufferView":129,
			"componentType":5126,
			"count":2,
			"type":"VEC3"
		},
		{
			"bufferView":130,
			"componentType":5126,
			"count":2,
			"type":"VEC4"
		},
		{
			"bufferView":131,
			"componentType":5126,
			"count":2,
			"type":"VEC3"
		},
		{
			"bufferView":132,
			"componentType":5126,
			"count":2,
			"type":"VEC3"
		},
		{
			"bufferView":133,
			"componentType":5126,
			"count":50,
			"type":"VEC4"
		},
		{
			"bufferView":134,
			"componentType":5126,
			"count":2,
			"type":"VEC3"
		},
		{
			"bufferView":135,
			"componentType":5126,
			"count":2,
			"type":"VEC3"
		},
		{
			"bufferView":136,
			"componentType":5126,
			"count":50,
			"type":"VEC4"
		},
		{
			"bufferView":137,
			"componentType":5126,
			"count":2,
			"type":"VEC3"
		},
		{
			"bufferView":138,
			"componentType":5126,
			"count":2,
			"type":"VEC3"
		},
		{
			"bufferView":139,
			"componentType":5126,
			"count":50,
			"type":"VEC4"
		},
		{
			"bufferView":140,
			"componentType":5126,
			"count":2,
			"type":"VEC3"
		},
		{
			"bufferView":141,
			"componentType":5126,
			"count":2,
			"type":"VEC3"
		},
		{
			"bufferView":142,
			"componentType":5126,
			"count":2,
			"type":"VEC4"
		},
		{
			"bufferView":143,
			"componentType":5126,
			"count":2,
			"type":"VEC3"
		},
		{
			"bufferView":144,
			"componentType":5126,
			"count":2,
			"type":"VEC3"
		},
		{
			"bufferView":145,
			"componentType":5126,
			"count":50,
			"type":"VEC4"
		},
		{
			"bufferView":146,
			"componentType":5126,
			"count":2,
			"type":"VEC3"
		},
		{
			"bufferView":147,
			"componentType":5126,
			"count":2,
			"type":"VEC3"
		},
		{
			"bufferView":148,
			"componentType":5126,
			"count":50,
			"type":"VEC4"
		},
		{
			"bufferView":149,
			"componentType":5126,
			"count":2,
			"type":"VEC3"
		},
		{
			"bufferView":150,
			"componentType":5126,
			"count":2,
			"type":"VEC3"
		},
		{
			"bufferView":151,
			"componentType":5126,
			"count":50,
			"type":"VEC4"
		},
		{
			"bufferView":152,
			"componentType":5126,
			"count":2,
			"type":"VEC3"
		},
		{
			"bufferView":153,
			"componentType":5126,
			"count":2,
			"type":"VEC3"
		},
		{
			"bufferView":154,
			"componentType":5126,
			"count":2,
			"type":"VEC4"
		},
		{
			"bufferView":155,
			"componentType":5126,
			"count":2,
			"type":"VEC3"
		},
		{
			"bufferView":156,
			"componentType":5126,
			"count":2,
			"type":"VEC3"
		},
		{
			"bufferView":157,
			"componentType":5126,
			"count":50,
			"type":"VEC4"
		},
		{
			"bufferView":158,
			"componentType":5126,
			"count":2,
			"type":"VEC3"
		},
		{
			"bufferView":159,
			"componentType":5126,
			"count":2,
			"type":"VEC3"
		},
		{
			"bufferView":160,
			"componentType":5126,
			"count":50,
			"type":"VEC4"
		},
		{
			"bufferView":161,
			"componentType":5126,
			"count":2,
			"type":"VEC3"
		},
		{
			"bufferView":162,
			"componentType":5126,
			"count":2,
			"type":"VEC3"
		},
		{
			"bufferView":163,
			"componentType":5126,
			"count":50,
			"type":"VEC4"
		},
		{
			"bufferView":164,
			"componentType":5126,
			"count":2,
			"type":"VEC3"
		},
		{
			"bufferView":165,
			"componentType":5126,
			"count":2,
			"type":"VEC3"
		},
		{
			"bufferView":166,
			"componentType":5126,
			"count":2,
			"type":"VEC4"
		},
		{
			"bufferView":167,
			"componentType":5126,
			"count":2,
			"type":"VEC3"
		},
		{
			"bufferView":168,
			"componentType":5126,
			"count":2,
			"type":"VEC3"
		},
		{
			"bufferView":169,
			"componentType":5126,
			"count":50,
			"type":"VEC4"
		},
		{
			"bufferView":170,
			"componentType":5126,
			"count":2,
			"type":"VEC3"
		},
		{
			"bufferView":171,
			"componentType":5126,
			"count":2,
			"type":"VEC3"
		},
		{
			"bufferView":172,
			"componentType":5126,
			"count":50,
			"type":"VEC4"
		},
		{
			"bufferView":173,
			"componentType":5126,
			"count":2,
			"type":"VEC3"
		},
		{
			"bufferView":174,
			"componentType":5126,
			"count":2,
			"type":"VEC3"
		},
		{
			"bufferView":175,
			"componentType":5126,
			"count":50,
			"type":"VEC4"
		},
		{
			"bufferView":176,
			"componentType":5126,
			"count":2,
			"type":"VEC3"
		},
		{
			"bufferView":177,
			"componentType":5126,
			"count":2,
			"type":"VEC3"
		},
		{
			"bufferView":178,
			"componentType":5126,
			"count":2,
			"type":"VEC4"
		},
		{
			"bufferView":179,
			"componentType":5126,
			"count":2,
			"type":"VEC3"
		},
		{
			"bufferView":180,
			"componentType":5126,
			"count":2,
			"type":"VEC3"
		},
		{
			"bufferView":181,
			"componentType":5126,
			"count":50,
			"type":"VEC4"
		},
		{
			"bufferView":182,
			"componentType":5126,
			"count":2,
			"type":"VEC3"
		},
		{
			"bufferView":183,
			"componentType":5126,
			"count":2,
			"type":"VEC3"
		},
		{
			"bufferView":184,
			"componentType":5126,
			"count":50,
			"type":"VEC4"
		},
		{
			"bufferView":185,
			"componentType":5126,
			"count":2,
			"type":"VEC3"
		},
		{
			"bufferView":186,
			"componentType":5126,
			"count":2,
			"type":"VEC3"
		},
		{
			"bufferView":187,
			"componentType":5126,
			"count":50,
			"type":"VEC4"
		},
		{
			"bufferView":188,
			"componentType":5126,
			"count":2,
			"type":"VEC3"
		},
		{
			"bufferView":189,
			"componentType":5126,
			"count":2,
			"type":"VEC3"
		},
		{
			"bufferView":190,
			"componentType":5126,
			"count":50,
			"type":"VEC4"
		},
		{
			"bufferView":191,
			"componentType":5126,
			"count":2,
			"type":"VEC3"
		},
		{
			"bufferView":192,
			"componentType":5126,
			"count":2,
			"type":"VEC3"
		},
		{
			"bufferView":193,
			"componentType":5126,
			"count":2,
			"type":"VEC4"
		},
		{
			"bufferView":194,
			"componentType":5126,
			"count":2,
			"type":"VEC3"
		},
		{
			"bufferView":195,
			"componentType":5126,
			"count":2,
			"type":"VEC3"
		},
		{
			"bufferView":196,
			"componentType":5126,
			"count":50,
			"type":"VEC4"
		},
		{
			"bufferView":197,
			"componentType":5126,
			"count":2,
			"type":"VEC3"
		},
		{
			"bufferView":198,
			"componentType":5126,
			"count":2,
			"type":"VEC3"
		},
		{
			"bufferView":199,
			"componentType":5126,
			"count":50,
			"type":"VEC4"
		},
		{
			"bufferView":200,
			"componentType":5126,
			"count":2,
			"type":"VEC3"
		},
		{
			"bufferView":201,
			"componentType":5126,
			"count":2,
			"type":"VEC3"
		},
		{
			"bufferView":202,
			"componentType":5126,
			"count":50,
			"type":"VEC4"
		},
		{
			"bufferView":203,
			"componentType":5126,
			"count":2,
			"type":"VEC3"
		},
		{
			"bufferView":204,
			"componentType":5126,
			"count":2,
			"type":"VEC3"
		},
		{
			"bufferView":205,
			"componentType":5126,
			"count":50,
			"type":"VEC4"
		},
		{
			"bufferView":206,
			"componentType":5126,
			"count":2,
			"type":"VEC3"
		},
		{
			"bufferView":207,
			"componentType":5126,
			"count":2,
			"type":"VEC3"
		},
		{
			"bufferView":208,
			"componentType":5126,
			"count":2,
			"type":"VEC4"
		},
		{
			"bufferView":209,
			"componentType":5126,
			"count":2,
			"type":"VEC3"
		}
	],
	"bufferViews":[
		{
			"buffer":0,
			"byteLength":149676,
			"byteOffset":0,
			"target":34962
		},
		{
			"buffer":0,
			"byteLength":149676,
			"byteOffset":149676,
			"target":34962
		},
		{
			"buffer":0,
			"byteLength":99784,
			"byteOffset":299352,
			"target":34962
		},
		{
			"buffer":0,
			"byteLength":49892,
			"byteOffset":399136,
			"target":34962
		},
		{
			"buffer":0,
			"byteLength":199568,
			"byteOffset":449028,
			"target":34962
		},
		{
			"buffer":0,
			"byteLength":125040,
			"byteOffset":648596,
			"target":34963
		},
		{
			"buffer":0,
			"byteLength":4160,
			"byteOffset":773636
		},
		{
			"buffer":0,
			"byteLength":190812,
			"byteOffset":777796,
			"target":34962
		},
		{
			"buffer":0,
			"byteLength":190812,
			"byteOffset":968608,
			"target":34962
		},
		{
			"buffer":0,
			"byteLength":127208,
			"byteOffset":1159420,
			"target":34962
		},
		{
			"buffer":0,
			"byteLength":63604,
			"byteOffset":1286628,
			"target":34962
		},
		{
			"buffer":0,
			"byteLength":254416,
			"byteOffset":1350232,
			"target":34962
		},
		{
			"buffer":0,
			"byteLength":169632,
			"byteOffset":1604648,
			"target":34963
		},
		{
			"buffer":0,
			"byteLength":8,
			"byteOffset":1774280
		},
		{
			"buffer":0,
			"byteLength":24,
			"byteOffset":1774288
		},
		{
			"buffer":0,
			"byteLength":200,
			"byteOffset":1774312
		},
		{
			"buffer":0,
			"byteLength":800,
			"byteOffset":1774512
		},
		{
			"buffer":0,
			"byteLength":24,
			"byteOffset":1775312
		},
		{
			"buffer":0,
			"byteLength":24,
			"byteOffset":1775336
		},
		{
			"buffer":0,
			"byteLength":800,
			"byteOffset":1775360
		},
		{
			"buffer":0,
			"byteLength":24,
			"byteOffset":1776160
		},
		{
			"buffer":0,
			"byteLength":24,
			"byteOffset":1776184
		},
		{
			"buffer":0,
			"byteLength":800,
			"byteOffset":1776208
		},
		{
			"buffer":0,
			"byteLength":24,
			"byteOffset":1777008
		},
		{
			"buffer":0,
			"byteLength":24,
			"byteOffset":1777032
		},
		{
			"buffer":0,
			"byteLength":800,
			"byteOffset":1777056
		},
		{
			"buffer":0,
			"byteLength":24,
			"byteOffset":1777856
		},
		{
			"buffer":0,
			"byteLength":24,
			"byteOffset":1777880
		},
		{
			"buffer":0,
			"byteLength":800,
			"byteOffset":1777904
		},
		{
			"buffer":0,
			"byteLength":24,
			"byteOffset":1778704
		},
		{
			"buffer":0,
			"byteLength":24,
			"byteOffset":1778728
		},
		{
			"buffer":0,
			"byteLength":800,
			"byteOffset":1778752
		},
		{
			"buffer":0,
			"byteLength":24,
			"byteOffset":1779552
		},
		{
			"buffer":0,
			"byteLength":24,
			"byteOffset":1779576
		},
		{
			"buffer":0,
			"byteLength":32,
			"byteOffset":1779600
		},
		{
			"buffer":0,
			"byteLength":24,
			"byteOffset":1779632
		},
		{
			"buffer":0,
			"byteLength":24,
			"byteOffset":1779656
		},
		{
			"buffer":0,
			"byteLength":800,
			"byteOffset":1779680
		},
		{
			"buffer":0,
			"byteLength":24,
			"byteOffset":1780480
		},
		{
			"buffer":0,
			"byteLength":24,
			"byteOffset":1780504
		},
		{
			"buffer":0,
			"byteLength":800,
			"byteOffset":1780528
		},
		{
			"buffer":0,
			"byteLength":24,
			"byteOffset":1781328
		},
		{
			"buffer":0,
			"byteLength":24,
			"byteOffset":1781352
		},
		{
			"buffer":0,
			"byteLength":800,
			"byteOffset":1781376
		},
		{
			"buffer":0,
			"byteLength":24,
			"byteOffset":1782176
		},
		{
			"buffer":0,
			"byteLength":24,
			"byteOffset":1782200
		},
		{
			"buffer":0,
			"byteLength":800,
			"byteOffset":1782224
		},
		{
			"buffer":0,
			"byteLength":24,
			"byteOffset":1783024
		},
		{
			"buffer":0,
			"byteLength":24,
			"byteOffset":1783048
		},
		{
			"buffer":0,
			"byteLength":32,
			"byteOffset":1783072
		},
		{
			"buffer":0,
			"byteLength":24,
			"byteOffset":1783104
		},
		{
			"buffer":0,
			"byteLength":24,
			"byteOffset":1783128
		},
		{
			"buffer":0,
			"byteLength":800,
			"byteOffset":1783152
		},
		{
			"buffer":0,
			"byteLength":24,
			"byteOffset":1783952
		},
		{
			"buffer":0,
			"byteLength":24,
			"byteOffset":1783976
		},
		{
			"buffer":0,
			"byteLength":800,
			"byteOffset":1784000
		},
		{
			"buffer":0,
			"byteLength":24,
			"byteOffset":1784800
		},
		{
			"buffer":0,
			"byteLength":24,
			"byteOffset":1784824
		},
		{
			"buffer":0,
			"byteLength":32,
			"byteOffset":1784848
		},
		{
			"buffer":0,
			"byteLength":24,
			"byteOffset":1784880
		},
		{
			"buffer":0,
			"byteLength":24,
			"byteOffset":1784904
		},
		{
			"buffer":0,
			"byteLength":800,
			"byteOffset":1784928
		},
		{
			"buffer":0,
			"byteLength":24,
			"byteOffset":1785728
		},
		{
			"buffer":0,
			"byteLength":24,
			"byteOffset":1785752
		},
		{
			"buffer":0,
			"byteLength":800,
			"byteOffset":1785776
		},
		{
			"buffer":0,
			"byteLength":24,
			"byteOffset":1786576
		},
		{
			"buffer":0,
			"byteLength":24,
			"byteOffset":1786600
		},
		{
			"buffer":0,
			"byteLength":800,
			"byteOffset":1786624
		},
		{
			"buffer":0,
			"byteLength":24,
			"byteOffset":1787424
		},
		{
			"buffer":0,
			"byteLength":24,
			"byteOffset":1787448
		},
		{
			"buffer":0,
			"byteLength":32,
			"byteOffset":1787472
		},
		{
			"buffer":0,
			"byteLength":24,
			"byteOffset":1787504
		},
		{
			"buffer":0,
			"byteLength":24,
			"byteOffset":1787528
		},
		{
			"buffer":0,
			"byteLength":800,
			"byteOffset":1787552
		},
		{
			"buffer":0,
			"byteLength":24,
			"byteOffset":1788352
		},
		{
			"buffer":0,
			"byteLength":24,
			"byteOffset":1788376
		},
		{
			"buffer":0,
			"byteLength":800,
			"byteOffset":1788400
		},
		{
			"buffer":0,
			"byteLength":24,
			"byteOffset":1789200
		},
		{
			"buffer":0,
			"byteLength":24,
			"byteOffset":1789224
		},
		{
			"buffer":0,
			"byteLength":800,
			"byteOffset":1789248
		},
		{
			"buffer":0,
			"byteLength":24,
			"byteOffset":1790048
		},
		{
			"buffer":0,
			"byteLength":24,
			"byteOffset":1790072
		},
		{
			"buffer":0,
			"byteLength":32,
			"byteOffset":1790096
		},
		{
			"buffer":0,
			"byteLength":24,
			"byteOffset":1790128
		},
		{
			"buffer":0,
			"byteLength":24,
			"byteOffset":1790152
		},
		{
			"buffer":0,
			"byteLength":800,
			"byteOffset":1790176
		},
		{
			"buffer":0,
			"byteLength":24,
			"byteOffset":1790976
		},
		{
			"buffer":0,
			"byteLength":24,
			"byteOffset":1791000
		},
		{
			"buffer":0,
			"byteLength":800,
			"byteOffset":1791024
		},
		{
			"buffer":0,
			"byteLength":24,
			"byteOffset":1791824
		},
		{
			"buffer":0,
			"byteLength":24,
			"byteOffset":1791848
		},
		{
			"buffer":0,
			"byteLength":800,
			"byteOffset":1791872
		},
		{
			"buffer":0,
			"byteLength":24,
			"byteOffset":1792672
		},
		{
			"buffer":0,
			"byteLength":24,
			"byteOffset":1792696
		},
		{
			"buffer":0,
			"byteLength":32,
			"byteOffset":1792720
		},
		{
			"buffer":0,
			"byteLength":24,
			"byteOffset":1792752
		},
		{
			"buffer":0,
			"byteLength":24,
			"byteOffset":1792776
		},
		{
			"buffer":0,
			"byteLength":800,
			"byteOffset":1792800
		},
		{
			"buffer":0,
			"byteLength":24,
			"byteOffset":1793600
		},
		{
			"buffer":0,
			"byteLength":24,
			"byteOffset":1793624
		},
		{
			"buffer":0,
			"byteLength":800,
			"byteOffset":1793648
		},
		{
			"buffer":0,
			"byteLength":24,
			"byteOffset":1794448
		},
		{
			"buffer":0,
			"byteLength":24,
			"byteOffset":1794472
		},
		{
			"buffer":0,
			"byteLength":800,
			"byteOffset":1794496
		},
		{
			"buffer":0,
			"byteLength":24,
			"byteOffset":1795296
		},
		{
			"buffer":0,
			"byteLength":24,
			"byteOffset":1795320
		},
		{
			"buffer":0,
			"byteLength":32,
			"byteOffset":1795344
		},
		{
			"buffer":0,
			"byteLength":24,
			"byteOffset":1795376
		},
		{
			"buffer":0,
			"byteLength":24,
			"byteOffset":1795400
		},
		{
			"buffer":0,
			"byteLength":800,
			"byteOffset":1795424
		},
		{
			"buffer":0,
			"byteLength":24,
			"byteOffset":1796224
		},
		{
			"buffer":0,
			"byteLength":24,
			"byteOffset":1796248
		},
		{
			"buffer":0,
			"byteLength":800,
			"byteOffset":1796272
		},
		{
			"buffer":0,
			"byteLength":24,
			"byteOffset":1797072
		},
		{
			"buffer":0,
			"byteLength":24,
			"byteOffset":1797096
		},
		{
			"buffer":0,
			"byteLength":800,
			"byteOffset":1797120
		},
		{
			"buffer":0,
			"byteLength":24,
			"byteOffset":1797920
		},
		{
			"buffer":0,
			"byteLength":24,
			"byteOffset":1797944
		},
		{
			"buffer":0,
			"byteLength":800,
			"byteOffset":1797968
		},
		{
			"buffer":0,
			"byteLength":24,
			"byteOffset":1798768
		},
		{
			"buffer":0,
			"byteLength":24,
			"byteOffset":1798792
		},
		{
			"buffer":0,
			"byteLength":32,
			"byteOffset":1798816
		},
		{
			"buffer":0,
			"byteLength":24,
			"byteOffset":1798848
		},
		{
			"buffer":0,
			"byteLength":24,
			"byteOffset":1798872
		},
		{
			"buffer":0,
			"byteLength":800,
			"byteOffset":1798896
		},
		{
			"buffer":0,
			"byteLength":24,
			"byteOffset":1799696
		},
		{
			"buffer":0,
			"byteLength":24,
			"byteOffset":1799720
		},
		{
			"buffer":0,
			"byteLength":800,
			"byteOffset":1799744
		},
		{
			"buffer":0,
			"byteLength":24,
			"byteOffset":1800544
		},
		{
			"buffer":0,
			"byteLength":24,
			"byteOffset":1800568
		},
		{
			"buffer":0,
			"byteLength":32,
			"byteOffset":1800592
		},
		{
			"buffer":0,
			"byteLength":24,
			"byteOffset":1800624
		},
		{
			"buffer":0,
			"byteLength":24,
			"byteOffset":1800648
		},
		{
			"buffer":0,
			"byteLength":800,
			"byteOffset":1800672
		},
		{
			"buffer":0,
			"byteLength":24,
			"byteOffset":1801472
		},
		{
			"buffer":0,
			"byteLength":24,
			"byteOffset":1801496
		},
		{
			"buffer":0,
			"byteLength":800,
			"byteOffset":1801520
		},
		{
			"buffer":0,
			"byteLength":24,
			"byteOffset":1802320
		},
		{
			"buffer":0,
			"byteLength":24,
			"byteOffset":1802344
		},
		{
			"buffer":0,
			"byteLength":800,
			"byteOffset":1802368
		},
		{
			"buffer":0,
			"byteLength":24,
			"byteOffset":1803168
		},
		{
			"buffer":0,
			"byteLength":24,
			"byteOffset":1803192
		},
		{
			"buffer":0,
			"byteLength":32,
			"byteOffset":1803216
		},
		{
			"buffer":0,
			"byteLength":24,
			"byteOffset":1803248
		},
		{
			"buffer":0,
			"byteLength":24,
			"byteOffset":1803272
		},
		{
			"buffer":0,
			"byteLength":800,
			"byteOffset":1803296
		},
		{
			"buffer":0,
			"byteLength":24,
			"byteOffset":1804096
		},
		{
			"buffer":0,
			"byteLength":24,
			"byteOffset":1804120
		},
		{
			"buffer":0,
			"byteLength":800,
			"byteOffset":1804144
		},
		{
			"buffer":0,
			"byteLength":24,
			"byteOffset":1804944
		},
		{
			"buffer":0,
			"byteLength":24,
			"byteOffset":1804968
		},
		{
			"buffer":0,
			"byteLength":800,
			"byteOffset":1804992
		},
		{
			"buffer":0,
			"byteLength":24,
			"byteOffset":1805792
		},
		{
			"buffer":0,
			"byteLength":24,
			"byteOffset":1805816
		},
		{
			"buffer":0,
			"byteLength":32,
			"byteOffset":1805840
		},
		{
			"buffer":0,
			"byteLength":24,
			"byteOffset":1805872
		},
		{
			"buffer":0,
			"byteLength":24,
			"byteOffset":1805896
		},
		{
			"buffer":0,
			"byteLength":800,
			"byteOffset":1805920
		},
		{
			"buffer":0,
			"byteLength":24,
			"byteOffset":1806720
		},
		{
			"buffer":0,
			"byteLength":24,
			"byteOffset":1806744
		},
		{
			"buffer":0,
			"byteLength":800,
			"byteOffset":1806768
		},
		{
			"buffer":0,
			"byteLength":24,
			"byteOffset":1807568
		},
		{
			"buffer":0,
			"byteLength":24,
			"byteOffset":1807592
		},
		{
			"buffer":0,
			"byteLength":800,
			"byteOffset":1807616
		},
		{
			"buffer":0,
			"byteLength":24,
			"byteOffset":1808416
		},
		{
			"buffer":0,
			"byteLength":24,
			"byteOffset":1808440
		},
		{
			"buffer":0,
			"byteLength":32,
			"byteOffset":1808464
		},
		{
			"buffer":0,
			"byteLength":24,
			"byteOffset":1808496
		},
		{
			"buffer":0,
			"byteLength":24,
			"byteOffset":1808520
		},
		{
			"buffer":0,
			"byteLength":800,
			"byteOffset":1808544
		},
		{
			"buffer":0,
			"byteLength":24,
			"byteOffset":1809344
		},
		{
			"buffer":0,
			"byteLength":24,
			"byteOffset":1809368
		},
		{
			"buffer":0,
			"byteLength":800,
			"byteOffset":1809392
		},
		{
			"buffer":0,
			"byteLength":24,
			"byteOffset":1810192
		},
		{
			"buffer":0,
			"byteLength":24,
			"byteOffset":1810216
		},
		{
			"buffer":0,
			"byteLength":800,
			"byteOffset":1810240
		},
		{
			"buffer":0,
			"byteLength":24,
			"byteOffset":1811040
		},
		{
			"buffer":0,
			"byteLength":24,
			"byteOffset":1811064
		},
		{
			"buffer":0,
			"byteLength":32,
			"byteOffset":1811088
		},
		{
			"buffer":0,
			"byteLength":24,
			"byteOffset":1811120
		},
		{
			"buffer":0,
			"byteLength":24,
			"byteOffset":1811144
		},
		{
			"buffer":0,
			"byteLength":800,
			"byteOffset":1811168
		},
		{
			"buffer":0,
			"byteLength":24,
			"byteOffset":1811968
		},
		{
			"buffer":0,
			"byteLength":24,
			"byteOffset":1811992
		},
		{
			"buffer":0,
			"byteLength":800,
			"byteOffset":1812016
		},
		{
			"buffer":0,
			"byteLength":24,
			"byteOffset":1812816
		},
		{
			"buffer":0,
			"byteLength":24,
			"byteOffset":1812840
		},
		{
			"buffer":0,
			"byteLength":800,
			"byteOffset":1812864
		},
		{
			"buffer":0,
			"byteLength":24,
			"byteOffset":1813664
		},
		{
			"buffer":0,
			"byteLength":24,
			"byteOffset":1813688
		},
		{
			"buffer":0,
			"byteLength":800,
			"byteOffset":1813712
		},
		{
			"buffer":0,
			"byteLength":24,
			"byteOffset":1814512
		},
		{
			"buffer":0,
			"byteLength":24,
			"byteOffset":1814536
		},
		{
			"buffer":0,
			"byteLength":32,
			"byteOffset":1814560
		},
		{
			"buffer":0,
			"byteLength":24,
			"byteOffset":1814592
		},
		{
			"buffer":0,
			"byteLength":24,
			"byteOffset":1814616
		},
		{
			"buffer":0,
			"byteLength":800,
			"byteOffset":1814640
		},
		{
			"buffer":0,
			"byteLength":24,
			"byteOffset":1815440
		},
		{
			"buffer":0,
			"byteLength":24,
			"byteOffset":1815464
		},
		{
			"buffer":0,
			"byteLength":800,
			"byteOffset":1815488
		},
		{
			"buffer":0,
			"byteLength":24,
			"byteOffset":1816288
		},
		{
			"buffer":0,
			"byteLength":24,
			"byteOffset":1816312
		},
		{
			"buffer":0,
			"byteLength":800,
			"byteOffset":1816336
		},
		{
			"buffer":0,
			"byteLength":24,
			"byteOffset":1817136
		},
		{
			"buffer":0,
			"byteLength":24,
			"byteOffset":1817160
		},
		{
			"buffer":0,
			"byteLength":800,
			"byteOffset":1817184
		},
		{
			"buffer":0,
			"byteLength":24,
			"byteOffset":1817984
		},
		{
			"buffer":0,
			"byteLength":24,
			"byteOffset":1818008
		},
		{
			"buffer":0,
			"byteLength":32,
			"byteOffset":1818032
		},
		{
			"buffer":0,
			"byteLength":24,
			"byteOffset":1818064
		}
	],
	"buffers":[
		{
			"byteLength":1818088,
			"uri":"BlowAfter.bin"
		}
	]
}
